<svg id="Layer_1" data-name="Layer 1" xmlns="http://www.w3.org/2000/svg" viewBox="0 0 2250.38 1042.06"><defs><style>.cls-1{fill:#aaa;}.cls-2{fill:#2f609b;}.cls-3,.cls-8{fill:#2c2a28;}.cls-4{font-size:12px;font-family:ArialMT, Arial;}.cls-5{letter-spacing:-0.02em;}.cls-6{fill:#fff;}.cls-7,.cls-9{fill:none;}.cls-7,.cls-8{stroke:#fff;}.cls-7,.cls-8,.cls-9{stroke-miterlimit:10;stroke-width:2px;}.cls-9{stroke:#f2f2f2;}.cls-10{fill:#295784;}</style></defs><title>Artboard 1</title><polygon class="cls-1" points="1878.18 0 1457.4 0 792.98 0 372.19 0 0 107.94 792.98 107.94 1457.4 107.94 2250.38 107.94 1878.18 0"/><rect class="cls-1" x="962.96" y="585.53" width="54.44" height="7.14"/><rect class="cls-2" y="107.94" width="2250.38" height="934.12"/><rect class="cls-3" x="677.68" y="582.23" width="54.44" height="9.11"/><text class="cls-4" transform="translate(361.74 691.11)">SINGLE<tspan x="0" y="14.4">STE</tspan><tspan class="cls-5" x="23.34" y="14.4">P</tspan></text><rect class="cls-3" x="28.49" y="136.43" width="2193.39" height="877.13"/><rect class="cls-1" x="28.49" y="904.24" width="2193.39" height="109.32"/><path d="M351.09,997.22,347,976.17H330.13l-4.86,21.05H320l16.66-76.63h11.69q5.63,0,6.84,5.31l14.45,71.32Zm-11.81-61.61-7.39,32.9h13.79Z"/><path d="M382.42,997.22a7.33,7.33,0,0,1-4.63-1.23q-1.55-1.22-1.55-4.49V920.59h6.18v46.9q0,3,3.09,3H410v26.77Z"/><path d="M424.78,997.22V950.43a2.34,2.34,0,0,0-3-3H405V920.59h44.46v26.87H433.72a3.35,3.35,0,0,0-2.26.51,3.91,3.91,0,0,0-.5,2.46v46.79Z"/><path d="M477.19,997.22l-4.09-21.05H456.23l-4.86,21.05h-5.29l16.65-76.63h11.7q5.63,0,6.84,5.31l14.45,71.32Zm-11.81-61.61L458,968.51h13.79Z"/><path d="M502.34,997.22V920.59H522v76.63Z"/><path d="M570.3,997.22V967.08a2.47,2.47,0,0,0-.55-1.89,3.42,3.42,0,0,0-2.1-.46h-16v32.49H532V920.59H570.3q6.29,0,6.29,5.72v29.94q0,4.18-3.53,4.8a3.92,3.92,0,0,1,2.53,1.84,5.49,5.49,0,0,1,1,3v31.37Zm0-66.62a2.83,2.83,0,0,0-.5-1.94,2.92,2.92,0,0,0-2-.51H551.65v29.33h16a3.49,3.49,0,0,0,2.1-.46,2.47,2.47,0,0,0,.55-1.89Z"/><path d="M635.06,997.22a6.28,6.28,0,0,1-4.36-1.63,5.26,5.26,0,0,1-1.82-4.09V958.91c0-1.77,1.17-3.07,3.53-3.89-2.36-.61-3.53-1.87-3.53-3.78V926.31a5.28,5.28,0,0,1,1.82-4,6.15,6.15,0,0,1,4.36-1.69h32.1a6.33,6.33,0,0,1,4.47,1.69,5.32,5.32,0,0,1,1.82,4v24.93q0,2.65-3.53,3.78,3.52.62,3.53,3.89V991.5a5.29,5.29,0,0,1-1.82,4.09,6.47,6.47,0,0,1-4.47,1.63Zm32.1-66.11q0-3-3.09-3H638.7c-2,0-3,1-3,3v17.58c0,1.91,1,2.86,3,2.86h25.37c2.06,0,3.09-.95,3.09-2.86Zm0,30c0-1.9-1-2.86-3.09-2.86H638.7c-2,0-3,1-3,2.86v6.34c0,2,1,3,3,3h25.37q3.09,0,3.09-3Z"/><path d="M689.55,997.22a6.27,6.27,0,0,1-4.35-1.63,5.26,5.26,0,0,1-1.82-4.09V958.91c0-1.77,1.17-3.07,3.53-3.89-2.36-.61-3.53-1.87-3.53-3.78V926.31a5.28,5.28,0,0,1,1.82-4,6.15,6.15,0,0,1,4.35-1.69h32.11a6.33,6.33,0,0,1,4.47,1.69,5.32,5.32,0,0,1,1.82,4v24.93q0,2.65-3.53,3.78,3.52.62,3.53,3.89V991.5a5.29,5.29,0,0,1-1.82,4.09,6.47,6.47,0,0,1-4.47,1.63Zm32.11-66.11q0-3-3.09-3H693.19a2.62,2.62,0,0,0-3,3v17.58c0,1.91,1,2.86,3,2.86h25.38c2.06,0,3.09-.95,3.09-2.86Zm0,30c0-1.9-1-2.86-3.09-2.86H693.19c-2,0-3,1-3,2.86v6.34a2.62,2.62,0,0,0,3,3h25.38q3.09,0,3.09-3Z"/><path d="M744.05,997.22a6.31,6.31,0,0,1-4.36-1.63,5.29,5.29,0,0,1-1.82-4.09V926.31a5.32,5.32,0,0,1,1.82-4,6.19,6.19,0,0,1,4.36-1.69h32.11a6.29,6.29,0,0,1,4.46,1.69,5.28,5.28,0,0,1,1.82,4V991.5a5.26,5.26,0,0,1-1.82,4.09,6.42,6.42,0,0,1-4.46,1.63Zm32.11-47c0-1.84-1-2.76-3.09-2.76H747.69c-2,0-3,.92-3,2.76v17.27c0,2,1,3,3,3h25.38c2,0,3.09-1,3.09-3Z"/><path d="M798.55,997.22a6.31,6.31,0,0,1-4.36-1.63,5.29,5.29,0,0,1-1.82-4.09V926.31a5.32,5.32,0,0,1,1.82-4,6.19,6.19,0,0,1,4.36-1.69h32.1a6.3,6.3,0,0,1,4.47,1.69,5.28,5.28,0,0,1,1.82,4V991.5a5.26,5.26,0,0,1-1.82,4.09,6.43,6.43,0,0,1-4.47,1.63Zm32.1-47q0-2.76-3.09-2.76H802.19c-2,0-3,.92-3,2.76v17.27c0,2,1,3,3,3h25.37q3.09,0,3.09-3Z"/><path d="M892.68,986.8a5.77,5.77,0,0,1-4.5-1.62,5.41,5.41,0,0,1-1.47-3.75V935.16a5.41,5.41,0,0,1,1.36-4c.92-.92,2.45-1.37,4.61-1.37h29.26q6,0,6,5.37v12.15a1.93,1.93,0,0,1-.41,1.46,1.77,1.77,0,0,1-1.21.36h-2.53a2.34,2.34,0,0,1-1.52-.36,1.93,1.93,0,0,1-.41-1.46v-7.9a1.52,1.52,0,0,0-.4-1.12,2.22,2.22,0,0,0-1.52-.4H907.06a2.22,2.22,0,0,0-1.52.4,1.52,1.52,0,0,0-.4,1.12v37.67a1.64,1.64,0,0,0,.4,1.21,2.16,2.16,0,0,0,1.52.41h12.86a2.16,2.16,0,0,0,1.52-.41,1.64,1.64,0,0,0,.4-1.21V970.8c0-1.15.64-1.72,1.93-1.72h2.33c1.21,0,1.82.57,1.82,1.72v10.63a5,5,0,0,1-1.57,4,6.52,6.52,0,0,1-4.41,1.37Z"/><path d="M941.28,986.8a6.16,6.16,0,0,1-4.35-1.42,5.15,5.15,0,0,1-1.52-4V935.16q0-5.37,5.87-5.37h29.37q5.86,0,5.87,5.37v46.27a5.15,5.15,0,0,1-1.52,4,6.16,6.16,0,0,1-4.35,1.42Zm29.27-47.39a1.64,1.64,0,0,0-.36-1.12,2,2,0,0,0-1.47-.4H955.46c-1.08,0-1.62.51-1.62,1.52v37.67a1.43,1.43,0,0,0,1.62,1.62h13.26a1.94,1.94,0,0,0,1.47-.41,1.77,1.77,0,0,0,.36-1.21Z"/><path d="M1023.6,986.8V939.51c0-1.08-.6-1.62-1.82-1.62h-4.25q-2.13,0-2.13,1.62V986.8h-6.07V939.51a2,2,0,0,0-.31-1.22,1.63,1.63,0,0,0-1.31-.4H1003c-1.15,0-1.72.54-1.72,1.62V986.8h-15.6V935.26a5.68,5.68,0,0,1,1.37-4q1.37-1.51,4.5-1.52h17c2,0,3.24.64,3.84,1.92a4.23,4.23,0,0,1,3.85-1.92h17a6.42,6.42,0,0,1,4.31,1.42,5,5,0,0,1,1.67,4V986.8Z"/><path d="M1048.31,986.8v-57h35.24a6.57,6.57,0,0,1,4.2,1.32,4.83,4.83,0,0,1,1.67,4v28a4.73,4.73,0,0,1-1.87,4.15,6.82,6.82,0,0,1-4,1.32h-16.81V986.8Zm35.14-47.39c0-1-.65-1.52-1.93-1.52h-14.78v22.58h14.78c1.28,0,1.93-.51,1.93-1.52Z"/><path d="M1102.58,986.8a6.12,6.12,0,0,1-4.4-1.42,5.24,5.24,0,0,1-1.47-4V929.79h18.43V963.3a2.17,2.17,0,0,0,.4,1.47,2,2,0,0,0,1.52.46h14.79V929.79H1138v51.64q0,5.37-6,5.37Z"/><path d="M1162.42,986.8V953.28a2.47,2.47,0,0,0-.3-1.47c-.2-.23-.71-.35-1.52-.35h-16.2V929.79h41.21v21.67h-15a3,3,0,0,0-1.73.3,2.43,2.43,0,0,0-.3,1.52V986.8Z"/><path d="M1197.26,986.8a5.31,5.31,0,0,1-3.85-1.37A4.5,4.5,0,0,1,1192,982V934.55a5.07,5.07,0,0,1,1.16-3.39c.78-.92,2.15-1.37,4.11-1.37h30.58c2.09,0,3.14.67,3.14,2v4c0,1.49-1,2.23-3.14,2.23h-14.69a4.93,4.93,0,0,0-2.38.41c-.44.27-.65.87-.65,1.82V944a2,2,0,0,0,.6,1.68,4.21,4.21,0,0,0,2.33.45h14.58c1.89,0,2.84.68,2.84,2v4c0,1.35-1,2-2.84,2h-14.58c-2,0-2.93.75-2.93,2.23v8.2c0,1,.18,1.56.55,1.82a4.56,4.56,0,0,0,2.38.41h17.62V986.8Z"/><path d="M1273.1,986.8V965.23c0-1.08-.68-1.62-2-1.62h-14.68V986.8H1238v-57h35.34a6.67,6.67,0,0,1,4.3,1.26,5,5,0,0,1,1.57,4.11v21.36a3.69,3.69,0,0,1-.71,2.08,2.66,2.66,0,0,1-1.62,1.26,3.38,3.38,0,0,1,1.67,1.12,3.42,3.42,0,0,1,.66,2.22v23.6Zm0-47.39c0-1-.58-1.52-1.72-1.52h-15V956h15c1.14,0,1.72-.5,1.72-1.51Z"/><path d="M177.3,930.3a16.27,16.27,0,0,1,.68,3.53c.68-2.76,1.81-3.53,5-3.53,2,0,2.88.17,3.57.69a4.53,4.53,0,0,1,1.52,2.84c.8-2.8,1.89-3.53,5.18-3.53,4,0,4.85,1,4.85,5.3v21.46h-7.18V939c0-1.89-.36-2.53-1.44-2.53S188,937.16,188,939v18h-7.18V938.57c0-1.45-.48-2.13-1.48-2.13s-1.45.72-1.45,2.21v18.41h-7.18V936.4a23.12,23.12,0,0,0-.68-6.09h7.26Z"/><path d="M207.87,930.3v26.76h-7.18V930.3Z"/><path d="M223.15,936.12H219.9v20.94h-7.18V936.12h-3.25V930.3h13.68Z"/><path d="M237.87,936.12h-6.3v4.65h1.29c4.61,0,5.73,1.41,5.73,7.1v1.65c0,3.09-.36,5-1.08,6.06s-1.6,1.36-3.41,1.44l-2.93,0h-6.66v-5.82h6.7v-4.65h-1.12c-2.77,0-4-.4-4.73-1.68s-1-2.41-1-5.66v-1.64c0-3.29.57-5.46,1.65-6.38.92-.8,1.76-.93,5.65-.93h6.18v5.82Z"/><path d="M248.35,943.2a4.17,4.17,0,0,1-1.26,3,4.12,4.12,0,0,1-3,1.27,4.31,4.31,0,0,1,0-8.62,4.11,4.11,0,0,1,3,1.26A4.17,4.17,0,0,1,248.35,943.2Zm-.77,0a3.53,3.53,0,0,0-1-2.55,3.32,3.32,0,0,0-2.47-1.06,3.37,3.37,0,0,0-2.51,1.06,3.67,3.67,0,0,0,0,5.12,3.48,3.48,0,0,0,5,0A3.55,3.55,0,0,0,247.58,943.19Zm-1.36,2.49h-1.11l-.81-2h-1.19v2h-1.06v-5h2.31a2,2,0,0,1,1.4.41,1.41,1.41,0,0,1-.45,2.37Zm-3.11-2.8h1.09c.62,0,.93-.23.93-.7s-.28-.68-.85-.68h-1.17Z"/><path class="cls-6" d="M277.7,241v-13.7h1.82V241Z"/><path class="cls-6" d="M282.69,241v-13.7h1.86l7.19,10.75V227.31h1.74V241h-1.86l-7.19-10.76V241Z"/><path class="cls-6" d="M300,241V228.93H295.5v-1.62h10.85v1.62h-4.53V241Z"/><path class="cls-6" d="M308.25,241v-13.7h9.9v1.62h-8.09v4.19h7.57v1.61h-7.57v4.66h8.4V241Z"/><path class="cls-6" d="M354.75,240.63V227.39h5a12.46,12.46,0,0,1,2,.13,4.05,4.05,0,0,1,1.63.62,3.14,3.14,0,0,1,1.06,1.28,4,4,0,0,1,.41,1.8,4.06,4.06,0,0,1-1.08,2.86c-.72.78-2,1.17-3.88,1.17h-3.39v5.38Zm1.76-6.94h3.42a3.59,3.59,0,0,0,2.41-.64,2.25,2.25,0,0,0,.71-1.77,2.42,2.42,0,0,0-.42-1.43,2,2,0,0,0-1.11-.78,8.1,8.1,0,0,0-1.63-.11h-3.38Z"/><path class="cls-6" d="M367.11,240.63V227.39H373a7.76,7.76,0,0,1,2.69.36,3,3,0,0,1,1.47,1.26,3.74,3.74,0,0,1,.55,2,3.32,3.32,0,0,1-.91,2.37,4.69,4.69,0,0,1-2.82,1.23,4.24,4.24,0,0,1,1.06.66,8.79,8.79,0,0,1,1.45,1.76l2.3,3.6h-2.2l-1.75-2.76c-.51-.79-.93-1.4-1.26-1.82a3.8,3.8,0,0,0-.89-.88,2.71,2.71,0,0,0-.8-.36,5.62,5.62,0,0,0-1-.06h-2v5.88Zm1.75-7.4h3.77a5.77,5.77,0,0,0,1.87-.24,2,2,0,0,0,1-.8,2.09,2.09,0,0,0,.35-1.18,2,2,0,0,0-.68-1.55,3.19,3.19,0,0,0-2.15-.6h-4.19Z"/><path class="cls-6" d="M379.9,234.18a7.22,7.22,0,0,1,1.77-5.16,6,6,0,0,1,4.57-1.86,6.27,6.27,0,0,1,3.3.88,5.63,5.63,0,0,1,2.24,2.44,7.85,7.85,0,0,1,.78,3.55,7.7,7.7,0,0,1-.82,3.6,5.53,5.53,0,0,1-2.3,2.41,6.6,6.6,0,0,1-3.21.81,6.26,6.26,0,0,1-3.34-.9,5.83,5.83,0,0,1-2.23-2.46A7.47,7.47,0,0,1,379.9,234.18Zm1.81,0A5.35,5.35,0,0,0,383,238a4.49,4.49,0,0,0,6.48,0,5.56,5.56,0,0,0,1.28-3.94,6.66,6.66,0,0,0-.55-2.82,4.17,4.17,0,0,0-1.59-1.87,4.35,4.35,0,0,0-2.36-.66,4.47,4.47,0,0,0-3.2,1.27C382.15,230.8,381.71,232.22,381.71,234.21Z"/><path class="cls-6" d="M398.18,240.63V229h-4.36v-1.57h10.49V229h-4.38v11.67Z"/><path class="cls-6" d="M432.59,240.86V227.17h2.73l3.24,9.69c.3.9.52,1.58.65,2,.16-.5.4-1.23.73-2.2l3.28-9.52h2.44v13.69h-1.75V229.4l-4,11.46H438.3l-4-11.66v11.66Z"/><path class="cls-6" d="M448.62,240.86V227.17h9.9v1.61h-8.09V233H458v1.6h-7.57v4.66h8.41v1.62Z"/><path class="cls-6" d="M461.28,240.86V227.17H464l3.24,9.69c.3.9.52,1.58.65,2,.16-.5.4-1.23.73-2.2l3.28-9.52h2.44v13.69H472.6V229.4l-4,11.46H467l-4-11.66v11.66Z"/><path class="cls-6" d="M477.3,240.86V227.17h6.07a8.33,8.33,0,0,1,2.79.36,3.06,3.06,0,0,1,1.52,1.31,3.87,3.87,0,0,1,.57,2.06,3.46,3.46,0,0,1-.95,2.46,4.78,4.78,0,0,1-2.91,1.27,4.81,4.81,0,0,1,1.09.68,9.74,9.74,0,0,1,1.51,1.82l2.38,3.73h-2.28L485.28,238c-.53-.82-1-1.45-1.31-1.89a4.07,4.07,0,0,0-.92-.91,2.65,2.65,0,0,0-.83-.37,5.87,5.87,0,0,0-1-.06h-2.1v6.08Zm1.81-7.65H483A5.85,5.85,0,0,0,485,233a2.07,2.07,0,0,0,1.07-.82,2.26,2.26,0,0,0,.36-1.23,2.05,2.05,0,0,0-.71-1.6,3.33,3.33,0,0,0-2.22-.62h-4.34Z"/><path class="cls-6" d="M527.79,240.86V227.17h1.81v13.69Z"/><path class="cls-6" d="M532.78,240.86V227.17h1.86l7.19,10.75V227.17h1.74v13.69h-1.86l-7.19-10.76v10.76Z"/><path class="cls-6" d="M546.61,240.86V227.17h5.17a12.15,12.15,0,0,1,2.08.13,4,4,0,0,1,1.69.64,3.36,3.36,0,0,1,1.1,1.32,4.27,4.27,0,0,1,.41,1.87,4.19,4.19,0,0,1-1.11,3c-.74.81-2.08,1.21-4,1.21h-3.52v5.57Zm1.81-7.18H552a3.75,3.75,0,0,0,2.5-.66,2.32,2.32,0,0,0,.73-1.84,2.48,2.48,0,0,0-.43-1.47,2,2,0,0,0-1.14-.81,7.87,7.87,0,0,0-1.69-.12h-3.51Z"/><path class="cls-6" d="M614.82,240.86V227.17h2.73l3.24,9.69c.3.9.51,1.58.65,2,.16-.5.4-1.23.73-2.2l3.28-9.52h2.44v13.69h-1.75V229.4l-4,11.46h-1.63l-4-11.66v11.66Z"/><path class="cls-6" d="M631.12,240.86V227.17h1.81v13.69Z"/><path class="cls-6" d="M686.44,234.19a7.18,7.18,0,0,1,1.77-5.16,6,6,0,0,1,4.57-1.86,6.36,6.36,0,0,1,3.3.87,5.77,5.77,0,0,1,2.25,2.44,8,8,0,0,1,.77,3.55,7.83,7.83,0,0,1-.81,3.61A5.53,5.53,0,0,1,696,240a6.5,6.5,0,0,1-3.21.82,6.28,6.28,0,0,1-3.34-.9,5.91,5.91,0,0,1-2.23-2.47A7.53,7.53,0,0,1,686.44,234.19Zm1.81,0a5.27,5.27,0,0,0,1.29,3.76,4.48,4.48,0,0,0,6.48,0,5.62,5.62,0,0,0,1.27-3.94,6.9,6.9,0,0,0-.54-2.83,4.23,4.23,0,0,0-1.6-1.86,4.27,4.27,0,0,0-2.36-.67,4.48,4.48,0,0,0-3.2,1.28C688.7,230.8,688.25,232.22,688.25,234.22Z"/><path class="cls-6" d="M710,227.4h1.75v7.65a9,9,0,0,1-.45,3.16,3.86,3.86,0,0,1-1.63,1.91,5.79,5.79,0,0,1-3.09.74,6.41,6.41,0,0,1-3-.64,3.64,3.64,0,0,1-1.69-1.86,8.74,8.74,0,0,1-.51-3.31V227.4h1.75V235a7.55,7.55,0,0,0,.32,2.54,2.48,2.48,0,0,0,1.11,1.26,3.84,3.84,0,0,0,1.9.44,3.64,3.64,0,0,0,2.76-.88A5.06,5.06,0,0,0,710,235Z"/><path class="cls-6" d="M718.07,240.63V229h-4.36V227.4H724.2V229h-4.38v11.67Z"/><path class="cls-6" d="M764.49,241v-13.7h1.82v5.63h7.11v-5.63h1.81V241h-1.81v-6.46h-7.11V241Z"/><path class="cls-6" d="M778.18,241v-13.7H780v12.08h6.74V241Z"/><path class="cls-6" d="M791,241V228.93h-4.51v-1.62H797.3v1.62h-4.53V241Z"/><path class="cls-6" d="M796.23,241l5.26-13.7h2l5.61,13.7H807l-1.6-4.15h-5.72l-1.5,4.15Zm3.95-5.63h4.64l-1.42-3.79c-.44-1.15-.76-2.1-1-2.84a18,18,0,0,1-.73,2.62Z"/><path class="cls-6" d="M838.5,236l1.66-.14a3.65,3.65,0,0,0,.54,1.63,3,3,0,0,0,1.33,1,5.12,5.12,0,0,0,2,.39,4.9,4.9,0,0,0,1.77-.3,2.5,2.5,0,0,0,1.14-.81,1.92,1.92,0,0,0,.37-1.14,1.74,1.74,0,0,0-.36-1.09,2.68,2.68,0,0,0-1.19-.78,23.07,23.07,0,0,0-2.36-.64,11.71,11.71,0,0,1-2.55-.83,3.54,3.54,0,0,1-1.42-1.23,3,3,0,0,1-.46-1.65,3.34,3.34,0,0,1,.57-1.87,3.47,3.47,0,0,1,1.66-1.33,6.34,6.34,0,0,1,2.43-.45,6.78,6.78,0,0,1,2.6.47,3.81,3.81,0,0,1,1.72,1.4,4,4,0,0,1,.66,2.09l-1.68.12a2.74,2.74,0,0,0-.92-1.89,3.55,3.55,0,0,0-2.31-.64,3.71,3.71,0,0,0-2.32.58,1.74,1.74,0,0,0-.72,1.4,1.52,1.52,0,0,0,.51,1.18,7.12,7.12,0,0,0,2.64.94,17.27,17.27,0,0,1,2.93.84,4.06,4.06,0,0,1,1.71,1.35,3.3,3.3,0,0,1,.55,1.89,3.62,3.62,0,0,1-.6,2,4,4,0,0,1-1.74,1.45,6,6,0,0,1-2.55.52,7.56,7.56,0,0,1-3-.52,4.25,4.25,0,0,1-1.91-1.58A4.51,4.51,0,0,1,838.5,236Z"/><path class="cls-6" d="M854.81,240.21V228.53h-4.37V227h10.5v1.56h-4.38v11.68Z"/><path class="cls-6" d="M859.91,240.21,865,227h1.89l5.42,13.24h-2l-1.54-4h-5.54l-1.45,4Zm3.82-5.44h4.49l-1.38-3.67c-.43-1.11-.74-2-.94-2.74a16.81,16.81,0,0,1-.72,2.53Z"/><path class="cls-6" d="M883.15,235.56l1.75.45a5.94,5.94,0,0,1-2,3.29,5.44,5.44,0,0,1-3.5,1.13,6.28,6.28,0,0,1-3.48-.87,5.44,5.44,0,0,1-2.05-2.52,9.14,9.14,0,0,1-.7-3.55,7.9,7.9,0,0,1,.79-3.61,5.42,5.42,0,0,1,2.25-2.34,6.64,6.64,0,0,1,3.21-.8,5.48,5.48,0,0,1,3.35,1,5.24,5.24,0,0,1,1.88,2.85L883,231a4.08,4.08,0,0,0-1.34-2.1,3.55,3.55,0,0,0-2.2-.66,4.25,4.25,0,0,0-2.55.73,3.78,3.78,0,0,0-1.44,2,7.82,7.82,0,0,0-.42,2.54,8.07,8.07,0,0,0,.49,3,3.66,3.66,0,0,0,1.53,1.88,4.29,4.29,0,0,0,2.25.62,3.77,3.77,0,0,0,2.5-.85A4.3,4.3,0,0,0,883.15,235.56Z"/><path class="cls-6" d="M887,240.21V227h1.75v6.56l6.57-6.56h2.38l-5.56,5.36,5.8,7.88h-2.31l-4.71-6.7-2.17,2.11v4.59Z"/><path class="cls-6" d="M937.79,240.21,934.28,227h1.8l2,8.67c.22.91.4,1.81.56,2.71.34-1.42.53-2.23.59-2.45l2.52-8.93h2.12l1.89,6.69a34.46,34.46,0,0,1,1,4.69q.26-1.26.66-2.88l2.07-8.5h1.76l-3.62,13.23H946l-2.79-10.08c-.24-.85-.37-1.36-.42-1.56-.13.61-.26,1.13-.38,1.56l-2.81,10.08Z"/><path class="cls-6" d="M952.4,233.76a7.25,7.25,0,0,1,1.76-5.16,6,6,0,0,1,4.57-1.86,6.33,6.33,0,0,1,3.31.88,5.69,5.69,0,0,1,2.24,2.44,8,8,0,0,1,.77,3.55,7.82,7.82,0,0,1-.81,3.6,5.59,5.59,0,0,1-2.3,2.41,6.66,6.66,0,0,1-3.22.81,6.28,6.28,0,0,1-3.34-.9,5.83,5.83,0,0,1-2.23-2.46A7.56,7.56,0,0,1,952.4,233.76Zm1.8,0a5.31,5.31,0,0,0,1.29,3.77,4.49,4.49,0,0,0,6.48,0,5.61,5.61,0,0,0,1.28-3.94,6.82,6.82,0,0,0-.55-2.82,4.25,4.25,0,0,0-1.6-1.87,4.35,4.35,0,0,0-2.36-.66,4.44,4.44,0,0,0-3.2,1.28C954.65,230.38,954.2,231.8,954.2,233.79Z"/><path class="cls-6" d="M1016.79,240.44V226.75h1.81v13.69Z"/><path class="cls-6" d="M1021.78,240.44V226.75h1.86l7.19,10.75V226.75h1.74v13.69h-1.86l-7.2-10.76v10.76Z"/><path class="cls-6" d="M1039.09,240.44V228.36h-4.51v-1.61h10.86v1.61h-4.53v12.08Z"/><path class="cls-6" d="M278.47,400.82l-3.63-13.69h1.86l2.08,9c.23.94.42,1.88.58,2.81.35-1.47.56-2.31.62-2.54l2.6-9.24h2.19l2,6.93a37.26,37.26,0,0,1,1.07,4.85c.17-.87.4-1.86.68-3l2.15-8.8h1.82l-3.76,13.69H287l-2.89-10.43c-.24-.87-.39-1.41-.43-1.61-.14.63-.28,1.16-.4,1.61l-2.91,10.43Z"/><path class="cls-6" d="M291.92,400.82l5.26-13.69h1.95l5.61,13.69h-2.07l-1.59-4.15h-5.73l-1.5,4.15Zm3.95-5.62h4.65l-1.43-3.8c-.44-1.15-.76-2.09-1-2.83a17.88,17.88,0,0,1-.74,2.61Z"/><path class="cls-6" d="M306.49,400.82V387.13h1.82v13.69Z"/><path class="cls-6" d="M315,400.82V388.74h-4.51v-1.61h10.86v1.61H316.8v12.08Z"/><path class="cls-6" d="M354.77,400.82V387.13h1.81v5.62h7.12v-5.62h1.81v13.69H363.7v-6.45h-7.12v6.45Z"/><path class="cls-6" d="M368.45,400.82V387.13h1.82V399.2H377v1.62Z"/><path class="cls-6" d="M379.17,400.82V387.13h4.71a11.56,11.56,0,0,1,2.44.19,4.62,4.62,0,0,1,2,1,5.61,5.61,0,0,1,1.62,2.34,9.17,9.17,0,0,1,.54,3.26,9.27,9.27,0,0,1-.37,2.76,6.64,6.64,0,0,1-.93,2,5.06,5.06,0,0,1-1.25,1.24,5.17,5.17,0,0,1-1.63.69,9.65,9.65,0,0,1-2.2.23ZM381,399.2h2.92A7.08,7.08,0,0,0,386,399a3.07,3.07,0,0,0,1.23-.71,4.34,4.34,0,0,0,1-1.73,8.51,8.51,0,0,0,.36-2.64,6.37,6.37,0,0,0-.71-3.3A3.55,3.55,0,0,0,386.2,389a7.29,7.29,0,0,0-2.34-.28H381Z"/><path class="cls-6" d="M391.48,400.82l5.26-13.69h1.95l5.6,13.69h-2.06l-1.6-4.15h-5.72l-1.51,4.15Zm3.95-5.62h4.64l-1.43-3.8c-.43-1.15-.76-2.09-1-2.83a16.71,16.71,0,0,1-.74,2.61Z"/><line class="cls-7" x1="447.48" y1="289.19" x2="1042.36" y2="289.19"/><polygon class="cls-2" points="211.19 964.97 211.19 999.07 292.27 918.75 171.79 927.84 267.26 927.84 218.77 977.09 211.19 964.97"/><path class="cls-6" d="M539,560.67h-1.65V550.18a8.53,8.53,0,0,1-1.56,1.13,10.9,10.9,0,0,1-1.73.85v-1.59a9.83,9.83,0,0,0,2.41-1.57,6.33,6.33,0,0,0,1.47-1.8H539Z"/><path class="cls-6" d="M543.24,557.16,545,557a3.12,3.12,0,0,0,.9,1.9,2.42,2.42,0,0,0,1.68.63,2.66,2.66,0,0,0,2-.89,3.38,3.38,0,0,0,.82-2.38,3,3,0,0,0-.79-2.22,2.74,2.74,0,0,0-2.07-.82,2.9,2.9,0,0,0-1.44.36,2.86,2.86,0,0,0-1,.94l-1.54-.2,1.3-6.89h6.67V549h-5.36l-.72,3.61a4.39,4.39,0,0,1,2.54-.84,4,4,0,0,1,3,1.21,4.28,4.28,0,0,1,1.21,3.13,4.93,4.93,0,0,1-1.06,3.15,4.28,4.28,0,0,1-3.53,1.63,4.34,4.34,0,0,1-3-1A4,4,0,0,1,543.24,557.16Z"/><path class="cls-6" d="M661.32,560.78h-1.67V550.11a8.4,8.4,0,0,1-1.59,1.16,11.21,11.21,0,0,1-1.76.86v-1.62a9.94,9.94,0,0,0,2.46-1.6,6.14,6.14,0,0,0,1.48-1.82h1.08Z"/><path class="cls-6" d="M671,560.78v-3.26h-5.92V556l6.23-8.84h1.36V556h1.85v1.54h-1.85v3.26Zm0-4.8v-6.15L666.71,556Z"/><path class="cls-6" d="M742.69,560.54H741V550.06a8,8,0,0,1-1.56,1.13,10.9,10.9,0,0,1-1.73.85v-1.59a9.73,9.73,0,0,0,2.41-1.57,6.17,6.17,0,0,0,1.47-1.79h1.06Z"/><path class="cls-6" d="M746.91,557l1.64-.22a3.65,3.65,0,0,0,1,2,2.39,2.39,0,0,0,1.66.62,2.68,2.68,0,0,0,2-.8,2.74,2.74,0,0,0,.8-2,2.52,2.52,0,0,0-2.62-2.6,4.84,4.84,0,0,0-1.17.18l.19-1.44h.26a3.42,3.42,0,0,0,1.89-.54,1.87,1.87,0,0,0,.85-1.69,2,2,0,0,0-.62-1.5,2.16,2.16,0,0,0-1.58-.6,2.22,2.22,0,0,0-1.6.61,3,3,0,0,0-.82,1.81l-1.65-.3a4.23,4.23,0,0,1,1.38-2.56,3.92,3.92,0,0,1,2.66-.91,4.45,4.45,0,0,1,2,.47,3.44,3.44,0,0,1,1.41,1.28,3.38,3.38,0,0,1,.49,1.73,2.82,2.82,0,0,1-.47,1.58,3.15,3.15,0,0,1-1.38,1.14,3.13,3.13,0,0,1,1.85,1.13,3.48,3.48,0,0,1,.65,2.17,3.91,3.91,0,0,1-1.28,3,4.46,4.46,0,0,1-3.23,1.22,4.21,4.21,0,0,1-2.93-1A4.05,4.05,0,0,1,746.91,557Z"/><path class="cls-6" d="M823.85,560.66h-1.68V550a8.63,8.63,0,0,1-1.58,1.16,11.27,11.27,0,0,1-1.77.86v-1.62a9.94,9.94,0,0,0,2.46-1.6,6.19,6.19,0,0,0,1.49-1.82h1.08Z"/><path class="cls-6" d="M836.94,559.05v1.61h-9a3,3,0,0,1,.2-1.16,6,6,0,0,1,1.1-1.81,17.48,17.48,0,0,1,2.19-2.07,18.91,18.91,0,0,0,3-2.89,3.46,3.46,0,0,0,.78-2,2.27,2.27,0,0,0-.71-1.68,2.57,2.57,0,0,0-1.86-.68,2.64,2.64,0,0,0-1.94.72,2.8,2.8,0,0,0-.73,2l-1.72-.18a4.23,4.23,0,0,1,1.33-2.93,4.55,4.55,0,0,1,3.1-1,4.28,4.28,0,0,1,3.1,1.09,3.54,3.54,0,0,1,1.15,2.7,4,4,0,0,1-.34,1.61,6.15,6.15,0,0,1-1.11,1.66,28.54,28.54,0,0,1-2.58,2.4c-1,.84-1.65,1.42-1.94,1.72a5.5,5.5,0,0,0-.7.9Z"/><path class="cls-6" d="M948.59,560.66h-1.67V550a8.4,8.4,0,0,1-1.59,1.16,11.21,11.21,0,0,1-1.76.86v-1.62a10.13,10.13,0,0,0,2.46-1.6,6.14,6.14,0,0,0,1.48-1.82h1.08Z"/><path class="cls-6" d="M957.77,560.66H956.1V550a8.4,8.4,0,0,1-1.59,1.16,11.21,11.21,0,0,1-1.76.86v-1.62a9.94,9.94,0,0,0,2.46-1.6A6.35,6.35,0,0,0,956.7,547h1.07Z"/><path class="cls-6" d="M1028,560.43h-1.65V549.94a8.77,8.77,0,0,1-1.56,1.14,10.9,10.9,0,0,1-1.73.85v-1.59a10.05,10.05,0,0,0,2.41-1.58,6,6,0,0,0,1.46-1.79H1028Z"/><path class="cls-6" d="M1032.2,553.82a12.21,12.21,0,0,1,.49-3.83,4.74,4.74,0,0,1,1.46-2.23,3.67,3.67,0,0,1,2.42-.79,4.12,4.12,0,0,1,1.9.43,3.59,3.59,0,0,1,1.34,1.26,6.48,6.48,0,0,1,.83,2,12.79,12.79,0,0,1,.31,3.17,12.42,12.42,0,0,1-.49,3.81,4.68,4.68,0,0,1-1.45,2.24,4.08,4.08,0,0,1-5.48-.6Q1032.2,557.61,1032.2,553.82Zm1.69,0c0,2.2.26,3.67.78,4.4a2.2,2.2,0,0,0,3.81,0c.52-.73.77-2.19.77-4.39s-.25-3.67-.77-4.4a2.3,2.3,0,0,0-1.92-1.09,2.13,2.13,0,0,0-1.82,1C1034.18,550.11,1033.89,551.62,1033.89,553.82Z"/><path class="cls-6" d="M1108.24,557.22l1.58-.15a2.68,2.68,0,0,0,.77,1.62,2.09,2.09,0,0,0,1.45.51,2.51,2.51,0,0,0,1.33-.35,2.79,2.79,0,0,0,.94-.93,5.47,5.47,0,0,0,.61-1.57,8,8,0,0,0,.25-2c0-.08,0-.18,0-.33a3.75,3.75,0,0,1-1.35,1.27,3.63,3.63,0,0,1-1.85.49,3.76,3.76,0,0,1-2.82-1.2,4.43,4.43,0,0,1-1.15-3.19,4.52,4.52,0,0,1,1.2-3.28,4,4,0,0,1,3-1.24,4.28,4.28,0,0,1,2.39.7,4.46,4.46,0,0,1,1.65,2,10,10,0,0,1,.56,3.77,12.23,12.23,0,0,1-.56,4.09,4.79,4.79,0,0,1-1.66,2.32,4.3,4.3,0,0,1-2.58.8,3.54,3.54,0,0,1-3.77-3.33Zm6.74-5.92a3.21,3.21,0,0,0-.76-2.25,2.36,2.36,0,0,0-1.81-.83,2.5,2.5,0,0,0-1.91.9,3.27,3.27,0,0,0-.82,2.32,2.85,2.85,0,0,0,.78,2.08,2.54,2.54,0,0,0,1.9.8,2.46,2.46,0,0,0,1.88-.8A3.15,3.15,0,0,0,1115,551.3Z"/><path class="cls-6" d="M1233.32,553a3.1,3.1,0,0,1-1.52-1.07,2.79,2.79,0,0,1-.5-1.66,3.22,3.22,0,0,1,1.06-2.46,3.86,3.86,0,0,1,2.79-1,3.93,3.93,0,0,1,2.83,1,3.32,3.32,0,0,1,1.07,2.48,2.73,2.73,0,0,1-.49,1.63,3,3,0,0,1-1.49,1.06,3.43,3.43,0,0,1,2.53,3.44,3.85,3.85,0,0,1-1.22,2.89,5,5,0,0,1-6.4,0,3.92,3.92,0,0,1-1.22-2.93,3.51,3.51,0,0,1,.67-2.2A3.33,3.33,0,0,1,1233.32,553Zm-.86,3.4a3,3,0,0,0,.33,1.37,2.32,2.32,0,0,0,1,1,2.91,2.91,0,0,0,1.42.36,2.62,2.62,0,0,0,2.72-2.69,2.68,2.68,0,0,0-.79-2,2.72,2.72,0,0,0-2-.78,2.62,2.62,0,0,0-2.68,2.69Zm.53-6.19a2.09,2.09,0,0,0,.61,1.56,2.18,2.18,0,0,0,1.59.6,2.14,2.14,0,0,0,1.56-.6,2,2,0,0,0,.61-1.47,2,2,0,0,0-.63-1.52,2.15,2.15,0,0,0-1.56-.62,2.11,2.11,0,0,0-1.56.61A1.91,1.91,0,0,0,1233,550.17Z"/><path class="cls-6" d="M1312.4,548.48v-1.62h8.87v1.31a18.52,18.52,0,0,0-2.59,3.7,22.41,22.41,0,0,0-2,4.74,17.24,17.24,0,0,0-.64,3.77h-1.73a17.12,17.12,0,0,1,.63-3.91,21.07,21.07,0,0,1,1.74-4.41,19.06,19.06,0,0,1,2.42-3.58Z"/><path class="cls-6" d="M1401.83,550l-1.64.13a3.21,3.21,0,0,0-.62-1.41,2.19,2.19,0,0,0-1.65-.7,2.27,2.27,0,0,0-1.38.43,3.76,3.76,0,0,0-1.23,1.66,8.61,8.61,0,0,0-.46,3.1,3.86,3.86,0,0,1,6.06-.57,4.35,4.35,0,0,1,1.15,3.13,5.2,5.2,0,0,1-.54,2.35,4,4,0,0,1-1.5,1.66,4.11,4.11,0,0,1-2.16.58,4.2,4.2,0,0,1-3.35-1.52q-1.3-1.51-1.3-5,0-3.89,1.44-5.65a4.1,4.1,0,0,1,3.37-1.54,3.61,3.61,0,0,1,3.81,3.34Zm-6.73,5.78a3.84,3.84,0,0,0,.36,1.63,2.68,2.68,0,0,0,1,1.18,2.49,2.49,0,0,0,1.37.41,2.33,2.33,0,0,0,1.79-.84,3.31,3.31,0,0,0,.75-2.29,3.14,3.14,0,0,0-.74-2.19,2.45,2.45,0,0,0-1.87-.8,2.55,2.55,0,0,0-1.89.8A2.9,2.9,0,0,0,1395.1,555.8Z"/><path class="cls-6" d="M1515.61,556.53l1.73-.14a3.1,3.1,0,0,0,.9,1.9,2.41,2.41,0,0,0,1.69.64,2.63,2.63,0,0,0,2-.9,3.41,3.41,0,0,0,.83-2.39,3.05,3.05,0,0,0-.79-2.23,2.76,2.76,0,0,0-2.08-.82,2.91,2.91,0,0,0-1.45.36,3,3,0,0,0-1,.95l-1.55-.21,1.31-6.91h6.69v1.58h-5.37l-.73,3.62a4.36,4.36,0,0,1,2.55-.85,4,4,0,0,1,3,1.22,4.27,4.27,0,0,1,1.21,3.14,4.88,4.88,0,0,1-1.06,3.16,4.27,4.27,0,0,1-3.54,1.64,4.36,4.36,0,0,1-3-1A4,4,0,0,1,1515.61,556.53Z"/><path class="cls-6" d="M1603,560.55v-3.28H1597v-1.54l6.25-8.87h1.37v8.87h1.85v1.54h-1.85v3.28Zm0-4.82v-6.17l-4.29,6.17Z"/><path class="cls-6" d="M1678.14,556.77l1.64-.22a3.58,3.58,0,0,0,1,2,2.39,2.39,0,0,0,1.66.62,2.65,2.65,0,0,0,2-.81,2.71,2.71,0,0,0,.8-2,2.53,2.53,0,0,0-.74-1.87,2.58,2.58,0,0,0-1.89-.74,4.93,4.93,0,0,0-1.16.19l.19-1.45a1.33,1.33,0,0,0,.26,0,3.35,3.35,0,0,0,1.89-.55,1.88,1.88,0,0,0,.85-1.69,2,2,0,0,0-.62-1.5,2.19,2.19,0,0,0-1.58-.59,2.25,2.25,0,0,0-1.6.6,3.06,3.06,0,0,0-.82,1.81l-1.65-.29a4.22,4.22,0,0,1,1.37-2.56,4,4,0,0,1,2.66-.91,4.27,4.27,0,0,1,2,.47,3.4,3.4,0,0,1,1.42,1.28,3.36,3.36,0,0,1,.49,1.73,2.84,2.84,0,0,1-.47,1.58,3.13,3.13,0,0,1-1.38,1.13,3.2,3.2,0,0,1,1.85,1.14,3.53,3.53,0,0,1,.65,2.16,3.94,3.94,0,0,1-1.28,3,4.5,4.5,0,0,1-3.23,1.22,4.21,4.21,0,0,1-2.93-1A4.06,4.06,0,0,1,1678.14,556.77Z"/><path class="cls-6" d="M1810.25,558.94v1.61h-9a2.86,2.86,0,0,1,.19-1.16,6.28,6.28,0,0,1,1.1-1.82,17.73,17.73,0,0,1,2.2-2.06,18.74,18.74,0,0,0,3-2.89,3.46,3.46,0,0,0,.78-2,2.23,2.23,0,0,0-.71-1.67,2.54,2.54,0,0,0-1.86-.69,2.59,2.59,0,0,0-1.93.73,2.77,2.77,0,0,0-.74,2l-1.72-.18a4.23,4.23,0,0,1,1.33-2.93,4.5,4.5,0,0,1,3.1-1,4.34,4.34,0,0,1,3.11,1.08,3.6,3.6,0,0,1,1.14,2.7,4.14,4.14,0,0,1-.33,1.61,6.7,6.7,0,0,1-1.11,1.67,27.62,27.62,0,0,1-2.59,2.4c-1,.84-1.65,1.41-1.93,1.71a5.64,5.64,0,0,0-.71.91Z"/><path class="cls-6" d="M1890,560.58h-1.67V549.91a8.74,8.74,0,0,1-1.59,1.15,11.35,11.35,0,0,1-1.76.87v-1.62a10.17,10.17,0,0,0,2.45-1.6,6.18,6.18,0,0,0,1.49-1.83H1890Z"/><path class="cls-6" d="M1963.43,553.76a12.21,12.21,0,0,1,.49-3.83,4.72,4.72,0,0,1,1.45-2.23,3.68,3.68,0,0,1,2.43-.79,3.94,3.94,0,0,1,1.89.44,3.59,3.59,0,0,1,1.35,1.25,6.85,6.85,0,0,1,.83,2,13.37,13.37,0,0,1,.3,3.17,12.36,12.36,0,0,1-.48,3.81,4.78,4.78,0,0,1-1.45,2.24,3.73,3.73,0,0,1-2.44.79,3.69,3.69,0,0,1-3-1.39Q1963.43,557.55,1963.43,553.76Zm1.69,0c0,2.2.26,3.67.77,4.4a2.21,2.21,0,0,0,3.82,0c.51-.73.77-2.19.77-4.39s-.26-3.67-.77-4.4a2.32,2.32,0,0,0-1.93-1.09,2.1,2.1,0,0,0-1.81,1C1965.4,550.05,1965.12,551.56,1965.12,553.76Z"/><path class="cls-6" d="M526.12,400.59l5.15-13.41h1.91l5.49,13.41h-2l-1.56-4.06h-5.61L528,400.59Zm3.87-5.51h4.55l-1.4-3.71c-.43-1.13-.75-2.05-.95-2.78a16.1,16.1,0,0,1-.73,2.56Z"/><path class="cls-6" d="M545.62,400.59H544V390.1a8.29,8.29,0,0,1-1.56,1.13,10.15,10.15,0,0,1-1.74.85v-1.59a9.61,9.61,0,0,0,2.42-1.57,6.08,6.08,0,0,0,1.46-1.79h1.06Z"/><path class="cls-6" d="M549.84,397.08l1.73-.15a3.09,3.09,0,0,0,.89,1.9,2.45,2.45,0,0,0,1.69.64,2.62,2.62,0,0,0,2-.9,3.38,3.38,0,0,0,.82-2.38,3,3,0,0,0-.79-2.22,2.75,2.75,0,0,0-2.07-.82,2.85,2.85,0,0,0-1.43.37,2.75,2.75,0,0,0-1,.93l-1.55-.2,1.3-6.89h6.67v1.58h-5.35l-.72,3.6a4.36,4.36,0,0,1,2.53-.84,4,4,0,0,1,3,1.22,4.23,4.23,0,0,1,1.21,3.13,4.85,4.85,0,0,1-1.06,3.14,4.23,4.23,0,0,1-3.52,1.63,4.36,4.36,0,0,1-3-1A4,4,0,0,1,549.84,397.08Z"/><path class="cls-6" d="M648.1,400.71l5.23-13.64h1.95l5.58,13.64H658.8l-1.59-4.13h-5.7l-1.5,4.13Zm3.93-5.6h4.62l-1.42-3.78c-.43-1.15-.76-2.09-1-2.83a17.83,17.83,0,0,1-.73,2.61Z"/><path class="cls-6" d="M667.93,400.71h-1.68V390a9.12,9.12,0,0,1-1.58,1.15,11.65,11.65,0,0,1-1.76.86v-1.61a10.37,10.37,0,0,0,2.45-1.6,6.34,6.34,0,0,0,1.49-1.83h1.08Z"/><path class="cls-6" d="M677.58,400.71v-3.27h-5.91v-1.53l6.22-8.84h1.37v8.84h1.84v1.53h-1.84v3.27Zm0-4.8v-6.15l-4.27,6.15Z"/><path class="cls-6" d="M729.8,400.47l5.15-13.4h1.91l5.48,13.4h-2l-1.56-4.06h-5.6l-1.47,4.06Zm3.87-5.51h4.54l-1.4-3.71c-.42-1.12-.74-2.05-.95-2.78a16.84,16.84,0,0,1-.72,2.56Z"/><path class="cls-6" d="M749.29,400.47h-1.64V390a8.77,8.77,0,0,1-1.56,1.14,12.35,12.35,0,0,1-1.73.85v-1.59a10.05,10.05,0,0,0,2.41-1.58,6.12,6.12,0,0,0,1.46-1.79h1.06Z"/><path class="cls-6" d="M753.51,396.93l1.65-.22a3.68,3.68,0,0,0,1,2,2.4,2.4,0,0,0,1.66.61,2.62,2.62,0,0,0,2-.8,2.69,2.69,0,0,0,.8-2,2.49,2.49,0,0,0-.74-1.87,2.55,2.55,0,0,0-1.88-.74,4.77,4.77,0,0,0-1.16.18l.18-1.44.27,0a3.35,3.35,0,0,0,1.89-.55,1.88,1.88,0,0,0,.84-1.69,2,2,0,0,0-.61-1.5,2.17,2.17,0,0,0-1.58-.59,2.24,2.24,0,0,0-1.6.6,3,3,0,0,0-.83,1.81l-1.64-.29a4.24,4.24,0,0,1,1.37-2.57,4,4,0,0,1,2.66-.91,4.45,4.45,0,0,1,2,.47,3.4,3.4,0,0,1,1.41,1.29,3.26,3.26,0,0,1,.49,1.73,2.86,2.86,0,0,1-.46,1.58,3.29,3.29,0,0,1-1.39,1.13,3.07,3.07,0,0,1,1.85,1.14,3.43,3.43,0,0,1,.66,2.16,4,4,0,0,1-1.28,3,4.51,4.51,0,0,1-3.24,1.22,4.19,4.19,0,0,1-2.93-1.06A4.07,4.07,0,0,1,753.51,396.93Z"/><path class="cls-6" d="M810.62,400.59,815.86,387h1.94l5.58,13.64h-2l-1.59-4.13H814l-1.49,4.13Zm3.94-5.6h4.62l-1.42-3.78c-.44-1.15-.76-2.09-1-2.83a17.88,17.88,0,0,1-.74,2.61Z"/><path class="cls-6" d="M830.45,400.59h-1.67V389.92a8.4,8.4,0,0,1-1.59,1.15,12.33,12.33,0,0,1-1.76.87v-1.62a10.44,10.44,0,0,0,2.46-1.6,6.29,6.29,0,0,0,1.48-1.83h1.08Z"/><path class="cls-6" d="M843.54,399v1.61h-9a2.91,2.91,0,0,1,.19-1.17,6.37,6.37,0,0,1,1.1-1.81,17.69,17.69,0,0,1,2.2-2.07,18.35,18.35,0,0,0,3-2.88,3.46,3.46,0,0,0,.78-2,2.27,2.27,0,0,0-.71-1.68,2.9,2.9,0,0,0-3.79.05,2.76,2.76,0,0,0-.74,2l-1.72-.17a4.26,4.26,0,0,1,1.33-2.94,4.57,4.57,0,0,1,3.1-1,4.35,4.35,0,0,1,3.11,1.09,3.6,3.6,0,0,1,1.14,2.7,4.14,4.14,0,0,1-.33,1.61,6.49,6.49,0,0,1-1.11,1.66,25.13,25.13,0,0,1-2.59,2.4c-1,.85-1.65,1.42-1.93,1.72a5.23,5.23,0,0,0-.71.91Z"/><path class="cls-6" d="M935.37,400.59,940.6,387h1.95l5.58,13.64h-2.06l-1.59-4.13h-5.7l-1.5,4.13Zm3.93-5.6h4.62l-1.42-3.78c-.43-1.15-.76-2.09-1-2.83a17.83,17.83,0,0,1-.73,2.61Z"/><path class="cls-6" d="M955.2,400.59h-1.68V389.92a8.63,8.63,0,0,1-1.58,1.15,12.39,12.39,0,0,1-1.77.87v-1.62a10.23,10.23,0,0,0,2.46-1.6,6.34,6.34,0,0,0,1.49-1.83h1.08Z"/><path class="cls-6" d="M964.38,400.59H962.7V389.92a8.63,8.63,0,0,1-1.58,1.15,12.88,12.88,0,0,1-1.76.87v-1.62a10.37,10.37,0,0,0,2.45-1.6,6.34,6.34,0,0,0,1.49-1.83h1.08Z"/><path class="cls-6" d="M1015.09,400.36l5.15-13.41h1.91l5.49,13.41h-2l-1.57-4.06h-5.6l-1.48,4.06Zm3.87-5.51h4.54l-1.4-3.71c-.42-1.13-.74-2.06-1-2.78a17.17,17.17,0,0,1-.72,2.56Z"/><path class="cls-6" d="M1034.59,400.36h-1.65V389.87a8.53,8.53,0,0,1-1.56,1.13,10.9,10.9,0,0,1-1.73.85v-1.59a10.09,10.09,0,0,0,2.42-1.57,6.45,6.45,0,0,0,1.46-1.8h1.06Z"/><path class="cls-6" d="M1038.81,393.74a12.1,12.1,0,0,1,.49-3.82,4.71,4.71,0,0,1,1.45-2.24,3.73,3.73,0,0,1,2.43-.79,3.94,3.94,0,0,1,1.89.44,3.75,3.75,0,0,1,1.35,1.25,6.8,6.8,0,0,1,.83,2,13.27,13.27,0,0,1,.3,3.16,12.36,12.36,0,0,1-.48,3.81,4.87,4.87,0,0,1-1.45,2.25,3.78,3.78,0,0,1-2.44.79,3.71,3.71,0,0,1-3-1.39Q1038.81,397.52,1038.81,393.74Zm1.69,0c0,2.21.26,3.67.77,4.4a2.22,2.22,0,0,0,3.82,0c.51-.74.77-2.2.77-4.4s-.26-3.67-.77-4.39a2.3,2.3,0,0,0-1.93-1.09,2.1,2.1,0,0,0-1.81,1C1040.78,390,1040.5,391.54,1040.5,393.74Z"/><path class="cls-6" d="M1101.3,400.24l5.15-13.41h1.91l5.49,13.41h-2l-1.56-4.06h-5.61l-1.47,4.06Zm3.86-5.5h4.55l-1.4-3.72c-.43-1.12-.74-2-1-2.78a16.84,16.84,0,0,1-.72,2.56Z"/><path class="cls-6" d="M1114.84,397.14l1.58-.14a2.8,2.8,0,0,0,.77,1.62,2.16,2.16,0,0,0,1.46.5,2.54,2.54,0,0,0,1.33-.35,2.88,2.88,0,0,0,.94-.93,5.64,5.64,0,0,0,.61-1.57,8.45,8.45,0,0,0,.25-2c0-.07,0-.18,0-.33a3.81,3.81,0,0,1-3.21,1.77,3.73,3.73,0,0,1-2.81-1.21,4.41,4.41,0,0,1-1.15-3.18,4.55,4.55,0,0,1,1.2-3.29,4,4,0,0,1,3-1.24,4.28,4.28,0,0,1,2.39.7,4.33,4.33,0,0,1,1.65,2,9.81,9.81,0,0,1,.56,3.77,12,12,0,0,1-.56,4.1,4.77,4.77,0,0,1-1.66,2.32,4.27,4.27,0,0,1-2.58.79,3.54,3.54,0,0,1-3.77-3.33Zm6.74-5.92a3.25,3.25,0,0,0-.75-2.25,2.38,2.38,0,0,0-1.82-.83,2.5,2.5,0,0,0-1.91.9,3.33,3.33,0,0,0-.81,2.32,2.83,2.83,0,0,0,.77,2.08,2.53,2.53,0,0,0,1.91.8,2.42,2.42,0,0,0,1.88-.8A3.15,3.15,0,0,0,1121.58,391.22Z"/><path class="cls-6" d="M1224.09,400.16l5.15-13.41h1.91l5.49,13.41h-2l-1.57-4.06h-5.61l-1.47,4.06Zm3.87-5.51h4.54l-1.4-3.71c-.42-1.13-.74-2.06-.95-2.78a17.17,17.17,0,0,1-.72,2.56Z"/><path class="cls-6" d="M1239.92,392.88a3.08,3.08,0,0,1-1.52-1.07,2.76,2.76,0,0,1-.49-1.66,3.24,3.24,0,0,1,1-2.46,3.87,3.87,0,0,1,2.8-1,4,4,0,0,1,2.83,1,3.32,3.32,0,0,1,1.07,2.49,2.77,2.77,0,0,1-.49,1.62,3.13,3.13,0,0,1-1.49,1.06,3.67,3.67,0,0,1,1.88,1.3,3.57,3.57,0,0,1,.64,2.14,3.84,3.84,0,0,1-1.21,2.89,4.39,4.39,0,0,1-3.2,1.18,4.46,4.46,0,0,1-3.21-1.18,3.9,3.9,0,0,1-1.21-2.93,3.56,3.56,0,0,1,.66-2.19A3.34,3.34,0,0,1,1239.92,392.88Zm-.86,3.41a3,3,0,0,0,.33,1.36,2.4,2.4,0,0,0,1,1,2.9,2.9,0,0,0,1.41.36,2.64,2.64,0,0,0,2-.76,2.56,2.56,0,0,0,.77-1.93,2.61,2.61,0,0,0-.79-2,2.71,2.71,0,0,0-2-.78,2.59,2.59,0,0,0-1.93.77A2.64,2.64,0,0,0,1239.06,396.29Zm.53-6.19a2.11,2.11,0,0,0,.61,1.55,2.19,2.19,0,0,0,1.6.6,2.14,2.14,0,0,0,1.56-.6,2,2,0,0,0,.6-1.46,2.1,2.1,0,0,0-.62-1.53,2.14,2.14,0,0,0-1.56-.61,2.18,2.18,0,0,0-1.57.6A2,2,0,0,0,1239.59,390.1Z"/><path class="cls-6" d="M1305.31,400.3l5.26-13.69h2l5.6,13.69h-2.06l-1.6-4.15h-5.73l-1.5,4.15Zm4-5.62h4.64l-1.43-3.8c-.44-1.15-.76-2.1-1-2.84a18,18,0,0,1-.74,2.62Z"/><path class="cls-6" d="M1319,388.4v-1.62h8.86v1.31a18.93,18.93,0,0,0-2.59,3.7,22.07,22.07,0,0,0-2,4.74,17.23,17.23,0,0,0-.65,3.77h-1.73a16.67,16.67,0,0,1,.64-3.91,20.23,20.23,0,0,1,1.74-4.41,19,19,0,0,1,2.41-3.58Z"/><path class="cls-6" d="M1386.59,400.07l5.15-13.41h1.91l5.49,13.41h-2l-1.57-4.06h-5.61l-1.47,4.06Zm3.87-5.51H1395l-1.4-3.71c-.42-1.13-.74-2.06-.95-2.78a17.17,17.17,0,0,1-.72,2.56Z"/><path class="cls-6" d="M1408.43,389.94l-1.64.13a3.09,3.09,0,0,0-.62-1.41,2.16,2.16,0,0,0-1.65-.7,2.29,2.29,0,0,0-1.38.44,3.84,3.84,0,0,0-1.22,1.65,8.58,8.58,0,0,0-.47,3.1,3.8,3.8,0,0,1,1.46-1.34,3.92,3.92,0,0,1,1.8-.44,3.75,3.75,0,0,1,2.8,1.21,4.38,4.38,0,0,1,1.16,3.14,5,5,0,0,1-.55,2.34,4,4,0,0,1-1.49,1.66,4.06,4.06,0,0,1-2.16.58,4.24,4.24,0,0,1-3.36-1.52c-.86-1-1.3-2.67-1.3-5q0-3.89,1.44-5.65a4.14,4.14,0,0,1,3.38-1.53,3.8,3.8,0,0,1,2.59.88A3.76,3.76,0,0,1,1408.43,389.94Zm-6.72,5.79a3.82,3.82,0,0,0,.36,1.62,2.7,2.7,0,0,0,1,1.19,2.53,2.53,0,0,0,1.36.4,2.35,2.35,0,0,0,1.8-.84,3.3,3.3,0,0,0,.75-2.28,3.06,3.06,0,0,0-.75-2.19,2.39,2.39,0,0,0-1.86-.8,2.52,2.52,0,0,0-1.9.8A2.9,2.9,0,0,0,1401.71,395.73Z"/><path class="cls-6" d="M1508.86,400l5.17-13.46H1516l5.51,13.46h-2l-1.57-4.08h-5.63l-1.48,4.08Zm3.88-5.53h4.57l-1.41-3.73c-.43-1.13-.74-2.06-1-2.79a15.92,15.92,0,0,1-.73,2.57Z"/><path class="cls-6" d="M1522.21,396.46l1.74-.15a3.14,3.14,0,0,0,.89,1.9,2.43,2.43,0,0,0,1.7.64,2.65,2.65,0,0,0,2-.9,3.39,3.39,0,0,0,.83-2.39,3.08,3.08,0,0,0-.8-2.23,2.78,2.78,0,0,0-2.08-.81,2.9,2.9,0,0,0-1.44.36,2.7,2.7,0,0,0-1,.94l-1.55-.2,1.3-6.92h6.7v1.58h-5.38l-.72,3.62a4.39,4.39,0,0,1,2.54-.84,4,4,0,0,1,3,1.22,4.25,4.25,0,0,1,1.21,3.14,4.91,4.91,0,0,1-1.07,3.16,4.25,4.25,0,0,1-3.53,1.63,4.32,4.32,0,0,1-3-1A4,4,0,0,1,1522.21,396.46Z"/><path class="cls-6" d="M1590.62,400.47l5.26-13.69h1.95l5.6,13.69h-2.06l-1.6-4.14H1594l-1.5,4.14Zm4-5.62h4.64l-1.43-3.79c-.44-1.15-.76-2.1-1-2.84a17.53,17.53,0,0,1-.74,2.61Z"/><path class="cls-6" d="M1609.59,400.47v-3.28h-5.94v-1.54l6.24-8.87h1.38v8.87h1.85v1.54h-1.85v3.28Zm0-4.82v-6.17l-4.29,6.17Z"/><path class="cls-6" d="M1671.44,400.23l5.15-13.4h1.91l5.49,13.4h-2l-1.57-4.05h-5.6l-1.47,4.05Zm3.87-5.5h4.54l-1.4-3.71c-.42-1.13-.74-2-1-2.78a17.17,17.17,0,0,1-.72,2.56Z"/><path class="cls-6" d="M1684.74,396.7l1.65-.22a3.64,3.64,0,0,0,1,2,2.41,2.41,0,0,0,1.66.62,2.66,2.66,0,0,0,2-.8,2.7,2.7,0,0,0,.8-2,2.51,2.51,0,0,0-.74-1.87,2.55,2.55,0,0,0-1.88-.73,4.77,4.77,0,0,0-1.16.18l.18-1.44h.27a3.42,3.42,0,0,0,1.89-.54,1.88,1.88,0,0,0,.84-1.69,2,2,0,0,0-.61-1.5,2.17,2.17,0,0,0-1.58-.6,2.2,2.2,0,0,0-1.6.61,3,3,0,0,0-.83,1.81l-1.64-.3a4.25,4.25,0,0,1,1.37-2.56,3.94,3.94,0,0,1,2.66-.91,4.45,4.45,0,0,1,2,.47,3.36,3.36,0,0,1,1.9,3,2.74,2.74,0,0,1-.47,1.58A3.15,3.15,0,0,1,1691,393a3.1,3.1,0,0,1,1.85,1.13,3.48,3.48,0,0,1,.66,2.17,4,4,0,0,1-1.28,3,4.47,4.47,0,0,1-3.24,1.22,4.23,4.23,0,0,1-2.93-1.05A4.1,4.1,0,0,1,1684.74,396.7Z"/><path class="cls-6" d="M1794.53,400.47l5.24-13.63h1.94l5.58,13.63h-2l-1.59-4.13h-5.71l-1.49,4.13Zm3.93-5.6h4.63l-1.43-3.77c-.43-1.15-.75-2.09-1-2.83a17.75,17.75,0,0,1-.74,2.6Z"/><path class="cls-6" d="M1816.86,398.86v1.61h-9a2.87,2.87,0,0,1,.2-1.16,6,6,0,0,1,1.1-1.81,16.17,16.17,0,0,1,2.19-2.07,18.74,18.74,0,0,0,3-2.89,3.41,3.41,0,0,0,.79-2,2.21,2.21,0,0,0-.72-1.68,2.53,2.53,0,0,0-1.85-.68,2.64,2.64,0,0,0-1.94.72,2.72,2.72,0,0,0-.73,2l-1.72-.18a4.23,4.23,0,0,1,1.33-2.93,4.55,4.55,0,0,1,3.1-1,4.3,4.3,0,0,1,3.1,1.09,3.54,3.54,0,0,1,1.15,2.7,3.93,3.93,0,0,1-.34,1.6,6,6,0,0,1-1.11,1.67,28.54,28.54,0,0,1-2.58,2.4c-1,.84-1.65,1.42-1.94,1.72a5.5,5.5,0,0,0-.7.9Z"/><path class="cls-6" d="M1876.8,400.5l5.24-13.64h2l5.58,13.64h-2.06l-1.59-4.13h-5.7l-1.5,4.13Zm3.94-5.6h4.62l-1.42-3.78c-.43-1.14-.76-2.09-1-2.82a17.71,17.71,0,0,1-.73,2.6Z"/><path class="cls-6" d="M1896.64,400.5H1895V389.83a8.63,8.63,0,0,1-1.58,1.15,11,11,0,0,1-1.77.87v-1.62a9.94,9.94,0,0,0,2.46-1.6,6.32,6.32,0,0,0,1.49-1.82h1.08Z"/><path class="cls-6" d="M1956.73,400.3l5.15-13.41h1.91l5.49,13.41h-2l-1.56-4.06h-5.61l-1.47,4.06Zm3.87-5.51h4.55l-1.4-3.71c-.43-1.13-.75-2.06-1-2.78a16.1,16.1,0,0,1-.73,2.56Z"/><path class="cls-6" d="M1970,393.69a12.42,12.42,0,0,1,.49-3.83,4.77,4.77,0,0,1,1.46-2.24,3.72,3.72,0,0,1,2.42-.78,4,4,0,0,1,1.9.43,3.64,3.64,0,0,1,1.34,1.25,6.81,6.81,0,0,1,.84,2,13.31,13.31,0,0,1,.3,3.17,12.12,12.12,0,0,1-.49,3.81,4.73,4.73,0,0,1-1.45,2.24,3.74,3.74,0,0,1-2.44.79,3.69,3.69,0,0,1-3-1.39Q1970,397.46,1970,393.69Zm1.69,0c0,2.2.26,3.66.78,4.39a2.21,2.21,0,0,0,3.81,0c.52-.74.77-2.2.77-4.39s-.25-3.68-.77-4.4a2.28,2.28,0,0,0-1.92-1.09,2.1,2.1,0,0,0-1.81,1C1972,390,1971.72,391.48,1971.72,393.69Z"/><path class="cls-6" d="M1305.54,240.44V226.75h4.72a11.51,11.51,0,0,1,2.43.19,4.62,4.62,0,0,1,2,1,5.61,5.61,0,0,1,1.62,2.34,9.17,9.17,0,0,1,.54,3.26,9.62,9.62,0,0,1-.36,2.76,6.89,6.89,0,0,1-.94,2,4.89,4.89,0,0,1-1.25,1.24,5.17,5.17,0,0,1-1.63.69,9.65,9.65,0,0,1-2.2.23Zm1.81-1.62h2.92a7,7,0,0,0,2.13-.25,3.07,3.07,0,0,0,1.23-.71,4.34,4.34,0,0,0,1-1.73,8.51,8.51,0,0,0,.36-2.64,6.38,6.38,0,0,0-.7-3.3,3.57,3.57,0,0,0-1.72-1.55,7.21,7.21,0,0,0-2.34-.28h-2.88Z"/><path class="cls-6" d="M1318.78,228.54v-1.62h8.87v1.31a18.52,18.52,0,0,0-2.59,3.7,22.63,22.63,0,0,0-2,4.74,17.34,17.34,0,0,0-.64,3.77h-1.73a17.12,17.12,0,0,1,.63-3.91,20.78,20.78,0,0,1,1.75-4.41,18.58,18.58,0,0,1,2.41-3.58Z"/><path class="cls-6" d="M1386.81,240.21V226.8h4.62a11.05,11.05,0,0,1,2.38.19,4.6,4.6,0,0,1,2,1,5.44,5.44,0,0,1,1.59,2.29,9,9,0,0,1,.52,3.19,9.68,9.68,0,0,1-.35,2.71,6.55,6.55,0,0,1-.92,2,4.87,4.87,0,0,1-1.22,1.22,5.07,5.07,0,0,1-1.6.67,9.26,9.26,0,0,1-2.15.23Zm1.77-1.58h2.86a6.83,6.83,0,0,0,2.09-.25,3,3,0,0,0,1.2-.69,4.26,4.26,0,0,0,1-1.7,8.15,8.15,0,0,0,.35-2.59,6.23,6.23,0,0,0-.69-3.23,3.45,3.45,0,0,0-1.68-1.51,6.68,6.68,0,0,0-2.29-.28h-2.82Z"/><path class="cls-6" d="M1408.21,230.08l-1.64.13a3.09,3.09,0,0,0-.62-1.41,2.16,2.16,0,0,0-1.64-.7,2.3,2.3,0,0,0-1.39.44,3.84,3.84,0,0,0-1.22,1.65,8.61,8.61,0,0,0-.47,3.11,3.75,3.75,0,0,1,1.46-1.35,3.92,3.92,0,0,1,1.8-.44,3.75,3.75,0,0,1,2.8,1.21,4.38,4.38,0,0,1,1.16,3.14,5,5,0,0,1-.55,2.34,3.89,3.89,0,0,1-1.49,1.66,4,4,0,0,1-2.16.58,4.26,4.26,0,0,1-3.36-1.51c-.86-1-1.3-2.68-1.3-5,0-2.6.48-4.48,1.44-5.66a4.14,4.14,0,0,1,3.38-1.53,3.8,3.8,0,0,1,2.59.88A3.76,3.76,0,0,1,1408.21,230.08Zm-6.72,5.79a3.79,3.79,0,0,0,.36,1.62,2.7,2.7,0,0,0,1,1.19,2.54,2.54,0,0,0,1.36.41,2.34,2.34,0,0,0,1.8-.85,3.3,3.3,0,0,0,.75-2.28,3.06,3.06,0,0,0-.75-2.19,2.39,2.39,0,0,0-1.86-.8,2.49,2.49,0,0,0-1.89.8A2.87,2.87,0,0,0,1401.49,235.87Z"/><path class="cls-6" d="M1509.5,240.12V226.66h4.64a11.16,11.16,0,0,1,2.39.19,4.55,4.55,0,0,1,2,1,5.41,5.41,0,0,1,1.59,2.3,9.06,9.06,0,0,1,.53,3.2,9.38,9.38,0,0,1-.36,2.72,6.49,6.49,0,0,1-.92,2,5,5,0,0,1-1.22,1.22,5.13,5.13,0,0,1-1.61.67,8.83,8.83,0,0,1-2.16.23Zm1.78-1.59h2.88a7.26,7.26,0,0,0,2.09-.24,3,3,0,0,0,1.2-.7,4.18,4.18,0,0,0,1-1.71,8.15,8.15,0,0,0,.35-2.59,6.31,6.31,0,0,0-.69-3.25,3.52,3.52,0,0,0-1.68-1.52,7.14,7.14,0,0,0-2.31-.27h-2.83Z"/><path class="cls-6" d="M1522.41,236.6l1.74-.15a3.09,3.09,0,0,0,.89,1.9,2.43,2.43,0,0,0,1.7.64,2.65,2.65,0,0,0,2-.9,3.39,3.39,0,0,0,.82-2.39,3.07,3.07,0,0,0-.79-2.23,2.78,2.78,0,0,0-2.08-.81,2.9,2.9,0,0,0-1.44.36,2.7,2.7,0,0,0-1,.94l-1.55-.2,1.3-6.92h6.7v1.58h-5.38l-.72,3.62a4.39,4.39,0,0,1,2.54-.84,4,4,0,0,1,3,1.22,4.29,4.29,0,0,1,1.21,3.14,4.91,4.91,0,0,1-1.07,3.16,4.25,4.25,0,0,1-3.53,1.63,4.32,4.32,0,0,1-3-1A4,4,0,0,1,1522.41,236.6Z"/><path class="cls-6" d="M1672.08,240.11v-13.4h4.62a10.87,10.87,0,0,1,2.38.2,4.39,4.39,0,0,1,2,1,5.38,5.38,0,0,1,1.59,2.29,9,9,0,0,1,.52,3.18,9.68,9.68,0,0,1-.35,2.71,6.8,6.8,0,0,1-.92,1.95,4.82,4.82,0,0,1-1.22,1.21,5,5,0,0,1-1.6.68,9.24,9.24,0,0,1-2.15.22Zm1.78-1.58h2.86a7.18,7.18,0,0,0,2.08-.24,3,3,0,0,0,1.2-.7,4.15,4.15,0,0,0,1-1.69,8.15,8.15,0,0,0,.35-2.59,6.23,6.23,0,0,0-.69-3.23,3.52,3.52,0,0,0-1.67-1.51,7.07,7.07,0,0,0-2.3-.27h-2.81Z"/><path class="cls-6" d="M1684.94,236.58l1.65-.22a3.64,3.64,0,0,0,1,2,2.41,2.41,0,0,0,1.66.62,2.66,2.66,0,0,0,2-.8,2.7,2.7,0,0,0,.8-2,2.51,2.51,0,0,0-.74-1.87,2.55,2.55,0,0,0-1.88-.73,4.77,4.77,0,0,0-1.16.18l.18-1.44h.27a3.42,3.42,0,0,0,1.89-.54,1.88,1.88,0,0,0,.84-1.69,2,2,0,0,0-.61-1.5,2.17,2.17,0,0,0-1.58-.6,2.2,2.2,0,0,0-1.6.61,3,3,0,0,0-.83,1.8l-1.64-.29a4.22,4.22,0,0,1,1.37-2.56,3.94,3.94,0,0,1,2.66-.91,4.45,4.45,0,0,1,2,.47,3.36,3.36,0,0,1,1.9,3,2.81,2.81,0,0,1-.46,1.58,3.24,3.24,0,0,1-1.39,1.14,3.1,3.1,0,0,1,1.85,1.13,3.48,3.48,0,0,1,.66,2.17,4,4,0,0,1-1.28,3,4.47,4.47,0,0,1-3.24,1.22,4.23,4.23,0,0,1-2.93-1A4.1,4.1,0,0,1,1684.94,236.58Z"/><path class="cls-6" d="M1590.84,240.35V226.66h4.72a10.92,10.92,0,0,1,2.44.2,4.53,4.53,0,0,1,2,1,5.43,5.43,0,0,1,1.62,2.34,9.11,9.11,0,0,1,.54,3.25,9.74,9.74,0,0,1-.36,2.77,7,7,0,0,1-.94,2,4.86,4.86,0,0,1-1.24,1.24,5.33,5.33,0,0,1-1.64.69,9.65,9.65,0,0,1-2.2.23Zm1.81-1.61h2.93a7,7,0,0,0,2.12-.26,3,3,0,0,0,1.23-.71,4.27,4.27,0,0,0,1-1.73,8.42,8.42,0,0,0,.36-2.64,6.38,6.38,0,0,0-.7-3.3,3.5,3.5,0,0,0-1.72-1.54,6.88,6.88,0,0,0-2.34-.29h-2.88Z"/><path class="cls-6" d="M1609.36,240.35v-3.28h-5.94v-1.54l6.25-8.87H1611v8.87h1.85v1.54H1611v3.28Zm0-4.82v-6.17l-4.28,6.17Z"/><path class="cls-6" d="M1877.45,240.38V226.74h4.7a11.28,11.28,0,0,1,2.42.2,4.62,4.62,0,0,1,2,1,5.64,5.64,0,0,1,1.62,2.33,9.35,9.35,0,0,1,.53,3.25,9.6,9.6,0,0,1-.36,2.75,6.69,6.69,0,0,1-.93,2,5,5,0,0,1-1.24,1.23,5.27,5.27,0,0,1-1.63.69,9.62,9.62,0,0,1-2.19.23Zm1.8-1.61h2.91a7,7,0,0,0,2.12-.25,3,3,0,0,0,1.22-.71,4.3,4.3,0,0,0,1-1.72,8.44,8.44,0,0,0,.36-2.63,6.34,6.34,0,0,0-.7-3.29,3.53,3.53,0,0,0-1.71-1.54,6.91,6.91,0,0,0-2.33-.28h-2.87Z"/><path class="cls-6" d="M1896.83,240.38h-1.67V229.71a8.4,8.4,0,0,1-1.59,1.15,10.52,10.52,0,0,1-1.76.87v-1.62a9.94,9.94,0,0,0,2.46-1.6,6.27,6.27,0,0,0,1.48-1.82h1.08Z"/><path class="cls-6" d="M1794.75,240.35V226.71h4.7a11.39,11.39,0,0,1,2.43.2,4.64,4.64,0,0,1,2,1,5.4,5.4,0,0,1,1.61,2.33,9,9,0,0,1,.54,3.24,9.24,9.24,0,0,1-.37,2.75,6.69,6.69,0,0,1-.93,2,5,5,0,0,1-1.24,1.24,5.16,5.16,0,0,1-1.63.68,9.5,9.5,0,0,1-2.19.23Zm1.81-1.61h2.91a7,7,0,0,0,2.12-.25,3,3,0,0,0,1.22-.71,4.23,4.23,0,0,0,1-1.72,8.4,8.4,0,0,0,.36-2.63,6.33,6.33,0,0,0-.71-3.29,3.51,3.51,0,0,0-1.7-1.54,7.25,7.25,0,0,0-2.34-.28h-2.86Z"/><path class="cls-6" d="M1816.63,238.74v1.61h-9a3,3,0,0,1,.19-1.16,6.07,6.07,0,0,1,1.11-1.81,16.17,16.17,0,0,1,2.19-2.07,18.74,18.74,0,0,0,3-2.89,3.46,3.46,0,0,0,.78-2,2.2,2.2,0,0,0-.71-1.68,2.54,2.54,0,0,0-1.85-.69,2.63,2.63,0,0,0-1.94.73,2.72,2.72,0,0,0-.73,2l-1.73-.18a4.27,4.27,0,0,1,1.33-2.93,4.57,4.57,0,0,1,3.1-1,4.3,4.3,0,0,1,3.11,1.09,3.56,3.56,0,0,1,1.14,2.69,4.11,4.11,0,0,1-.33,1.61,6.27,6.27,0,0,1-1.11,1.67,28.54,28.54,0,0,1-2.58,2.4,25.82,25.82,0,0,0-1.94,1.72,6.2,6.2,0,0,0-.71.9Z"/><path class="cls-6" d="M1957.37,240V226.62H1962a11.85,11.85,0,0,1,2.39.19,4.66,4.66,0,0,1,2,1,5.55,5.55,0,0,1,1.58,2.3,9,9,0,0,1,.53,3.18,9.31,9.31,0,0,1-.36,2.71,6.55,6.55,0,0,1-.91,1.95,4.71,4.71,0,0,1-1.22,1.22,5,5,0,0,1-1.6.67,8.83,8.83,0,0,1-2.16.23Zm1.78-1.58H1962a6.76,6.76,0,0,0,2.08-.25,2.92,2.92,0,0,0,1.2-.69,4.32,4.32,0,0,0,1-1.7,8.43,8.43,0,0,0,.35-2.58,6.27,6.27,0,0,0-.69-3.24,3.5,3.5,0,0,0-1.68-1.51,7,7,0,0,0-2.3-.28h-2.81Z"/><path class="cls-6" d="M1970.23,233.42a12.47,12.47,0,0,1,.49-3.83,4.77,4.77,0,0,1,1.46-2.24,3.73,3.73,0,0,1,2.43-.78,4,4,0,0,1,1.89.43,3.59,3.59,0,0,1,1.34,1.26,6.74,6.74,0,0,1,.84,2,13.31,13.31,0,0,1,.3,3.17,12.12,12.12,0,0,1-.49,3.81,4.73,4.73,0,0,1-1.45,2.24,4.08,4.08,0,0,1-5.48-.6C1970.68,237.75,1970.23,235.94,1970.23,233.42Zm1.7,0c0,2.2.25,3.67.77,4.39a2.2,2.2,0,0,0,3.81,0c.52-.73.78-2.2.78-4.39s-.26-3.68-.78-4.4a2.27,2.27,0,0,0-1.92-1.09,2.1,2.1,0,0,0-1.81,1C1972.21,229.71,1971.93,231.22,1971.93,233.42Z"/><line class="cls-7" x1="1397.2" y1="474.91" x2="1397.2" y2="489.19"/><line class="cls-7" x1="1397.2" y1="499.81" x2="1397.2" y2="514.09"/><line class="cls-7" x1="1397.2" y1="524.39" x2="1397.2" y2="538.67"/><line class="cls-7" x1="1397.2" y1="450" x2="1397.2" y2="464.28"/><line class="cls-7" x1="1316.17" y1="474.91" x2="1316.17" y2="489.19"/><line class="cls-7" x1="1316.17" y1="499.81" x2="1316.17" y2="514.09"/><line class="cls-7" x1="1316.17" y1="524.39" x2="1316.17" y2="538.67"/><line class="cls-7" x1="1316.17" y1="450" x2="1316.17" y2="464.28"/><line class="cls-7" x1="1235.14" y1="474.91" x2="1235.14" y2="489.19"/><line class="cls-7" x1="1235.14" y1="499.81" x2="1235.14" y2="514.09"/><line class="cls-7" x1="1235.14" y1="524.39" x2="1235.14" y2="538.67"/><line class="cls-7" x1="1235.14" y1="450" x2="1235.14" y2="464.28"/><line class="cls-7" x1="1112.35" y1="474.91" x2="1112.35" y2="489.19"/><line class="cls-7" x1="1112.35" y1="499.81" x2="1112.35" y2="514.09"/><line class="cls-7" x1="1112.35" y1="524.39" x2="1112.35" y2="538.67"/><line class="cls-7" x1="1112.35" y1="450" x2="1112.35" y2="464.28"/><line class="cls-7" x1="1031.32" y1="474.91" x2="1031.32" y2="489.19"/><line class="cls-7" x1="1031.32" y1="499.81" x2="1031.32" y2="514.09"/><line class="cls-7" x1="1031.32" y1="524.39" x2="1031.32" y2="538.67"/><line class="cls-7" x1="1031.32" y1="450" x2="1031.32" y2="464.28"/><line class="cls-7" x1="950.29" y1="474.91" x2="950.29" y2="489.19"/><line class="cls-7" x1="950.29" y1="499.81" x2="950.29" y2="514.09"/><line class="cls-7" x1="950.29" y1="524.39" x2="950.29" y2="538.67"/><line class="cls-7" x1="950.29" y1="450" x2="950.29" y2="464.28"/><line class="cls-7" x1="826.66" y1="474.91" x2="826.66" y2="489.19"/><line class="cls-7" x1="826.66" y1="499.81" x2="826.66" y2="514.09"/><line class="cls-7" x1="826.66" y1="524.39" x2="826.66" y2="538.67"/><line class="cls-7" x1="826.66" y1="450" x2="826.66" y2="464.28"/><line class="cls-7" x1="745.63" y1="474.91" x2="745.63" y2="489.19"/><line class="cls-7" x1="745.63" y1="499.81" x2="745.63" y2="514.09"/><line class="cls-7" x1="745.63" y1="524.39" x2="745.63" y2="538.67"/><line class="cls-7" x1="745.63" y1="450" x2="745.63" y2="464.28"/><line class="cls-7" x1="664.6" y1="474.91" x2="664.6" y2="489.19"/><line class="cls-7" x1="664.6" y1="499.81" x2="664.6" y2="514.09"/><line class="cls-7" x1="664.6" y1="524.39" x2="664.6" y2="538.67"/><line class="cls-7" x1="664.6" y1="450" x2="664.6" y2="464.28"/><line class="cls-7" x1="542.43" y1="474.91" x2="542.43" y2="489.19"/><line class="cls-7" x1="542.43" y1="499.81" x2="542.43" y2="514.09"/><line class="cls-7" x1="542.43" y1="524.39" x2="542.43" y2="538.67"/><line class="cls-7" x1="542.43" y1="450" x2="542.43" y2="464.28"/><line class="cls-7" x1="1967.75" y1="325.12" x2="1967.75" y2="339.39"/><line class="cls-7" x1="1967.75" y1="350.02" x2="1967.75" y2="364.3"/><line class="cls-7" x1="1967.75" y1="300.21" x2="1967.75" y2="314.49"/><line class="cls-7" x1="1886.72" y1="325.12" x2="1886.72" y2="339.39"/><line class="cls-7" x1="1886.72" y1="350.02" x2="1886.72" y2="364.3"/><line class="cls-7" x1="1886.72" y1="300.21" x2="1886.72" y2="314.49"/><line class="cls-7" x1="1805.69" y1="325.12" x2="1805.69" y2="339.39"/><line class="cls-7" x1="1805.69" y1="350.02" x2="1805.69" y2="364.3"/><line class="cls-7" x1="1805.69" y1="300.21" x2="1805.69" y2="314.49"/><line class="cls-7" x1="1968.17" y1="473.19" x2="1968.17" y2="487.47"/><line class="cls-7" x1="1968.17" y1="498.1" x2="1968.17" y2="512.38"/><line class="cls-7" x1="1968.17" y1="522.67" x2="1968.17" y2="536.95"/><line class="cls-7" x1="1968.17" y1="448.29" x2="1968.17" y2="462.56"/><line class="cls-7" x1="1887.14" y1="473.19" x2="1887.14" y2="487.47"/><line class="cls-7" x1="1887.14" y1="498.1" x2="1887.14" y2="512.38"/><line class="cls-7" x1="1887.14" y1="522.67" x2="1887.14" y2="536.95"/><line class="cls-7" x1="1887.14" y1="448.29" x2="1887.14" y2="462.56"/><line class="cls-7" x1="1806.11" y1="473.19" x2="1806.11" y2="487.47"/><line class="cls-7" x1="1806.11" y1="498.1" x2="1806.11" y2="512.38"/><line class="cls-7" x1="1806.11" y1="522.67" x2="1806.11" y2="536.95"/><line class="cls-7" x1="1806.11" y1="448.29" x2="1806.11" y2="462.56"/><line class="cls-7" x1="1683.19" y1="474.91" x2="1683.19" y2="489.19"/><line class="cls-7" x1="1683.19" y1="499.81" x2="1683.19" y2="514.09"/><line class="cls-7" x1="1683.19" y1="524.39" x2="1683.19" y2="538.67"/><line class="cls-7" x1="1683.19" y1="450" x2="1683.19" y2="464.28"/><line class="cls-7" x1="1602.16" y1="474.91" x2="1602.16" y2="489.19"/><line class="cls-7" x1="1602.16" y1="499.81" x2="1602.16" y2="514.09"/><line class="cls-7" x1="1602.16" y1="524.39" x2="1602.16" y2="538.67"/><line class="cls-7" x1="1602.16" y1="450" x2="1602.16" y2="464.28"/><line class="cls-7" x1="1521.13" y1="474.91" x2="1521.13" y2="489.19"/><line class="cls-7" x1="1521.13" y1="499.81" x2="1521.13" y2="514.09"/><line class="cls-7" x1="1521.13" y1="524.39" x2="1521.13" y2="538.67"/><line class="cls-7" x1="1521.13" y1="450" x2="1521.13" y2="464.28"/><path class="cls-6" d="M710.7,305.63l1.66-.15a3.61,3.61,0,0,0,.54,1.63,2.94,2.94,0,0,0,1.34,1,5,5,0,0,0,2,.4,4.83,4.83,0,0,0,1.77-.3,2.44,2.44,0,0,0,1.14-.82,1.9,1.9,0,0,0,.38-1.13,1.73,1.73,0,0,0-.37-1.09,2.62,2.62,0,0,0-1.19-.78,21.46,21.46,0,0,0-2.36-.65,11.91,11.91,0,0,1-2.55-.83,3.61,3.61,0,0,1-1.42-1.23,3,3,0,0,1-.46-1.65,3.34,3.34,0,0,1,.57-1.87,3.51,3.51,0,0,1,1.66-1.32,6.16,6.16,0,0,1,2.43-.46,6.59,6.59,0,0,1,2.6.48,3.76,3.76,0,0,1,1.73,1.39,4.06,4.06,0,0,1,.65,2.09l-1.68.13a2.72,2.72,0,0,0-.92-1.9,3.55,3.55,0,0,0-2.31-.64,3.66,3.66,0,0,0-2.31.58,1.75,1.75,0,0,0-.73,1.41,1.52,1.52,0,0,0,.51,1.17,6.94,6.94,0,0,0,2.65.94,18.34,18.34,0,0,1,2.93.85,3.88,3.88,0,0,1,1.7,1.35,3.25,3.25,0,0,1,.55,1.88,3.6,3.6,0,0,1-.6,2,3.94,3.94,0,0,1-1.74,1.46,6.18,6.18,0,0,1-2.55.52,7.58,7.58,0,0,1-3-.53,4.23,4.23,0,0,1-1.91-1.57A4.54,4.54,0,0,1,710.7,305.63Z"/><path class="cls-6" d="M727,309.88V298.2h-4.37v-1.56h10.5v1.56h-4.38v11.68Z"/><path class="cls-6" d="M732.11,309.88l5.09-13.24h1.88l5.42,13.24h-2l-1.55-4h-5.54l-1.45,4Zm3.82-5.44h4.49L739,300.78c-.42-1.12-.74-2-.94-2.75a16.81,16.81,0,0,1-.72,2.53Z"/><path class="cls-6" d="M747.9,309.88V298.2h-4.36v-1.56H754v1.56h-4.38v11.68Z"/><path class="cls-6" d="M764.52,296.64h1.75v7.65a9.07,9.07,0,0,1-.45,3.17,3.9,3.9,0,0,1-1.63,1.91,5.81,5.81,0,0,1-3.1.74,6.44,6.44,0,0,1-3-.64,3.69,3.69,0,0,1-1.69-1.86,8.82,8.82,0,0,1-.5-3.32v-7.65h1.75v7.64a7.51,7.51,0,0,0,.32,2.54,2.38,2.38,0,0,0,1.1,1.26,3.78,3.78,0,0,0,1.91.45,3.68,3.68,0,0,0,2.76-.88,5.09,5.09,0,0,0,.82-3.37Z"/><path class="cls-6" d="M768.59,305.63l1.65-.15a3.61,3.61,0,0,0,.55,1.63,3,3,0,0,0,1.33,1,5.12,5.12,0,0,0,2,.4,4.9,4.9,0,0,0,1.77-.3,2.44,2.44,0,0,0,1.14-.82,1.89,1.89,0,0,0,.37-1.13,1.72,1.72,0,0,0-.36-1.09,2.68,2.68,0,0,0-1.19-.78,22.18,22.18,0,0,0-2.36-.65,11.71,11.71,0,0,1-2.55-.83,3.54,3.54,0,0,1-1.42-1.23,3,3,0,0,1-.46-1.65,3.34,3.34,0,0,1,.57-1.87,3.51,3.51,0,0,1,1.66-1.32,6.16,6.16,0,0,1,2.43-.46,6.5,6.5,0,0,1,2.59.48,3.71,3.71,0,0,1,1.73,1.39,4,4,0,0,1,.65,2.09l-1.68.13a2.71,2.71,0,0,0-.91-1.9,3.55,3.55,0,0,0-2.31-.64,3.71,3.71,0,0,0-2.32.58,1.76,1.76,0,0,0-.72,1.41,1.52,1.52,0,0,0,.51,1.17,6.94,6.94,0,0,0,2.64.94,18,18,0,0,1,2.93.85,4,4,0,0,1,1.71,1.35,3.25,3.25,0,0,1,.55,1.88,3.6,3.6,0,0,1-.6,2,4,4,0,0,1-1.74,1.46,6.18,6.18,0,0,1-2.55.52,7.63,7.63,0,0,1-3-.53,4.2,4.2,0,0,1-1.9-1.57A4.54,4.54,0,0,1,768.59,305.63Z"/><path class="cls-6" d="M338.86,556.54l1.65-.15a3.61,3.61,0,0,0,.55,1.63,2.91,2.91,0,0,0,1.33,1,5.51,5.51,0,0,0,3.8.1,2.51,2.51,0,0,0,1.14-.82,1.93,1.93,0,0,0,.38-1.14,1.71,1.71,0,0,0-.36-1.08,2.77,2.77,0,0,0-1.19-.79c-.36-.13-1.15-.35-2.36-.64a11.85,11.85,0,0,1-2.56-.83,3.58,3.58,0,0,1-1.41-1.23,3,3,0,0,1-.47-1.65,3.34,3.34,0,0,1,.57-1.87,3.64,3.64,0,0,1,1.66-1.33,6.34,6.34,0,0,1,2.43-.45,6.56,6.56,0,0,1,2.6.48,3.71,3.71,0,0,1,1.73,1.39,4.06,4.06,0,0,1,.65,2.09l-1.68.12a2.68,2.68,0,0,0-.92-1.89,3.54,3.54,0,0,0-2.3-.64,3.7,3.7,0,0,0-2.32.58,1.74,1.74,0,0,0-.73,1.4,1.5,1.5,0,0,0,.52,1.18,6.87,6.87,0,0,0,2.64.94,17.32,17.32,0,0,1,2.93.85,4,4,0,0,1,1.71,1.35,3.32,3.32,0,0,1,.55,1.88,3.55,3.55,0,0,1-.61,2,4,4,0,0,1-1.74,1.46,6.11,6.11,0,0,1-2.55.52,7.58,7.58,0,0,1-3-.53,4.28,4.28,0,0,1-1.91-1.57A4.47,4.47,0,0,1,338.86,556.54Z"/><path class="cls-6" d="M351.83,560.79V547.55h9.57v1.56h-7.82v4.06h7.33v1.55h-7.33v4.51h8.13v1.56Z"/><path class="cls-6" d="M364.11,560.79V547.55h1.8l6.95,10.39V547.55h1.68v13.24h-1.79l-7-10.41v10.41Z"/><path class="cls-6" d="M376.89,556.54l1.66-.15a3.61,3.61,0,0,0,.54,1.63,3,3,0,0,0,1.33,1,5.12,5.12,0,0,0,2,.39,5.05,5.05,0,0,0,1.77-.29,2.51,2.51,0,0,0,1.14-.82,1.92,1.92,0,0,0,.37-1.14,1.71,1.71,0,0,0-.36-1.08,2.77,2.77,0,0,0-1.19-.79c-.35-.13-1.14-.35-2.36-.64a11.91,11.91,0,0,1-2.55-.83,3.61,3.61,0,0,1-1.42-1.23,3,3,0,0,1-.46-1.65,3.34,3.34,0,0,1,.57-1.87,3.59,3.59,0,0,1,1.66-1.33,6.34,6.34,0,0,1,2.43-.45,6.59,6.59,0,0,1,2.6.48,3.76,3.76,0,0,1,1.73,1.39,4.06,4.06,0,0,1,.65,2.09l-1.68.12a2.72,2.72,0,0,0-.92-1.89,3.55,3.55,0,0,0-2.31-.64,3.71,3.71,0,0,0-2.32.58,1.76,1.76,0,0,0-.72,1.4,1.52,1.52,0,0,0,.51,1.18,6.94,6.94,0,0,0,2.64.94,17.22,17.22,0,0,1,2.94.85,3.88,3.88,0,0,1,1.7,1.35,3.25,3.25,0,0,1,.55,1.88,3.62,3.62,0,0,1-.6,2,4.06,4.06,0,0,1-1.74,1.46,6.18,6.18,0,0,1-2.55.52,7.58,7.58,0,0,1-3-.53,4.23,4.23,0,0,1-1.91-1.57A4.57,4.57,0,0,1,376.89,556.54Z"/><path class="cls-6" d="M389.86,560.79V547.55h9.58v1.56h-7.82v4.06h7.32v1.55h-7.32v4.51h8.12v1.56Z"/><path class="cls-6" d="M406.71,556.54l1.65-.15a3.61,3.61,0,0,0,.55,1.63,2.91,2.91,0,0,0,1.33,1,5.51,5.51,0,0,0,3.8.1,2.55,2.55,0,0,0,1.15-.82,1.92,1.92,0,0,0,.37-1.14,1.71,1.71,0,0,0-.36-1.08,2.77,2.77,0,0,0-1.19-.79c-.36-.13-1.14-.35-2.36-.64a11.85,11.85,0,0,1-2.56-.83,3.58,3.58,0,0,1-1.41-1.23,3,3,0,0,1-.47-1.65,3.34,3.34,0,0,1,.57-1.87,3.62,3.62,0,0,1,1.67-1.33,6.25,6.25,0,0,1,2.42-.45,6.56,6.56,0,0,1,2.6.48,3.71,3.71,0,0,1,1.73,1.39,4.06,4.06,0,0,1,.65,2.09l-1.68.12a2.68,2.68,0,0,0-.92-1.89,3.54,3.54,0,0,0-2.3-.64,3.71,3.71,0,0,0-2.32.58,1.77,1.77,0,0,0-.73,1.4,1.5,1.5,0,0,0,.52,1.18,6.94,6.94,0,0,0,2.64.94,17.32,17.32,0,0,1,2.93.85,4,4,0,0,1,1.71,1.35,3.25,3.25,0,0,1,.55,1.88,3.55,3.55,0,0,1-.61,2,4,4,0,0,1-1.73,1.46,6.19,6.19,0,0,1-2.56.52,7.62,7.62,0,0,1-3-.53,4.2,4.2,0,0,1-1.9-1.57A4.39,4.39,0,0,1,406.71,556.54Z"/><path class="cls-6" d="M422,560.79l-3.52-13.24h1.8l2,8.68c.22.91.41,1.81.56,2.71.34-1.42.54-2.23.6-2.45l2.52-8.94H428l1.9,6.7a34.46,34.46,0,0,1,1,4.69q.25-1.26.66-2.88l2.08-8.51h1.76l-3.63,13.24h-1.69l-2.79-10.09c-.24-.84-.38-1.36-.42-1.55-.14.61-.27,1.12-.39,1.55l-2.81,10.09Z"/><path class="cls-6" d="M436.33,560.79v-1.85h1.86v1.85Z"/><polyline class="cls-7" points="443.52 554.17 483.82 554.17 528.92 610.28 1256.26 610.28 1256.26 585.53"/><line class="cls-7" x1="1221.85" y1="617.56" x2="1411.34" y2="617.56"/><line class="cls-8" x1="936.57" y1="617.56" x2="1126.06" y2="617.56"/><line class="cls-8" x1="650.68" y1="617.56" x2="840.16" y2="617.56"/><line class="cls-8" x1="528.5" y1="617.56" x2="555.51" y2="617.56"/><polyline class="cls-8" points="1791.98 617.56 1981.46 617.56 2003.89 602.67 2072.04 602.67"/><line class="cls-8" x1="1507.03" y1="610.28" x2="1696.52" y2="610.28"/><line class="cls-8" x1="1507.03" y1="617.56" x2="1696.52" y2="617.56"/><line class="cls-7" x1="1302.67" y1="610.28" x2="1411.34" y2="610.28"/><polyline class="cls-8" points="1791.98 610.28 1981.46 610.28 2003.89 595.4 2072.04 595.4"/><path class="cls-6" d="M2005.39,590.5V577H2010a11.2,11.2,0,0,1,2.4.19,4.6,4.6,0,0,1,2,1,5.48,5.48,0,0,1,1.59,2.3,9.06,9.06,0,0,1,.53,3.2,9.34,9.34,0,0,1-.36,2.72,6.38,6.38,0,0,1-.92,2,4.92,4.92,0,0,1-1.22,1.23,5.24,5.24,0,0,1-1.61.67,8.86,8.86,0,0,1-2.17.23Zm1.78-1.59h2.88a6.79,6.79,0,0,0,2.09-.25,2.9,2.9,0,0,0,1.21-.69,4.44,4.44,0,0,0,1-1.71,8.52,8.52,0,0,0,.35-2.6,6.27,6.27,0,0,0-.69-3.24,3.48,3.48,0,0,0-1.69-1.52,6.81,6.81,0,0,0-2.31-.28h-2.83Z"/><path class="cls-6" d="M2025.14,589.3a6,6,0,0,1-1.77,1.1,5,5,0,0,1-1.82.32,3.58,3.58,0,0,1-2.48-.78,2.76,2.76,0,0,1,.32-4.27,3.91,3.91,0,0,1,1.19-.54,11.39,11.39,0,0,1,1.47-.25,15.13,15.13,0,0,0,3-.57c0-.23,0-.37,0-.43a1.81,1.81,0,0,0-.47-1.43,2.78,2.78,0,0,0-1.88-.56,2.92,2.92,0,0,0-1.72.41,2.53,2.53,0,0,0-.83,1.45l-1.61-.22a3.87,3.87,0,0,1,.72-1.68,3.2,3.2,0,0,1,1.46-1,6.55,6.55,0,0,1,2.22-.35,5.76,5.76,0,0,1,2,.3,2.3,2.3,0,0,1,1.66,1.86,8.87,8.87,0,0,1,.08,1.53v2.2a23.21,23.21,0,0,0,.11,2.92,3.57,3.57,0,0,0,.42,1.17h-1.73A3.52,3.52,0,0,1,2025.14,589.3Zm-.14-3.7a11.72,11.72,0,0,1-2.7.63,6.45,6.45,0,0,0-1.44.33,1.39,1.39,0,0,0-.65.54,1.33,1.33,0,0,0-.23.78,1.41,1.41,0,0,0,.5,1.11,2.16,2.16,0,0,0,1.46.44,3.37,3.37,0,0,0,1.7-.42,2.6,2.6,0,0,0,1.1-1.15,4.11,4.11,0,0,0,.26-1.65Z"/><path class="cls-6" d="M2032.85,589l.24,1.46a6,6,0,0,1-1.25.15,2.85,2.85,0,0,1-1.4-.28,1.63,1.63,0,0,1-.7-.75,6.11,6.11,0,0,1-.2-2V582h-1.21v-1.29h1.21v-2.41l1.65-1v3.41h1.66V582h-1.66v5.71a3.3,3.3,0,0,0,.08.91.74.74,0,0,0,.29.32,1.08,1.08,0,0,0,.56.12A4.51,4.51,0,0,0,2032.85,589Z"/><path class="cls-6" d="M2040.84,589.3a6.26,6.26,0,0,1-1.77,1.1,5,5,0,0,1-1.83.32,3.57,3.57,0,0,1-2.47-.78,2.63,2.63,0,0,1-.86-2,2.68,2.68,0,0,1,1.18-2.26,3.91,3.91,0,0,1,1.19-.54,10.79,10.79,0,0,1,1.47-.25,15.29,15.29,0,0,0,3-.57c0-.23,0-.37,0-.43a1.85,1.85,0,0,0-.47-1.43,2.78,2.78,0,0,0-1.88-.56,3,3,0,0,0-1.73.41,2.52,2.52,0,0,0-.82,1.45l-1.62-.22a4,4,0,0,1,.73-1.68,3.14,3.14,0,0,1,1.46-1,6.49,6.49,0,0,1,2.21-.35,5.82,5.82,0,0,1,2,.3,2.35,2.35,0,0,1,1.66,1.86,10.07,10.07,0,0,1,.08,1.53v2.2a23.21,23.21,0,0,0,.11,2.92,3.57,3.57,0,0,0,.42,1.17h-1.73A3.52,3.52,0,0,1,2040.84,589.3Zm-.14-3.7a11.72,11.72,0,0,1-2.7.63,6.72,6.72,0,0,0-1.45.33,1.42,1.42,0,0,0-.88,1.32,1.45,1.45,0,0,0,.5,1.11,2.21,2.21,0,0,0,1.47.44,3.4,3.4,0,0,0,1.7-.42,2.57,2.57,0,0,0,1.09-1.15,3.91,3.91,0,0,0,.27-1.65Z"/><path class="cls-6" d="M2003.7,620.34l5.17-13.47h1.92l5.51,13.47h-2l-1.57-4.08h-5.63l-1.48,4.08Zm3.88-5.53h4.57l-1.41-3.73c-.42-1.14-.74-2.07-1-2.8a17.12,17.12,0,0,1-.73,2.58Z"/><path class="cls-6" d="M2023.85,620.34v-1.23a3,3,0,0,1-2.73,1.45,3.84,3.84,0,0,1-2.15-.64,4.26,4.26,0,0,1-1.51-1.8,6.18,6.18,0,0,1-.54-2.65,6.84,6.84,0,0,1,.49-2.65,3.8,3.8,0,0,1,1.46-1.82,3.85,3.85,0,0,1,2.18-.64,3.37,3.37,0,0,1,1.57.37,3.3,3.3,0,0,1,1.12,1v-4.83h1.64v13.47Zm-5.23-4.87a4.2,4.2,0,0,0,.79,2.8,2.39,2.39,0,0,0,1.87.93,2.34,2.34,0,0,0,1.84-.88,4.15,4.15,0,0,0,.76-2.71,4.53,4.53,0,0,0-.78-2.94,2.34,2.34,0,0,0-1.9-.94,2.29,2.29,0,0,0-1.84.9A4.47,4.47,0,0,0,2018.62,615.47Z"/><path class="cls-6" d="M2034.32,620.34v-1.23a3,3,0,0,1-2.73,1.45,3.82,3.82,0,0,1-2.15-.64,4.28,4.28,0,0,1-1.52-1.8,6.33,6.33,0,0,1-.53-2.65,7,7,0,0,1,.48-2.65,3.88,3.88,0,0,1,1.47-1.82,3.81,3.81,0,0,1,2.17-.64,3.28,3.28,0,0,1,2.7,1.34v-4.83h1.64v13.47Zm-5.23-4.87a4.2,4.2,0,0,0,.79,2.8,2.37,2.37,0,0,0,1.86.93,2.35,2.35,0,0,0,1.85-.88,4.15,4.15,0,0,0,.75-2.71,4.54,4.54,0,0,0-.77-2.94,2.36,2.36,0,0,0-1.9-.94,2.28,2.28,0,0,0-1.84.9A4.41,4.41,0,0,0,2029.09,615.47Z"/><path class="cls-6" d="M2038.43,620.34v-9.76h1.49v1.48a4.08,4.08,0,0,1,1-1.37,1.88,1.88,0,0,1,1.07-.33,3.3,3.3,0,0,1,1.7.53l-.57,1.54a2.38,2.38,0,0,0-1.22-.36,1.56,1.56,0,0,0-1,.33,1.79,1.79,0,0,0-.62.9,6.57,6.57,0,0,0-.27,1.93v5.11Z"/><path class="cls-6" d="M2051.4,617.2l1.71.21a4.15,4.15,0,0,1-1.5,2.32,5.07,5.07,0,0,1-6.19-.49,5.18,5.18,0,0,1-1.25-3.7,5.37,5.37,0,0,1,1.27-3.82,4.27,4.27,0,0,1,3.29-1.36,4.18,4.18,0,0,1,3.19,1.33,5.29,5.29,0,0,1,1.24,3.75v.44h-7.28a3.72,3.72,0,0,0,.91,2.47,2.69,2.69,0,0,0,2,.85,2.53,2.53,0,0,0,1.55-.48A3.09,3.09,0,0,0,2051.4,617.2Zm-5.43-2.68h5.45a3.21,3.21,0,0,0-.63-1.84,2.52,2.52,0,0,0-2.05-1,2.65,2.65,0,0,0-1.91.76A3,3,0,0,0,2046,614.52Z"/><path class="cls-6" d="M2054.53,617.43l1.63-.26a2.28,2.28,0,0,0,.77,1.51,2.66,2.66,0,0,0,1.76.52,2.58,2.58,0,0,0,1.69-.46,1.38,1.38,0,0,0,.55-1.09,1,1,0,0,0-.49-.88,6.63,6.63,0,0,0-1.69-.56,16.17,16.17,0,0,1-2.52-.8,2.4,2.4,0,0,1-1.43-2.24,2.55,2.55,0,0,1,.3-1.21,2.75,2.75,0,0,1,.81-.92,3.43,3.43,0,0,1,1.05-.48,5.15,5.15,0,0,1,1.43-.2,5.67,5.67,0,0,1,2,.33,2.68,2.68,0,0,1,1.28.9,3.36,3.36,0,0,1,.57,1.51l-1.61.22a1.84,1.84,0,0,0-.64-1.18,2.37,2.37,0,0,0-1.5-.42,2.68,2.68,0,0,0-1.62.38,1.08,1.08,0,0,0-.49.88,1,1,0,0,0,.2.58,1.51,1.51,0,0,0,.64.44c.16.06.65.2,1.46.42a22.09,22.09,0,0,1,2.45.77,2.55,2.55,0,0,1,1.09.87,2.44,2.44,0,0,1,.39,1.41,2.78,2.78,0,0,1-.48,1.56,3.08,3.08,0,0,1-1.39,1.13,5,5,0,0,1-2.06.4,4.56,4.56,0,0,1-2.9-.79A3.65,3.65,0,0,1,2054.53,617.43Z"/><path class="cls-6" d="M2063.94,617.43l1.63-.26a2.28,2.28,0,0,0,.77,1.51,2.68,2.68,0,0,0,1.76.52,2.58,2.58,0,0,0,1.69-.46,1.38,1.38,0,0,0,.55-1.09,1,1,0,0,0-.49-.88,6.63,6.63,0,0,0-1.69-.56,16.17,16.17,0,0,1-2.52-.8,2.4,2.4,0,0,1-1.43-2.24,2.55,2.55,0,0,1,.3-1.21,2.75,2.75,0,0,1,.81-.92,3.39,3.39,0,0,1,1.06-.48,5,5,0,0,1,1.42-.2,5.67,5.67,0,0,1,2,.33,2.68,2.68,0,0,1,1.28.9,3.36,3.36,0,0,1,.57,1.51l-1.61.22a1.84,1.84,0,0,0-.64-1.18,2.35,2.35,0,0,0-1.5-.42,2.68,2.68,0,0,0-1.62.38,1.08,1.08,0,0,0-.49.88,1,1,0,0,0,.2.58,1.51,1.51,0,0,0,.64.44c.16.06.65.2,1.46.42a22.09,22.09,0,0,1,2.45.77,2.55,2.55,0,0,1,1.09.87,2.44,2.44,0,0,1,.39,1.41,2.78,2.78,0,0,1-.48,1.56,3.08,3.08,0,0,1-1.39,1.13,5,5,0,0,1-2.06.4,4.56,4.56,0,0,1-2.9-.79A3.65,3.65,0,0,1,2063.94,617.43Z"/><line class="cls-9" x1="990.18" y1="585.53" x2="990.18" y2="610.28"/><line class="cls-7" x1="704.9" y1="585.53" x2="704.9" y2="610.28"/><path class="cls-6" d="M138.93,713.93a7.18,7.18,0,0,1,1.77-5.16,6,6,0,0,1,4.56-1.86,6.39,6.39,0,0,1,3.31.87,5.81,5.81,0,0,1,2.24,2.44,8,8,0,0,1,.77,3.56,7.82,7.82,0,0,1-.81,3.6,5.51,5.51,0,0,1-2.3,2.4,6.56,6.56,0,0,1-3.22.82,6.28,6.28,0,0,1-3.34-.9,5.86,5.86,0,0,1-2.23-2.47A7.52,7.52,0,0,1,138.93,713.93Zm1.8,0a5.31,5.31,0,0,0,1.29,3.77,4.49,4.49,0,0,0,6.48,0,5.61,5.61,0,0,0,1.28-3.94,6.82,6.82,0,0,0-.55-2.82,4.14,4.14,0,0,0-1.6-1.87,4.36,4.36,0,0,0-2.36-.67,4.5,4.5,0,0,0-3.2,1.28C141.18,710.54,140.73,712,140.73,714Z"/><path class="cls-6" d="M153.93,720.37V707.14h8.93v1.56h-7.18v4.1h6.21v1.56h-6.21v6Z"/><path class="cls-6" d="M165.22,720.37V707.14h8.93v1.56H167v4.1h6.21v1.56H167v6Z"/><path class="cls-6" d="M143.88,776.2a7.18,7.18,0,0,1,1.77-5.16,6,6,0,0,1,4.56-1.87,6.37,6.37,0,0,1,3.31.88,5.69,5.69,0,0,1,2.24,2.44,8,8,0,0,1,.77,3.55,7.83,7.83,0,0,1-.81,3.61,5.56,5.56,0,0,1-2.3,2.4,6.54,6.54,0,0,1-3.22.82,6.31,6.31,0,0,1-3.34-.9,5.83,5.83,0,0,1-2.22-2.47A7.39,7.39,0,0,1,143.88,776.2Zm1.8,0A5.27,5.27,0,0,0,147,780a4.48,4.48,0,0,0,6.48,0,5.64,5.64,0,0,0,1.28-4,6.89,6.89,0,0,0-.55-2.82,4.17,4.17,0,0,0-1.6-1.86,4.25,4.25,0,0,0-2.36-.67A4.5,4.5,0,0,0,147,772C146.13,772.81,145.68,774.23,145.68,776.22Z"/><path class="cls-6" d="M158.77,782.64V769.41h1.8l7,10.39V769.41h1.68v13.23h-1.8l-7-10.4v10.4Z"/><path class="cls-6" d="M1165.11,719.92V706.68H1171a7.72,7.72,0,0,1,2.69.36,3,3,0,0,1,1.48,1.26,3.83,3.83,0,0,1,.55,2,3.31,3.31,0,0,1-.92,2.37,4.52,4.52,0,0,1-2.81,1.23,4.35,4.35,0,0,1,1,.66,9,9,0,0,1,1.46,1.76l2.3,3.6h-2.2l-1.76-2.75c-.51-.8-.93-1.4-1.26-1.82a3.88,3.88,0,0,0-.89-.89,2.44,2.44,0,0,0-.8-.35,5.26,5.26,0,0,0-1-.07h-2v5.88Zm1.75-7.39h3.77a5.8,5.8,0,0,0,1.88-.25,2,2,0,0,0,1-.8,2.17,2.17,0,0,0,.35-1.18,2,2,0,0,0-.68-1.55,3.22,3.22,0,0,0-2.16-.6h-4.19Z"/><path class="cls-6" d="M1178.48,719.92V706.68h9.57v1.57h-7.82v4h7.33v1.55h-7.33v4.51h8.13v1.56Z"/><path class="cls-6" d="M1190.18,715.67l1.66-.14a3.78,3.78,0,0,0,.54,1.63,3.08,3.08,0,0,0,1.34,1,5.07,5.07,0,0,0,2,.39,4.83,4.83,0,0,0,1.77-.3,2.44,2.44,0,0,0,1.14-.82,1.88,1.88,0,0,0,.38-1.13,1.72,1.72,0,0,0-.36-1.09,2.72,2.72,0,0,0-1.2-.78c-.35-.14-1.14-.35-2.35-.65a12,12,0,0,1-2.56-.82,3.52,3.52,0,0,1-1.41-1.24,3,3,0,0,1-.47-1.64,3.37,3.37,0,0,1,.57-1.88,3.51,3.51,0,0,1,1.66-1.32,6.34,6.34,0,0,1,2.43-.45,6.78,6.78,0,0,1,2.6.47,3.77,3.77,0,0,1,1.73,1.4,4,4,0,0,1,.65,2.08l-1.68.13a2.72,2.72,0,0,0-.92-1.9,3.61,3.61,0,0,0-2.31-.64,3.73,3.73,0,0,0-2.31.58,1.75,1.75,0,0,0-.73,1.41,1.5,1.5,0,0,0,.51,1.17,6.89,6.89,0,0,0,2.65,1,17.57,17.57,0,0,1,2.93.84,4,4,0,0,1,1.7,1.35,3.29,3.29,0,0,1,.56,1.89,3.66,3.66,0,0,1-.61,2,4,4,0,0,1-1.74,1.45,6,6,0,0,1-2.55.52,7.59,7.59,0,0,1-3-.52,4.25,4.25,0,0,1-1.91-1.58A4.51,4.51,0,0,1,1190.18,715.67Z"/><path class="cls-6" d="M1203.16,719.92V706.68h9.57v1.57h-7.82v4h7.32v1.55h-7.32v4.51H1213v1.56Z"/><path class="cls-6" d="M1218.83,719.92V708.25h-4.37v-1.57H1225v1.57h-4.38v11.67Z"/><path class="cls-6" d="M1187.06,778.24l1.76.44a5.92,5.92,0,0,1-2,3.3,5.48,5.48,0,0,1-3.5,1.13,6.32,6.32,0,0,1-3.48-.87,5.51,5.51,0,0,1-2-2.53,8.92,8.92,0,0,1-.7-3.55,7.78,7.78,0,0,1,.79-3.61,5.45,5.45,0,0,1,2.25-2.33,6.48,6.48,0,0,1,3.21-.8,5.37,5.37,0,0,1,3.34,1,5.17,5.17,0,0,1,1.89,2.84l-1.72.41a4.17,4.17,0,0,0-1.34-2.11,3.58,3.58,0,0,0-2.21-.65,4.29,4.29,0,0,0-2.55.73,3.86,3.86,0,0,0-1.44,2,8.61,8.61,0,0,0,.08,5.49,3.72,3.72,0,0,0,1.53,1.89,4.33,4.33,0,0,0,2.25.62,3.74,3.74,0,0,0,2.49-.85A4.37,4.37,0,0,0,1187.06,778.24Z"/><path class="cls-6" d="M1190.9,782.88V769.64h1.76v11.68h6.52v1.56Z"/><path class="cls-6" d="M1201.29,782.88V769.64h5.87a7.72,7.72,0,0,1,2.69.36,2.91,2.91,0,0,1,1.47,1.26,3.74,3.74,0,0,1,.56,2,3.33,3.33,0,0,1-.92,2.38,4.63,4.63,0,0,1-2.81,1.23,4.35,4.35,0,0,1,1,.66,9.11,9.11,0,0,1,1.46,1.76l2.3,3.6h-2.2l-1.76-2.75c-.51-.8-.93-1.4-1.26-1.83a4,4,0,0,0-.89-.88,2.44,2.44,0,0,0-.8-.35,4.54,4.54,0,0,0-1-.07h-2v5.88Zm1.75-7.39h3.77a5.8,5.8,0,0,0,1.88-.25,2,2,0,0,0,1-.8,2.18,2.18,0,0,0,.35-1.19,2,2,0,0,0-.68-1.54,3.24,3.24,0,0,0-2.16-.61H1203Z"/><path class="cls-6" d="M685,716.13l1.65-.15a3.61,3.61,0,0,0,.55,1.63,3,3,0,0,0,1.33,1,5.07,5.07,0,0,0,2,.39,4.83,4.83,0,0,0,1.77-.29,2.43,2.43,0,0,0,1.15-.82,1.89,1.89,0,0,0,.37-1.13,1.72,1.72,0,0,0-.36-1.09,2.68,2.68,0,0,0-1.19-.78,22.18,22.18,0,0,0-2.36-.65,11.71,11.71,0,0,1-2.55-.83,3.54,3.54,0,0,1-1.42-1.23,3,3,0,0,1-.46-1.65,3.34,3.34,0,0,1,.57-1.87,3.54,3.54,0,0,1,1.66-1.33,6.34,6.34,0,0,1,2.43-.45,6.54,6.54,0,0,1,2.59.48,3.71,3.71,0,0,1,1.73,1.39,4,4,0,0,1,.65,2.09l-1.68.13a2.71,2.71,0,0,0-.91-1.9,3.55,3.55,0,0,0-2.31-.64A3.71,3.71,0,0,0,688,709a1.76,1.76,0,0,0-.72,1.4,1.52,1.52,0,0,0,.51,1.18,6.94,6.94,0,0,0,2.64.94,18,18,0,0,1,2.93.85,4,4,0,0,1,1.71,1.35,3.25,3.25,0,0,1,.55,1.88,3.6,3.6,0,0,1-.6,2,4,4,0,0,1-1.74,1.46,6.18,6.18,0,0,1-2.55.52,7.63,7.63,0,0,1-3-.53,4.2,4.2,0,0,1-1.9-1.57A4.48,4.48,0,0,1,685,716.13Z"/><path class="cls-6" d="M701.33,720.38V708.7H697v-1.56h10.5v1.56h-4.38v11.68Z"/><path class="cls-6" d="M709.3,720.38V707.14h9.57v1.56h-7.82v4.06h7.33v1.55h-7.33v4.51h8.13v1.56Z"/><path class="cls-6" d="M721.6,720.38V707.14h5a11.32,11.32,0,0,1,2,.13,4,4,0,0,1,1.64.61,3.29,3.29,0,0,1,1.06,1.28,4.32,4.32,0,0,1-.68,4.67c-.71.78-2,1.17-3.88,1.17h-3.4v5.38Zm1.75-7h3.43a3.65,3.65,0,0,0,2.41-.63,2.23,2.23,0,0,0,.71-1.78,2.38,2.38,0,0,0-.42-1.42,2,2,0,0,0-1.1-.78,7.38,7.38,0,0,0-1.64-.12h-3.39Z"/><path class="cls-6" d="M674.45,695.85l1.66-.14a3.78,3.78,0,0,0,.54,1.63,3.08,3.08,0,0,0,1.34,1,5.07,5.07,0,0,0,2,.39,4.83,4.83,0,0,0,1.77-.3,2.44,2.44,0,0,0,1.14-.82,1.88,1.88,0,0,0,.38-1.13,1.67,1.67,0,0,0-.37-1.09,2.62,2.62,0,0,0-1.19-.78,24.14,24.14,0,0,0-2.36-.65,12,12,0,0,1-2.55-.82,3.61,3.61,0,0,1-1.42-1.23,3.07,3.07,0,0,1-.46-1.65,3.37,3.37,0,0,1,.57-1.88,3.51,3.51,0,0,1,1.66-1.32,6.34,6.34,0,0,1,2.43-.45,6.78,6.78,0,0,1,2.6.47,3.77,3.77,0,0,1,1.73,1.4,4,4,0,0,1,.65,2.08l-1.68.13a2.72,2.72,0,0,0-.92-1.9,3.61,3.61,0,0,0-2.31-.64,3.73,3.73,0,0,0-2.31.58,1.75,1.75,0,0,0-.73,1.41,1.49,1.49,0,0,0,.51,1.17,6.89,6.89,0,0,0,2.65.95,17.57,17.57,0,0,1,2.93.84,4,4,0,0,1,1.7,1.35,3.28,3.28,0,0,1,.55,1.89,3.65,3.65,0,0,1-.6,2,3.92,3.92,0,0,1-1.74,1.45,6,6,0,0,1-2.55.52,7.59,7.59,0,0,1-3-.52,4.25,4.25,0,0,1-1.91-1.58A4.51,4.51,0,0,1,674.45,695.85Z"/><path class="cls-6" d="M687.69,700.1V686.86h1.75V700.1Z"/><path class="cls-6" d="M692.51,700.1V686.86h1.8l7,10.4v-10.4h1.68V700.1h-1.8l-6.95-10.4v10.4Z"/><path class="cls-6" d="M712.08,694.91v-1.55h5.61v4.91a9.7,9.7,0,0,1-2.66,1.55,7.86,7.86,0,0,1-2.82.52,7.64,7.64,0,0,1-3.55-.83,5.56,5.56,0,0,1-2.4-2.42,7.5,7.5,0,0,1-.82-3.53,8.19,8.19,0,0,1,.81-3.61,5.38,5.38,0,0,1,2.33-2.49,7.28,7.28,0,0,1,3.49-.81,6.92,6.92,0,0,1,2.6.46,4.37,4.37,0,0,1,1.82,1.3,5.75,5.75,0,0,1,1,2.17l-1.58.43a4.91,4.91,0,0,0-.74-1.59,3.1,3.1,0,0,0-1.26-.93,4.7,4.7,0,0,0-1.83-.34,5.4,5.4,0,0,0-2.07.36,4,4,0,0,0-1.42,1,4.46,4.46,0,0,0-.83,1.31,6.9,6.9,0,0,0-.51,2.67,6.4,6.4,0,0,0,.61,3,3.89,3.89,0,0,0,1.77,1.77,5.48,5.48,0,0,0,2.48.58,6.57,6.57,0,0,0,3.87-1.37v-2.47Z"/><path class="cls-6" d="M720.2,700.1V686.86H722v11.68h6.53v1.56Z"/><path class="cls-6" d="M730.6,700.1V686.86h9.57v1.57h-7.82v4.05h7.33V694h-7.33v4.5h8.13v1.56Z"/><path class="cls-6" d="M829.07,783.1V769.41H839V771h-8.09v4.19h7.58v1.61h-7.58v4.66h8.41v1.61Z"/><path class="cls-6" d="M840.4,783.1l5.3-7.13L841,769.41h2.16l2.48,3.51c.52.73.88,1.29,1.1,1.68.31-.49.67-1,1.09-1.56l2.75-3.63h2l-4.81,6.46L853,783.1h-2.25l-3.44-4.88c-.2-.28-.39-.59-.6-.92-.31.5-.52.84-.65,1l-3.44,4.77Z"/><path class="cls-6" d="M853.05,783.1l5.26-13.69h2l5.6,13.69H863.8L862.2,779h-5.72L855,783.1Zm4-5.62h4.64l-1.43-3.79c-.43-1.15-.76-2.1-1-2.84a16.41,16.41,0,0,1-.74,2.61Z"/><path class="cls-6" d="M867.26,783.1V769.41H870l3.24,9.7c.3.9.52,1.58.66,2,.15-.49.4-1.23.73-2.19l3.28-9.53h2.43V783.1h-1.74V771.64l-4,11.46H873l-4-11.65V783.1Z"/><path class="cls-6" d="M883.56,783.1V769.41h1.81V783.1Z"/><path class="cls-6" d="M888.54,783.1V769.41h1.86l7.19,10.75V769.41h1.74V783.1h-1.86l-7.19-10.76V783.1Z"/><path class="cls-6" d="M902.41,783.1V769.41h9.9V771h-8.08v4.19h7.57v1.61h-7.57v4.66h8.4v1.61Z"/><path class="cls-6" d="M828.29,720.61v-13.7h9.9v1.62H830.1v4.19h7.58v1.61H830.1V719h8.41v1.62Z"/><path class="cls-6" d="M839.62,720.61l5.3-7.14-4.67-6.56h2.15l2.49,3.52a17.31,17.31,0,0,1,1.1,1.68q.46-.75,1.08-1.56l2.76-3.64h2L847,713.37l5.18,7.24h-2.24l-3.44-4.89c-.2-.28-.4-.58-.6-.91-.31.49-.52.84-.66,1l-3.43,4.78Z"/><path class="cls-6" d="M852.27,720.61l5.26-13.7h2l5.6,13.7H863l-1.6-4.15H855.7l-1.51,4.15Zm4-5.63h4.64l-1.43-3.79c-.43-1.15-.76-2.1-1-2.84a16.83,16.83,0,0,1-.74,2.62Z"/><path class="cls-6" d="M866.47,720.61v-13.7h2.73l3.24,9.7c.3.9.52,1.58.66,2,.15-.5.4-1.23.73-2.2l3.27-9.53h2.44v13.7H877.8V709.15l-4,11.46h-1.64l-4-11.66v11.66Z"/><path class="cls-6" d="M882.77,720.61v-13.7h1.82v13.7Z"/><path class="cls-6" d="M887.76,720.61v-13.7h1.86l7.19,10.75V706.91h1.74v13.7h-1.86l-7.19-10.76v10.76Z"/><path class="cls-6" d="M901.63,720.61v-13.7h9.9v1.62h-8.09v4.19H911v1.61h-7.58V719h8.41v1.62Z"/><path class="cls-6" d="M1007.57,803.14v-13.7h1.86l7.19,10.76V789.44h1.74v13.7h-1.86l-7.19-10.76v10.76Z"/><path class="cls-6" d="M1021.44,803.14v-13.7h9.9v1.62h-8.09v4.19h7.58v1.61h-7.58v4.66h8.41v1.62Z"/><path class="cls-6" d="M1032.77,803.14l5.3-7.14-4.67-6.56h2.16L1038,793a18.64,18.64,0,0,1,1.1,1.68,17.94,17.94,0,0,1,1.09-1.56l2.75-3.64h2l-4.81,6.46,5.19,7.24h-2.25l-3.44-4.89c-.2-.28-.39-.58-.6-.91-.31.5-.52.84-.65,1l-3.44,4.78Z"/><path class="cls-6" d="M1050.41,803.14V791.06h-4.51v-1.62h10.85v1.62h-4.53v12.08Z"/><path class="cls-6" d="M846.26,803.14v-13.7h1.86l7.19,10.76V789.44h1.74v13.7h-1.86L848,792.38v10.76Z"/><path class="cls-6" d="M860.13,803.14v-13.7H870v1.62H862v4.19h7.57v1.61H862v4.66h8.4v1.62Z"/><path class="cls-6" d="M871.46,803.14l5.3-7.14-4.67-6.56h2.16l2.48,3.52a16.65,16.65,0,0,1,1.1,1.68,17.94,17.94,0,0,1,1.09-1.56l2.75-3.64h2l-4.81,6.46,5.19,7.24h-2.24l-3.45-4.89c-.19-.28-.39-.58-.6-.91-.3.5-.52.84-.65,1l-3.44,4.78Z"/><path class="cls-6" d="M889.1,803.14V791.06h-4.51v-1.62h10.85v1.62h-4.53v12.08Z"/><path class="cls-6" d="M991.78,783.21V770h4.56a10.74,10.74,0,0,1,2.35.19,4.37,4.37,0,0,1,1.94,1,5.39,5.39,0,0,1,1.57,2.26,9,9,0,0,1,.52,3.14,9.46,9.46,0,0,1-.35,2.68,6.59,6.59,0,0,1-.91,1.92,4.47,4.47,0,0,1-2.78,1.87,9.12,9.12,0,0,1-2.13.22Zm1.75-1.56h2.82a7,7,0,0,0,2.06-.24,3,3,0,0,0,1.18-.69,4.06,4.06,0,0,0,1-1.67,7.93,7.93,0,0,0,.35-2.55,6.08,6.08,0,0,0-.68-3.19,3.39,3.39,0,0,0-1.66-1.5,6.79,6.79,0,0,0-2.26-.27h-2.78Z"/><path class="cls-6" d="M1005.16,783.21V770h9.57v1.56h-7.81v4.05h7.32v1.56h-7.32v4.5H1015v1.56Z"/><path class="cls-6" d="M1017.46,783.21V770h5a11.32,11.32,0,0,1,2,.13,4,4,0,0,1,1.64.61,3.29,3.29,0,0,1,1.06,1.28,4.18,4.18,0,0,1,.4,1.81,4,4,0,0,1-1.08,2.85c-.71.78-2,1.17-3.88,1.17h-3.39v5.38Zm1.75-6.94h3.42a3.65,3.65,0,0,0,2.41-.63,2.23,2.23,0,0,0,.71-1.78,2.38,2.38,0,0,0-.42-1.42,2,2,0,0,0-1.1-.78,7.38,7.38,0,0,0-1.64-.12h-3.38Z"/><path class="cls-6" d="M1029.26,776.77a7.18,7.18,0,0,1,1.76-5.16,6,6,0,0,1,4.57-1.86,6.42,6.42,0,0,1,3.31.87,5.75,5.75,0,0,1,2.24,2.44,8,8,0,0,1,.77,3.55,7.83,7.83,0,0,1-.81,3.61,5.56,5.56,0,0,1-2.3,2.4,6.56,6.56,0,0,1-3.22.82,6.28,6.28,0,0,1-3.34-.9,5.91,5.91,0,0,1-2.23-2.47A7.52,7.52,0,0,1,1029.26,776.77Zm1.8,0a5.27,5.27,0,0,0,1.29,3.77,4.48,4.48,0,0,0,6.48,0,5.62,5.62,0,0,0,1.27-3.94,6.9,6.9,0,0,0-.54-2.83,4.23,4.23,0,0,0-1.6-1.86,4.27,4.27,0,0,0-2.36-.67,4.48,4.48,0,0,0-3.2,1.28C1031.51,773.38,1031.06,774.8,1031.06,776.79Z"/><path class="cls-6" d="M1043.57,779l1.65-.14a3.66,3.66,0,0,0,.55,1.63,3,3,0,0,0,1.33,1,4.9,4.9,0,0,0,2,.4,4.83,4.83,0,0,0,1.77-.3,2.44,2.44,0,0,0,1.14-.82,1.88,1.88,0,0,0,.38-1.13,1.72,1.72,0,0,0-.36-1.09,2.66,2.66,0,0,0-1.2-.78,22.61,22.61,0,0,0-2.35-.64,12.44,12.44,0,0,1-2.56-.83,3.58,3.58,0,0,1-1.41-1.23,3,3,0,0,1-.46-1.65,3.34,3.34,0,0,1,.57-1.87,3.46,3.46,0,0,1,1.66-1.32,6.07,6.07,0,0,1,2.42-.46,6.56,6.56,0,0,1,2.6.48,3.76,3.76,0,0,1,1.73,1.39,4.06,4.06,0,0,1,.65,2.09l-1.68.12a2.72,2.72,0,0,0-.92-1.89,3.54,3.54,0,0,0-2.3-.64,3.71,3.71,0,0,0-2.32.58,1.77,1.77,0,0,0-.73,1.4,1.53,1.53,0,0,0,.52,1.18,7.12,7.12,0,0,0,2.64.94,17.57,17.57,0,0,1,2.93.84,4,4,0,0,1,1.7,1.35,3.3,3.3,0,0,1,.55,1.89,3.65,3.65,0,0,1-.6,2,4,4,0,0,1-1.74,1.45,6,6,0,0,1-2.55.52,7.62,7.62,0,0,1-3-.53,4.14,4.14,0,0,1-1.9-1.57A4.51,4.51,0,0,1,1043.57,779Z"/><path class="cls-6" d="M1056.79,783.21V770h1.76v13.23Z"/><path class="cls-6" d="M1065,783.21V771.54h-4.36V770h10.49v1.56h-4.38v11.67Z"/><path class="cls-6" d="M992.88,720.06V706.82h4.56a11.48,11.48,0,0,1,2.35.19,4.47,4.47,0,0,1,1.94,1,5.39,5.39,0,0,1,1.57,2.26,9,9,0,0,1,.52,3.15,9.44,9.44,0,0,1-.35,2.67,6.54,6.54,0,0,1-.91,1.93,5.06,5.06,0,0,1-1.2,1.2,5,5,0,0,1-1.58.66,9.08,9.08,0,0,1-2.13.23Zm1.75-1.57h2.82a7,7,0,0,0,2.06-.24,2.84,2.84,0,0,0,1.18-.69,4.06,4.06,0,0,0,1-1.67,7.93,7.93,0,0,0,.35-2.55,6.1,6.1,0,0,0-.68-3.19,3.41,3.41,0,0,0-1.66-1.49,6.48,6.48,0,0,0-2.26-.28h-2.78Z"/><path class="cls-6" d="M1006.26,720.06V706.82h9.57v1.56H1008v4.06h7.33V714H1008v4.5h8.13v1.57Z"/><path class="cls-6" d="M1018.56,720.06V706.82h5a11.32,11.32,0,0,1,2,.13,4,4,0,0,1,1.64.62,3.26,3.26,0,0,1,1.06,1.27,4.18,4.18,0,0,1,.4,1.81,4.06,4.06,0,0,1-1.08,2.86c-.71.78-2,1.17-3.88,1.17h-3.39v5.38Zm1.75-6.95h3.42a3.65,3.65,0,0,0,2.41-.63,2.23,2.23,0,0,0,.71-1.78,2.41,2.41,0,0,0-.42-1.42,2,2,0,0,0-1.1-.78,7.38,7.38,0,0,0-1.64-.12h-3.38Z"/><path class="cls-6" d="M1030.36,713.61a7.18,7.18,0,0,1,1.76-5.16,6,6,0,0,1,4.57-1.86,6.42,6.42,0,0,1,3.31.87,5.77,5.77,0,0,1,2.24,2.45,8,8,0,0,1,.77,3.55,7.82,7.82,0,0,1-.81,3.6,5.51,5.51,0,0,1-2.3,2.4,6.56,6.56,0,0,1-3.22.82,6.28,6.28,0,0,1-3.34-.9,5.8,5.8,0,0,1-2.23-2.47A7.52,7.52,0,0,1,1030.36,713.61Zm1.8,0a5.31,5.31,0,0,0,1.29,3.77,4.49,4.49,0,0,0,6.48,0,5.61,5.61,0,0,0,1.27-3.94,6.82,6.82,0,0,0-.54-2.82,4.2,4.2,0,0,0-1.6-1.87,4.35,4.35,0,0,0-2.36-.66,4.47,4.47,0,0,0-3.2,1.27C1032.61,710.22,1032.16,711.65,1032.16,713.64Z"/><path class="cls-6" d="M1044.67,715.8l1.65-.14a3.66,3.66,0,0,0,.55,1.63,3,3,0,0,0,1.33,1,5.07,5.07,0,0,0,2,.39,4.83,4.83,0,0,0,1.77-.3,2.5,2.5,0,0,0,1.14-.81,1.93,1.93,0,0,0,.38-1.14,1.71,1.71,0,0,0-.36-1.08,2.81,2.81,0,0,0-1.2-.79c-.35-.13-1.14-.35-2.35-.64a11.85,11.85,0,0,1-2.56-.83,3.58,3.58,0,0,1-1.41-1.23,3,3,0,0,1-.46-1.65,3.37,3.37,0,0,1,.57-1.87,3.46,3.46,0,0,1,1.66-1.32,6.25,6.25,0,0,1,2.42-.45,6.78,6.78,0,0,1,2.6.47,3.77,3.77,0,0,1,1.73,1.4,4,4,0,0,1,.65,2.08l-1.68.13a2.72,2.72,0,0,0-.92-1.9,3.54,3.54,0,0,0-2.3-.64,3.71,3.71,0,0,0-2.32.58,1.77,1.77,0,0,0-.73,1.41,1.52,1.52,0,0,0,.52,1.17,6.94,6.94,0,0,0,2.64.94,18.34,18.34,0,0,1,2.93.85,3.88,3.88,0,0,1,1.7,1.35,3.25,3.25,0,0,1,.55,1.88,3.62,3.62,0,0,1-.6,2,3.92,3.92,0,0,1-1.74,1.45,6,6,0,0,1-2.55.52,7.59,7.59,0,0,1-3-.52,4.22,4.22,0,0,1-1.9-1.58A4.42,4.42,0,0,1,1044.67,715.8Z"/><path class="cls-6" d="M1057.89,720.06V706.82h1.76v13.24Z"/><path class="cls-6" d="M1066.1,720.06V708.38h-4.36v-1.56h10.49v1.56h-4.38v11.68Z"/><path class="cls-6" d="M520.77,715.77l1.65-.15a3.61,3.61,0,0,0,.55,1.63,2.91,2.91,0,0,0,1.33,1,5.51,5.51,0,0,0,3.8.1,2.51,2.51,0,0,0,1.14-.82,1.9,1.9,0,0,0,.38-1.13,1.72,1.72,0,0,0-.36-1.09,2.72,2.72,0,0,0-1.2-.78,21.75,21.75,0,0,0-2.35-.65,12.58,12.58,0,0,1-2.56-.82,3.6,3.6,0,0,1-1.41-1.24,3,3,0,0,1-.46-1.64,3.44,3.44,0,0,1,.56-1.88,3.54,3.54,0,0,1,1.67-1.32,6.25,6.25,0,0,1,2.42-.45,6.78,6.78,0,0,1,2.6.47,3.77,3.77,0,0,1,1.73,1.4,4,4,0,0,1,.65,2.08l-1.68.13a2.72,2.72,0,0,0-.92-1.9,3.6,3.6,0,0,0-2.3-.64,3.71,3.71,0,0,0-2.32.59,1.74,1.74,0,0,0-.73,1.4,1.51,1.51,0,0,0,.52,1.17,7.07,7.07,0,0,0,2.64,1,17.57,17.57,0,0,1,2.93.84,4,4,0,0,1,1.7,1.35,3.25,3.25,0,0,1,.55,1.88,3.6,3.6,0,0,1-.6,2,4,4,0,0,1-1.74,1.46,6.11,6.11,0,0,1-2.55.51,7.59,7.59,0,0,1-3-.52,4.2,4.2,0,0,1-1.9-1.57A4.48,4.48,0,0,1,520.77,715.77Z"/><path class="cls-6" d="M537.06,720V708.35H532.7v-1.56h10.49v1.56h-4.38V720Z"/><path class="cls-6" d="M544.12,713.57a7.17,7.17,0,0,1,1.77-5.15,6,6,0,0,1,4.57-1.87,6.27,6.27,0,0,1,3.3.88,5.71,5.71,0,0,1,2.25,2.44,8,8,0,0,1,.77,3.55A7.7,7.7,0,0,1,556,717a5.53,5.53,0,0,1-2.3,2.41,6.6,6.6,0,0,1-3.21.81,6.26,6.26,0,0,1-3.34-.9,5.83,5.83,0,0,1-2.23-2.46A7.44,7.44,0,0,1,544.12,713.57Zm1.81,0a5.33,5.33,0,0,0,1.28,3.77,4.48,4.48,0,0,0,6.48,0,5.61,5.61,0,0,0,1.28-4,6.82,6.82,0,0,0-.54-2.82,4.25,4.25,0,0,0-1.6-1.87,4.35,4.35,0,0,0-2.36-.66,4.44,4.44,0,0,0-3.2,1.28C546.37,710.19,545.93,711.61,545.93,713.6Z"/><path class="cls-6" d="M559,720V706.79h5a12.77,12.77,0,0,1,2,.12,4.05,4.05,0,0,1,1.63.62,3.22,3.22,0,0,1,1.06,1.28,4.32,4.32,0,0,1-.67,4.66c-.72.78-2,1.17-3.88,1.17h-3.4V720Zm1.75-6.94h3.43a3.65,3.65,0,0,0,2.41-.63,2.29,2.29,0,0,0,.71-1.78,2.36,2.36,0,0,0-.42-1.42,2,2,0,0,0-1.11-.79,8.17,8.17,0,0,0-1.63-.11h-3.39Z"/><path class="cls-6" d="M526.09,782.88V769.42h6a8,8,0,0,1,2.74.36,3,3,0,0,1,1.49,1.28,3.76,3.76,0,0,1,.56,2,3.37,3.37,0,0,1-.93,2.41,4.59,4.59,0,0,1-2.86,1.25,4.63,4.63,0,0,1,1.07.67,9.34,9.34,0,0,1,1.48,1.79l2.34,3.67h-2.24l-1.78-2.8c-.52-.81-.95-1.43-1.28-1.86a4,4,0,0,0-.91-.9,2.76,2.76,0,0,0-.81-.36,5.68,5.68,0,0,0-1-.06h-2.07v6Zm1.78-7.52h3.83a6,6,0,0,0,1.91-.25,2.06,2.06,0,0,0,1-.81,2.2,2.2,0,0,0,.36-1.21,2,2,0,0,0-.7-1.57,3.24,3.24,0,0,0-2.19-.62h-4.26Z"/><path class="cls-6" d="M548.48,769.42h1.78v7.77a9.14,9.14,0,0,1-.46,3.23,3.93,3.93,0,0,1-1.66,1.94,5.84,5.84,0,0,1-3.14.75,6.57,6.57,0,0,1-3.1-.65,3.74,3.74,0,0,1-1.71-1.89,8.84,8.84,0,0,1-.52-3.38v-7.77h1.78v7.77a7.48,7.48,0,0,0,.33,2.58,2.5,2.5,0,0,0,1.12,1.28,3.89,3.89,0,0,0,1.94.45,3.71,3.71,0,0,0,2.8-.89q.84-.89.84-3.42Z"/><path class="cls-6" d="M553.21,782.88V769.42H555L562.11,780V769.42h1.71v13.46H562l-7.07-10.58v10.58Z"/><path class="cls-6" d="M1309.57,769.65h1.75v7.65a9,9,0,0,1-.45,3.16,3.81,3.81,0,0,1-1.63,1.91,5.74,5.74,0,0,1-3.09.74,6.32,6.32,0,0,1-3-.64,3.69,3.69,0,0,1-1.69-1.86,9,9,0,0,1-.5-3.31v-7.65h1.75v7.64a7.55,7.55,0,0,0,.32,2.54,2.46,2.46,0,0,0,1.1,1.26,3.88,3.88,0,0,0,1.91.44,3.62,3.62,0,0,0,2.75-.88c.55-.58.82-1.7.82-3.36Z"/><path class="cls-6" d="M1314.22,782.88V769.65h1.8l7,10.39V769.65h1.68v13.23h-1.8l-6.95-10.4v10.4Z"/><path class="cls-6" d="M1327.59,782.88V769.65h5a11.32,11.32,0,0,1,2,.13,4,4,0,0,1,1.64.62,3.19,3.19,0,0,1,1.06,1.27,4.32,4.32,0,0,1-.67,4.66c-.72.78-2,1.17-3.88,1.17h-3.4v5.38Zm1.75-6.94h3.42a3.63,3.63,0,0,0,2.41-.63,2.23,2.23,0,0,0,.72-1.78,2.38,2.38,0,0,0-.42-1.42,2,2,0,0,0-1.11-.78,7.28,7.28,0,0,0-1.63-.12h-3.39Z"/><path class="cls-6" d="M1340,782.88V769.65h5.86a7.72,7.72,0,0,1,2.69.36,2.87,2.87,0,0,1,1.48,1.26,3.79,3.79,0,0,1,.55,2,3.31,3.31,0,0,1-.92,2.37,4.52,4.52,0,0,1-2.81,1.23,4.68,4.68,0,0,1,1,.66,9,9,0,0,1,1.46,1.76l2.3,3.6h-2.2l-1.75-2.75c-.52-.79-.94-1.4-1.27-1.82a4.1,4.1,0,0,0-.89-.89,2.57,2.57,0,0,0-.8-.35,5.41,5.41,0,0,0-1-.06h-2v5.87Zm1.75-7.39h3.76a5.54,5.54,0,0,0,1.88-.25,2,2,0,0,0,1-.79,2.2,2.2,0,0,0,.35-1.19,2,2,0,0,0-.68-1.54,3.14,3.14,0,0,0-2.15-.61h-4.19Z"/><path class="cls-6" d="M1352.74,776.44a7.18,7.18,0,0,1,1.77-5.16,6,6,0,0,1,4.56-1.86,6.37,6.37,0,0,1,3.31.87,5.69,5.69,0,0,1,2.24,2.44,8.51,8.51,0,0,1,0,7.16,5.51,5.51,0,0,1-2.3,2.4,6.53,6.53,0,0,1-3.21.82,6.26,6.26,0,0,1-3.34-.9,5.78,5.78,0,0,1-2.23-2.47A7.39,7.39,0,0,1,1352.74,776.44Zm1.8,0a5.27,5.27,0,0,0,1.29,3.76,4.48,4.48,0,0,0,6.48,0,5.63,5.63,0,0,0,1.28-3.94,6.66,6.66,0,0,0-.55-2.82,4.14,4.14,0,0,0-1.6-1.87,4.25,4.25,0,0,0-2.36-.67,4.5,4.5,0,0,0-3.2,1.28C1355,773.05,1354.54,774.47,1354.54,776.47Z"/><path class="cls-6" d="M1371,782.88V771.21h-4.36v-1.56h10.49v1.56h-4.38v11.67Z"/><path class="cls-6" d="M1379,782.88V769.65h9.57v1.56h-7.82v4h7.32v1.56h-7.32v4.5h8.12v1.56Z"/><path class="cls-6" d="M1400.71,778.24l1.75.45a5.86,5.86,0,0,1-2,3.29,5.47,5.47,0,0,1-3.49,1.13,6.28,6.28,0,0,1-3.48-.87,5.34,5.34,0,0,1-2-2.53,8.91,8.91,0,0,1-.7-3.54,7.78,7.78,0,0,1,.79-3.61,5.45,5.45,0,0,1,2.24-2.34,6.62,6.62,0,0,1,3.21-.8,5.37,5.37,0,0,1,3.34,1,5.28,5.28,0,0,1,1.89,2.84l-1.73.41a4.06,4.06,0,0,0-1.33-2.11,3.57,3.57,0,0,0-2.2-.66,4.32,4.32,0,0,0-2.55.73,3.82,3.82,0,0,0-1.44,2,7.82,7.82,0,0,0-.42,2.54,8.29,8.29,0,0,0,.49,3,3.74,3.74,0,0,0,1.53,1.88,4.36,4.36,0,0,0,2.25.62,3.74,3.74,0,0,0,2.49-.85A4.3,4.3,0,0,0,1400.71,778.24Z"/><path class="cls-6" d="M1408,782.88V771.21h-4.36v-1.56h10.49v1.56h-4.38v11.67Z"/><path class="cls-6" d="M1314.25,720.14V706.91h5a12.77,12.77,0,0,1,2,.12,4.05,4.05,0,0,1,1.63.62,3.29,3.29,0,0,1,1.06,1.28,4.32,4.32,0,0,1-.67,4.66c-.72.78-2,1.17-3.88,1.17H1316v5.38Zm1.75-6.94h3.43a3.65,3.65,0,0,0,2.41-.63,2.28,2.28,0,0,0,.71-1.78,2.36,2.36,0,0,0-.42-1.42,1.91,1.91,0,0,0-1.11-.78,7.28,7.28,0,0,0-1.63-.12H1316Z"/><path class="cls-6" d="M1326.61,720.14V706.91h5.87a8.05,8.05,0,0,1,2.69.35,3,3,0,0,1,1.47,1.26,3.74,3.74,0,0,1,.55,2,3.3,3.3,0,0,1-.91,2.37,4.63,4.63,0,0,1-2.82,1.23,4.24,4.24,0,0,1,1.06.66,9.08,9.08,0,0,1,1.45,1.76l2.3,3.6h-2.2l-1.75-2.75q-.77-1.2-1.26-1.83a4.24,4.24,0,0,0-.89-.88,2.54,2.54,0,0,0-.8-.35,4.6,4.6,0,0,0-1-.07h-2v5.88Zm1.75-7.39h3.77a5.73,5.73,0,0,0,1.87-.25,2,2,0,0,0,1-.8,2.09,2.09,0,0,0,.35-1.18,2,2,0,0,0-.68-1.55,3.19,3.19,0,0,0-2.15-.6h-4.19Z"/><path class="cls-6" d="M1339.4,713.69a7.17,7.17,0,0,1,1.77-5.15,6,6,0,0,1,4.57-1.87,6.27,6.27,0,0,1,3.3.88,5.69,5.69,0,0,1,2.24,2.44,7.85,7.85,0,0,1,.78,3.55,7.7,7.7,0,0,1-.82,3.6,5.53,5.53,0,0,1-2.3,2.41,6.61,6.61,0,0,1-3.21.82,6.27,6.27,0,0,1-3.34-.91,5.83,5.83,0,0,1-2.23-2.46A7.41,7.41,0,0,1,1339.4,713.69Zm1.81,0a5.33,5.33,0,0,0,1.28,3.77,4.48,4.48,0,0,0,6.48,0,5.59,5.59,0,0,0,1.28-4,6.73,6.73,0,0,0-.55-2.82,4.22,4.22,0,0,0-1.59-1.87,4.35,4.35,0,0,0-2.36-.66,4.48,4.48,0,0,0-3.2,1.28C1341.65,710.31,1341.21,711.73,1341.21,713.72Z"/><path class="cls-6" d="M1357.68,720.14V708.47h-4.36v-1.56h10.49v1.56h-4.38v11.67Z"/><path class="cls-6" d="M1365.64,720.14V706.91h9.57v1.56h-7.82v4h7.32v1.55h-7.32v4.51h8.13v1.56Z"/><path class="cls-6" d="M1387.38,715.5l1.75.44a5.91,5.91,0,0,1-2,3.29,5.45,5.45,0,0,1-3.5,1.14,6.19,6.19,0,0,1-3.48-.88,5.48,5.48,0,0,1-2-2.52,8.92,8.92,0,0,1-.7-3.55,7.73,7.73,0,0,1,.79-3.6,5.36,5.36,0,0,1,2.25-2.34,6.59,6.59,0,0,1,3.21-.8,5.47,5.47,0,0,1,3.34,1,5.24,5.24,0,0,1,1.88,2.85l-1.72.4a4.08,4.08,0,0,0-1.34-2.1,3.55,3.55,0,0,0-2.2-.66,4.25,4.25,0,0,0-2.55.73,3.91,3.91,0,0,0-1.44,2,7.88,7.88,0,0,0-.42,2.55,8,8,0,0,0,.5,2.94,3.56,3.56,0,0,0,1.53,1.88,4.24,4.24,0,0,0,2.24.63,3.8,3.8,0,0,0,2.5-.85A4.37,4.37,0,0,0,1387.38,715.5Z"/><path class="cls-6" d="M1394.65,720.14V708.47h-4.36v-1.56h10.49v1.56h-4.38v11.67Z"/><path class="cls-6" d="M1663.82,720.14l5.17-13.47h1.92l5.51,13.47h-2l-1.57-4.08h-5.63l-1.48,4.08Zm3.88-5.53h4.57l-1.41-3.73c-.43-1.13-.75-2.06-.95-2.79a18.64,18.64,0,0,1-.73,2.57Z"/><path class="cls-6" d="M1686.68,706.67h1.78v7.78a9.32,9.32,0,0,1-.46,3.22,4,4,0,0,1-1.66,2,5.86,5.86,0,0,1-3.14.75,6.39,6.39,0,0,1-3.1-.66,3.75,3.75,0,0,1-1.72-1.88,9.1,9.1,0,0,1-.51-3.38v-7.78h1.78v7.77A7.54,7.54,0,0,0,1680,717a2.45,2.45,0,0,0,1.12,1.28,3.87,3.87,0,0,0,1.94.45,3.73,3.73,0,0,0,2.8-.89c.56-.6.84-1.74.84-3.43Z"/><path class="cls-6" d="M1690.06,720.14l5.2-7-4.59-6.45h2.12l2.45,3.46q.75,1.07,1.08,1.65a18.69,18.69,0,0,1,1.06-1.54l2.71-3.57H1702L1697.3,713l5.1,7.12h-2.21l-3.38-4.81c-.19-.27-.39-.57-.59-.9-.3.49-.52.83-.65,1l-3.37,4.7Z"/><path class="cls-6" d="M1501.34,720.14l5.17-13.47h1.92l5.51,13.47h-2l-1.57-4.08h-5.63l-1.48,4.08Zm3.88-5.53h4.56l-1.4-3.73q-.64-1.7-1-2.79a17.29,17.29,0,0,1-.72,2.57Z"/><path class="cls-6" d="M1524.19,706.67H1526v7.78a9.32,9.32,0,0,1-.46,3.22,4,4,0,0,1-1.66,2,5.88,5.88,0,0,1-3.15.75,6.38,6.38,0,0,1-3.09-.66,3.7,3.7,0,0,1-1.72-1.88,9.1,9.1,0,0,1-.51-3.38v-7.78h1.78v7.77a7.85,7.85,0,0,0,.32,2.59,2.5,2.5,0,0,0,1.12,1.28,3.91,3.91,0,0,0,2,.45,3.73,3.73,0,0,0,2.8-.89c.56-.6.83-1.74.83-3.43Z"/><path class="cls-6" d="M1527.57,720.14l5.21-7-4.59-6.45h2.12l2.44,3.46a19.37,19.37,0,0,1,1.09,1.65,18.69,18.69,0,0,1,1.06-1.54l2.71-3.57h1.94l-4.73,6.35,5.1,7.12h-2.21l-3.39-4.81c-.19-.27-.38-.57-.58-.9-.3.49-.52.83-.65,1l-3.38,4.7Z"/><line class="cls-7" x1="1682.81" y1="324.99" x2="1682.81" y2="339.26"/><line class="cls-7" x1="1682.81" y1="349.89" x2="1682.81" y2="364.17"/><line class="cls-7" x1="1682.81" y1="300.08" x2="1682.81" y2="314.36"/><line class="cls-7" x1="1601.77" y1="324.99" x2="1601.77" y2="339.26"/><line class="cls-7" x1="1601.77" y1="349.89" x2="1601.77" y2="364.17"/><line class="cls-7" x1="1601.77" y1="300.08" x2="1601.77" y2="314.36"/><line class="cls-7" x1="1520.75" y1="324.99" x2="1520.75" y2="339.26"/><line class="cls-7" x1="1520.75" y1="349.89" x2="1520.75" y2="364.17"/><line class="cls-7" x1="1520.75" y1="300.08" x2="1520.75" y2="314.36"/><line class="cls-7" x1="1397.2" y1="318.77" x2="1397.2" y2="333.05"/><line class="cls-7" x1="1397.2" y1="343.68" x2="1397.2" y2="357.95"/><line class="cls-7" x1="1397.2" y1="293.86" x2="1397.2" y2="308.14"/><line class="cls-7" x1="1316.17" y1="318.77" x2="1316.17" y2="333.05"/><line class="cls-7" x1="1316.17" y1="343.68" x2="1316.17" y2="357.95"/><line class="cls-7" x1="1316.17" y1="293.86" x2="1316.17" y2="308.14"/><polygon class="cls-10" points="2203.27 94.28 46.82 94.28 0 107.94 2250.38 107.94 2203.27 94.28"/></svg>