<svg id="Layer_1" data-name="Layer 1" xmlns="http://www.w3.org/2000/svg" viewBox="0 0 3840 2160"><defs><style>.cls-1{fill:#092844;}.cls-2{fill:#0e4a7c;}</style></defs><title>Artboard 1</title><rect class="cls-1" width="3840" height="2160"/><polygon class="cls-2" points="372.83 118.02 76.89 116.34 472.17 89.21 157.42 302.12 217.94 197.22 214.32 225.31 372.83 118.02"/><path class="cls-2" d="M94.78,125.05a42.11,42.11,0,0,1,1.79,9.27c1.79-7.27,4.74-9.27,13.17-9.27,5.26,0,7.58.42,9.37,1.79,2,1.58,3,3.37,4,7.48,2.11-7.37,5-9.27,13.58-9.27,10.43,0,12.75,2.53,12.75,13.9v56.34H130.59V147.9c0-5-1-6.63-3.79-6.63s-3.9,1.79-3.9,6.63v47.39H104.05V146.74c0-3.79-1.26-5.58-3.9-5.58s-3.79,1.9-3.79,5.79v48.34H77.52V141.06a60.62,60.62,0,0,0-1.8-16Z"/><path class="cls-2" d="M175,125.05v70.24H156.17V125.05Z"/><path class="cls-2" d="M215.14,140.32h-8.53v55H187.76v-55h-8.52V125.05h35.9Z"/><path class="cls-2" d="M253.79,140.32H237.26v12.21h3.37c12.1,0,15.05,3.69,15.05,18.64v4.32c0,8.11-.94,13.16-2.84,15.9s-4.21,3.58-9,3.79c-1.79,0-1.79,0-7.69.11H218.72V180h17.59V167.8h-2.95c-7.27,0-10.43-1.05-12.43-4.42-2-3-2.52-6.32-2.52-14.85v-4.31c0-8.64,1.47-14.33,4.31-16.75,2.43-2.1,4.64-2.42,14.85-2.42h16.22v15.27Z"/><path class="cls-2" d="M284.56,140.68a10.94,10.94,0,0,1-3.3,8,11.18,11.18,0,0,1-15.92,0,11.31,11.31,0,0,1,8-19.3,10.72,10.72,0,0,1,7.91,3.33A10.92,10.92,0,0,1,284.56,140.68Zm-2,0a9.3,9.3,0,0,0-2.72-6.7,8.72,8.72,0,0,0-6.49-2.79,8.84,8.84,0,0,0-6.58,2.79,9.64,9.64,0,0,0,0,13.42,9,9,0,0,0,13.06,0A9.23,9.23,0,0,0,282.55,140.67ZM279,147.19H276l-2.11-5.27h-3.12v5.27H268v-13h6a5.45,5.45,0,0,1,3.7,1.08A3.54,3.54,0,0,1,279,138a3.48,3.48,0,0,1-2.41,3.43Zm-8.16-7.33h2.86c1.62,0,2.44-.62,2.44-1.86s-.75-1.78-2.23-1.78h-3.07Z"/><polygon class="cls-2" points="842.14 118.02 546.19 116.34 941.48 89.21 626.73 302.12 687.24 197.22 683.63 225.31 842.14 118.02"/><path class="cls-2" d="M564.09,125.05a42.11,42.11,0,0,1,1.79,9.27c1.79-7.27,4.74-9.27,13.16-9.27,5.27,0,7.59.42,9.38,1.79,2,1.58,2.94,3.37,4,7.48,2.1-7.37,5-9.27,13.58-9.27,10.43,0,12.74,2.53,12.74,13.9v56.34H599.89V147.9c0-5-.94-6.63-3.79-6.63s-3.89,1.79-3.89,6.63v47.39H573.36V146.74c0-3.79-1.27-5.58-3.9-5.58s-3.79,1.9-3.79,5.79v48.34H546.82V141.06a60.62,60.62,0,0,0-1.79-16Z"/><path class="cls-2" d="M644.33,125.05v70.24H625.48V125.05Z"/><path class="cls-2" d="M684.45,140.32h-8.53v55H657.07v-55h-8.53V125.05h35.91Z"/><path class="cls-2" d="M723.09,140.32H706.56v12.21h3.37c12.11,0,15.06,3.69,15.06,18.64v4.32c0,8.11-1,13.16-2.84,15.9s-4.21,3.58-8.95,3.79c-1.79,0-1.79,0-7.69.11H688V180h17.58V167.8h-2.94c-7.27,0-10.43-1.05-12.43-4.42-2-3-2.53-6.32-2.53-14.85v-4.31c0-8.64,1.48-14.33,4.32-16.75,2.42-2.1,4.63-2.42,14.85-2.42h16.21v15.27Z"/><path class="cls-2" d="M753.87,140.68a10.91,10.91,0,0,1-3.31,8,11.17,11.17,0,0,1-15.91,0,11.31,11.31,0,0,1,8-19.3,10.72,10.72,0,0,1,7.92,3.33A11,11,0,0,1,753.87,140.68Zm-2,0a9.29,9.29,0,0,0-2.71-6.7,8.73,8.73,0,0,0-6.49-2.79,8.87,8.87,0,0,0-6.59,2.79,9.62,9.62,0,0,0,0,13.42,9,9,0,0,0,13.06,0A9.26,9.26,0,0,0,751.85,140.67Zm-3.58,6.52h-2.92l-2.12-5.27h-3.11v5.27h-2.78v-13h6a5.42,5.42,0,0,1,3.69,1.08,3.69,3.69,0,0,1-1.2,6.21Zm-8.15-7.33H743q2.43,0,2.43-1.86c0-1.19-.74-1.78-2.22-1.78h-3.07Z"/><polygon class="cls-2" points="1312.61 117.64 1016.66 115.96 1411.94 88.83 1097.19 301.74 1157.71 196.84 1154.1 224.93 1312.61 117.64"/><path class="cls-2" d="M1034.56,124.67a42.11,42.11,0,0,1,1.79,9.27c1.79-7.27,4.74-9.27,13.16-9.27,5.27,0,7.58.42,9.37,1.79,2,1.58,2.95,3.37,4,7.48,2.11-7.37,4.95-9.27,13.59-9.27,10.42,0,12.74,2.53,12.74,13.9v56.34h-18.85V147.52c0-5-.95-6.63-3.79-6.63s-3.9,1.79-3.9,6.63v47.39h-18.85V146.36c0-3.79-1.26-5.58-3.89-5.58s-3.79,1.9-3.79,5.79v48.34h-18.85V140.68a60.62,60.62,0,0,0-1.79-16Z"/><path class="cls-2" d="M1114.8,124.67v70.24H1096V124.67Z"/><path class="cls-2" d="M1154.92,139.94h-8.53v55h-18.85v-55H1119V124.67h35.91Z"/><path class="cls-2" d="M1193.56,139.94H1177v12.21h3.37c12.11,0,15.06,3.69,15.06,18.64v4.32c0,8.11-1,13.16-2.85,15.9s-4.21,3.58-8.95,3.79c-1.79,0-1.79,0-7.68.11H1158.5V179.64h17.58V167.42h-2.95c-7.26,0-10.42-1-12.42-4.42-2-3.05-2.53-6.32-2.53-14.85v-4.31c0-8.64,1.47-14.33,4.32-16.75,2.42-2.1,4.63-2.42,14.84-2.42h16.22v15.27Z"/><path class="cls-2" d="M1224.34,140.3a10.91,10.91,0,0,1-3.31,8,10.78,10.78,0,0,1-7.93,3.33,11.32,11.32,0,0,1,0-22.63,10.75,10.75,0,0,1,7.92,3.33A11,11,0,0,1,1224.34,140.3Zm-2,0a9.29,9.29,0,0,0-2.71-6.7,8.74,8.74,0,0,0-6.5-2.79,8.85,8.85,0,0,0-6.58,2.79,9.62,9.62,0,0,0,0,13.42,9,9,0,0,0,13,0A9.23,9.23,0,0,0,1222.32,140.29Zm-3.58,6.52h-2.92l-2.12-5.27h-3.12v5.27h-2.78v-13h6a5.43,5.43,0,0,1,3.7,1.09,3.54,3.54,0,0,1,1.22,2.78,3.49,3.49,0,0,1-2.42,3.43Zm-8.16-7.33h2.87q2.43,0,2.43-1.86c0-1.19-.74-1.78-2.23-1.78h-3.07Z"/><polygon class="cls-2" points="1783.08 117.26 1487.13 115.58 1882.41 88.45 1567.66 301.36 1628.18 196.46 1624.56 224.55 1783.08 117.26"/><path class="cls-2" d="M1505,124.29a42.11,42.11,0,0,1,1.79,9.27c1.79-7.27,4.74-9.27,13.17-9.27,5.26,0,7.58.42,9.37,1.79,2,1.58,3,3.37,4,7.48,2.11-7.37,5-9.27,13.58-9.27,10.43,0,12.75,2.53,12.75,13.9v56.34h-18.85V147.14c0-4.95-.95-6.63-3.79-6.63s-3.9,1.79-3.9,6.63v47.39h-18.85V146c0-3.79-1.26-5.58-3.9-5.58s-3.79,1.9-3.79,5.79v48.34h-18.84V140.3a61,61,0,0,0-1.79-16Z"/><path class="cls-2" d="M1585.26,124.29v70.24h-18.85V124.29Z"/><path class="cls-2" d="M1625.38,139.56h-8.53v55H1598v-55h-8.52V124.29h35.9Z"/><path class="cls-2" d="M1664,139.56H1647.5v12.21h3.37c12.11,0,15.05,3.69,15.05,18.64v4.32c0,8.11-.94,13.16-2.84,15.9s-4.21,3.58-8.95,3.79c-1.79,0-1.79,0-7.69.11H1629V179.26h17.59V167h-3c-7.27,0-10.43-1-12.43-4.42-2-3.05-2.52-6.32-2.52-14.85v-4.32c0-8.63,1.47-14.32,4.31-16.74,2.43-2.1,4.64-2.42,14.85-2.42H1664v15.27Z"/><path class="cls-2" d="M1694.8,139.92a10.94,10.94,0,0,1-3.3,8,11.18,11.18,0,0,1-15.92,0,11.31,11.31,0,0,1,8-19.3,10.72,10.72,0,0,1,7.91,3.33A10.92,10.92,0,0,1,1694.8,139.92Zm-2,0a9.3,9.3,0,0,0-2.72-6.7,8.72,8.72,0,0,0-6.49-2.79,8.84,8.84,0,0,0-6.58,2.79,9.64,9.64,0,0,0,0,13.42,9,9,0,0,0,13.06,0A9.23,9.23,0,0,0,1692.79,139.91Zm-3.58,6.52h-2.93l-2.11-5.27h-3.12v5.27h-2.78v-13h6a5.45,5.45,0,0,1,3.7,1.09,3.54,3.54,0,0,1,1.21,2.78,3.49,3.49,0,0,1-2.41,3.43Zm-8.16-7.33h2.86c1.62,0,2.44-.62,2.44-1.86s-.75-1.78-2.23-1.78h-3.07Z"/><polygon class="cls-2" points="2253.54 116.88 1957.59 115.2 2352.88 88.07 2038.13 300.98 2098.64 196.08 2095.03 224.17 2253.54 116.88"/><path class="cls-2" d="M1975.49,123.91a42.11,42.11,0,0,1,1.79,9.27c1.79-7.27,4.74-9.27,13.16-9.27,5.27,0,7.59.42,9.38,1.79,2,1.58,2.94,3.37,4,7.48,2.1-7.37,5-9.27,13.58-9.27,10.43,0,12.74,2.53,12.74,13.9v56.34h-18.85V146.76c0-4.95-.94-6.63-3.79-6.63s-3.89,1.79-3.89,6.63v47.39h-18.85V145.6c0-3.79-1.27-5.58-3.9-5.58s-3.79,1.9-3.79,5.79v48.34h-18.85V139.92a60.62,60.62,0,0,0-1.79-16Z"/><path class="cls-2" d="M2055.73,123.91v70.24h-18.85V123.91Z"/><path class="cls-2" d="M2095.85,139.18h-8.53v55h-18.85v-55h-8.53V123.91h35.91Z"/><path class="cls-2" d="M2134.49,139.18H2118v12.21h3.37c12.11,0,15.06,3.69,15.06,18.64v4.32c0,8.11-.95,13.16-2.84,15.9s-4.21,3.58-9,3.79c-1.79,0-1.79,0-7.69.11h-17.48V178.88H2117V166.66h-2.94c-7.27,0-10.43-1-12.43-4.42-2-3.05-2.53-6.32-2.53-14.85v-4.32c0-8.63,1.48-14.32,4.32-16.74,2.42-2.1,4.63-2.42,14.85-2.42h16.21v15.27Z"/><path class="cls-2" d="M2165.27,139.54a10.91,10.91,0,0,1-3.31,8,11.17,11.17,0,0,1-15.91,0,11.31,11.31,0,0,1,8-19.3,10.72,10.72,0,0,1,7.92,3.33A11,11,0,0,1,2165.27,139.54Zm-2,0a9.29,9.29,0,0,0-2.71-6.7,8.73,8.73,0,0,0-6.49-2.79,8.87,8.87,0,0,0-6.59,2.79,9.62,9.62,0,0,0,0,13.42,9,9,0,0,0,13.06,0A9.26,9.26,0,0,0,2163.25,139.53Zm-3.58,6.52h-2.92l-2.12-5.27h-3.11v5.27h-2.78V133h6a5.37,5.37,0,0,1,3.69,1.09,3.69,3.69,0,0,1-1.2,6.21Zm-8.15-7.33h2.86q2.43,0,2.43-1.86c0-1.19-.74-1.78-2.22-1.78h-3.07Z"/><polygon class="cls-2" points="2724.01 118.02 2428.06 116.34 2823.34 89.21 2508.59 302.12 2569.11 197.22 2565.5 225.31 2724.01 118.02"/><path class="cls-2" d="M2446,125.05a42.11,42.11,0,0,1,1.79,9.27c1.79-7.27,4.74-9.27,13.16-9.27,5.27,0,7.58.42,9.37,1.79,2,1.58,2.95,3.37,4,7.48,2.11-7.37,4.95-9.27,13.59-9.27,10.42,0,12.74,2.53,12.74,13.9v56.34h-18.85V147.9c0-5-1-6.63-3.79-6.63s-3.9,1.79-3.9,6.63v47.39h-18.85V146.74c0-3.79-1.26-5.58-3.89-5.58s-3.79,1.9-3.79,5.79v48.34h-18.85V141.06a60.62,60.62,0,0,0-1.79-16Z"/><path class="cls-2" d="M2526.2,125.05v70.24h-18.85V125.05Z"/><path class="cls-2" d="M2566.32,140.32h-8.53v55h-18.85v-55h-8.53V125.05h35.91Z"/><path class="cls-2" d="M2605,140.32h-16.53v12.21h3.37c12.11,0,15.06,3.69,15.06,18.64v4.32c0,8.11-1,13.16-2.85,15.9s-4.21,3.58-9,3.79c-1.79,0-1.79,0-7.68.11H2569.9V180h17.58V167.8h-2.95c-7.26,0-10.42-1.05-12.42-4.42-2-3-2.53-6.32-2.53-14.85v-4.31c0-8.64,1.47-14.33,4.32-16.75,2.42-2.1,4.63-2.42,14.84-2.42H2605v15.27Z"/><path class="cls-2" d="M2635.74,140.68a10.91,10.91,0,0,1-3.31,8,10.78,10.78,0,0,1-7.93,3.33,11.32,11.32,0,0,1,0-22.63,10.75,10.75,0,0,1,7.92,3.33A11,11,0,0,1,2635.74,140.68Zm-2,0A9.33,9.33,0,0,0,2631,134a8.74,8.74,0,0,0-6.5-2.79,8.85,8.85,0,0,0-6.58,2.79,9.62,9.62,0,0,0,0,13.42,9,9,0,0,0,13,0A9.23,9.23,0,0,0,2633.72,140.67Zm-3.58,6.52h-2.92l-2.12-5.27H2622v5.27h-2.78v-13h6a5.43,5.43,0,0,1,3.7,1.08,3.54,3.54,0,0,1,1.22,2.78,3.49,3.49,0,0,1-2.42,3.43Zm-8.16-7.33h2.87q2.43,0,2.43-1.86c0-1.19-.74-1.78-2.23-1.78H2622Z"/><polygon class="cls-2" points="3194.47 118.02 2898.53 116.34 3293.81 89.21 2979.06 302.12 3039.58 197.22 3035.96 225.31 3194.47 118.02"/><path class="cls-2" d="M2916.42,125.05a42.11,42.11,0,0,1,1.79,9.27c1.79-7.27,4.74-9.27,13.17-9.27,5.26,0,7.58.42,9.37,1.79,2,1.58,2.95,3.37,4,7.48,2.11-7.37,4.95-9.27,13.58-9.27,10.43,0,12.75,2.53,12.75,13.9v56.34h-18.85V147.9c0-5-.95-6.63-3.79-6.63s-3.9,1.79-3.9,6.63v47.39h-18.85V146.74c0-3.79-1.26-5.58-3.9-5.58s-3.79,1.9-3.79,5.79v48.34h-18.84V141.06a61,61,0,0,0-1.79-16Z"/><path class="cls-2" d="M2996.66,125.05v70.24h-18.85V125.05Z"/><path class="cls-2" d="M3036.78,140.32h-8.53v55H3009.4v-55h-8.52V125.05h35.9Z"/><path class="cls-2" d="M3075.43,140.32H3058.9v12.21h3.37c12.11,0,15.05,3.69,15.05,18.64v4.32c0,8.11-.94,13.16-2.84,15.9s-4.21,3.58-8.95,3.79c-1.79,0-1.79,0-7.69.11h-17.48V180H3058V167.8H3055c-7.27,0-10.43-1.05-12.43-4.42-2-3-2.52-6.32-2.52-14.85v-4.31c0-8.64,1.47-14.33,4.31-16.75,2.43-2.1,4.64-2.42,14.85-2.42h16.22v15.27Z"/><path class="cls-2" d="M3106.2,140.68a10.94,10.94,0,0,1-3.3,8,11.18,11.18,0,0,1-15.92,0,11.31,11.31,0,0,1,8-19.3,10.72,10.72,0,0,1,7.91,3.33A10.92,10.92,0,0,1,3106.2,140.68Zm-2,0a9.3,9.3,0,0,0-2.72-6.7,8.72,8.72,0,0,0-6.49-2.79,8.84,8.84,0,0,0-6.58,2.79,9.64,9.64,0,0,0,0,13.42,9,9,0,0,0,13.06,0A9.23,9.23,0,0,0,3104.19,140.67Zm-3.58,6.52h-2.93l-2.11-5.27h-3.12v5.27h-2.78v-13h6a5.45,5.45,0,0,1,3.7,1.08,3.54,3.54,0,0,1,1.21,2.78,3.48,3.48,0,0,1-2.41,3.43Zm-8.16-7.33h2.86c1.62,0,2.44-.62,2.44-1.86s-.75-1.78-2.23-1.78h-3.07Z"/><polygon class="cls-2" points="3664.94 118.02 3368.99 116.34 3764.28 89.21 3449.53 302.12 3510.04 197.22 3506.43 225.31 3664.94 118.02"/><path class="cls-2" d="M3386.89,125.05a42.11,42.11,0,0,1,1.79,9.27c1.79-7.27,4.74-9.27,13.16-9.27,5.27,0,7.59.42,9.38,1.79,2,1.58,2.94,3.37,4,7.48,2.1-7.37,5-9.27,13.58-9.27,10.43,0,12.74,2.53,12.74,13.9v56.34h-18.85V147.9c0-5-.94-6.63-3.79-6.63s-3.89,1.79-3.89,6.63v47.39h-18.85V146.74c0-3.79-1.27-5.58-3.9-5.58s-3.79,1.9-3.79,5.79v48.34h-18.85V141.06a60.62,60.62,0,0,0-1.79-16Z"/><path class="cls-2" d="M3467.13,125.05v70.24h-18.85V125.05Z"/><path class="cls-2" d="M3507.25,140.32h-8.53v55h-18.85v-55h-8.53V125.05h35.91Z"/><path class="cls-2" d="M3545.89,140.32h-16.53v12.21h3.37c12.11,0,15.06,3.69,15.06,18.64v4.32c0,8.11-.95,13.16-2.84,15.9s-4.21,3.58-8.95,3.79c-1.79,0-1.79,0-7.69.11h-17.48V180h17.58V167.8h-2.94c-7.27,0-10.43-1.05-12.43-4.42-2-3-2.53-6.32-2.53-14.85v-4.31c0-8.64,1.48-14.33,4.32-16.75,2.42-2.1,4.63-2.42,14.85-2.42h16.21v15.27Z"/><path class="cls-2" d="M3576.67,140.68a10.91,10.91,0,0,1-3.31,8,11.17,11.17,0,0,1-15.91,0,11.31,11.31,0,0,1,8-19.3,10.72,10.72,0,0,1,7.92,3.33A11,11,0,0,1,3576.67,140.68Zm-2,0a9.29,9.29,0,0,0-2.71-6.7,8.73,8.73,0,0,0-6.49-2.79,8.87,8.87,0,0,0-6.59,2.79,9.62,9.62,0,0,0,0,13.42,9,9,0,0,0,13.05,0A9.23,9.23,0,0,0,3574.65,140.67Zm-3.58,6.52h-2.92l-2.12-5.27h-3.11v5.27h-2.78v-13h6a5.42,5.42,0,0,1,3.69,1.08,3.69,3.69,0,0,1-1.2,6.21Zm-8.15-7.33h2.86q2.43,0,2.43-1.86c0-1.19-.74-1.78-2.22-1.78h-3.07Z"/><polygon class="cls-2" points="372.83 412.04 76.89 410.36 472.17 383.23 157.42 596.14 217.94 491.23 214.32 519.33 372.83 412.04"/><path class="cls-2" d="M94.78,419.07a42.13,42.13,0,0,1,1.79,9.26c1.79-7.26,4.74-9.26,13.17-9.26,5.26,0,7.58.42,9.37,1.79,2,1.58,3,3.37,4,7.47,2.11-7.37,5-9.26,13.58-9.26,10.43,0,12.75,2.53,12.75,13.9V489.3H130.59V441.92c0-4.95-1-6.64-3.79-6.64s-3.9,1.79-3.9,6.64V489.3H104.05V440.76c0-3.79-1.26-5.58-3.9-5.58s-3.79,1.89-3.79,5.79V489.3H77.52V435.07a60.59,60.59,0,0,0-1.8-16Z"/><path class="cls-2" d="M175,419.07V489.3H156.17V419.07Z"/><path class="cls-2" d="M215.14,434.34h-8.53v55H187.76v-55h-8.52V419.07h35.9Z"/><path class="cls-2" d="M253.79,434.34H237.26v12.21h3.37c12.1,0,15.05,3.69,15.05,18.64v4.32c0,8.11-.94,13.16-2.84,15.9s-4.21,3.58-9,3.79c-1.79,0-1.79,0-7.69.1H218.72V474h17.59V461.82h-2.95c-7.27,0-10.43-1.05-12.43-4.42-2-3.06-2.52-6.32-2.52-14.85v-4.32c0-8.63,1.47-14.32,4.31-16.74,2.43-2.11,4.64-2.42,14.85-2.42h16.22v15.27Z"/><path class="cls-2" d="M284.56,434.7a10.91,10.91,0,0,1-3.3,8,11.16,11.16,0,0,1-15.92,0,11.3,11.3,0,0,1,8-19.29,10.74,10.74,0,0,1,7.91,3.32A10.94,10.94,0,0,1,284.56,434.7Zm-2,0a9.3,9.3,0,0,0-2.72-6.7,8.73,8.73,0,0,0-6.49-2.8,8.84,8.84,0,0,0-6.58,2.79,9.65,9.65,0,0,0,0,13.43,9.06,9.06,0,0,0,13.06,0A9.25,9.25,0,0,0,282.55,434.69ZM279,441.2H276l-2.11-5.26h-3.12v5.26H268v-13h6a5.45,5.45,0,0,1,3.7,1.08,3.56,3.56,0,0,1,1.21,2.79,3.49,3.49,0,0,1-2.41,3.43Zm-8.16-7.33h2.86c1.62,0,2.44-.62,2.44-1.86s-.75-1.78-2.23-1.78h-3.07Z"/><polygon class="cls-2" points="842.14 412.04 546.19 410.36 941.48 383.23 626.73 596.14 687.24 491.23 683.63 519.33 842.14 412.04"/><path class="cls-2" d="M564.09,419.07a42.13,42.13,0,0,1,1.79,9.26c1.79-7.26,4.74-9.26,13.16-9.26,5.27,0,7.59.42,9.38,1.79,2,1.58,2.94,3.37,4,7.47,2.1-7.37,5-9.26,13.58-9.26,10.43,0,12.74,2.53,12.74,13.9V489.3H599.89V441.92c0-4.95-.94-6.64-3.79-6.64s-3.89,1.79-3.89,6.64V489.3H573.36V440.76c0-3.79-1.27-5.58-3.9-5.58s-3.79,1.89-3.79,5.79V489.3H546.82V435.07a60.59,60.59,0,0,0-1.79-16Z"/><path class="cls-2" d="M644.33,419.07V489.3H625.48V419.07Z"/><path class="cls-2" d="M684.45,434.34h-8.53v55H657.07v-55h-8.53V419.07h35.91Z"/><path class="cls-2" d="M723.09,434.34H706.56v12.21h3.37c12.11,0,15.06,3.69,15.06,18.64v4.32c0,8.11-1,13.16-2.84,15.9s-4.21,3.58-8.95,3.79c-1.79,0-1.79,0-7.69.1H688V474h17.58V461.82h-2.94c-7.27,0-10.43-1.05-12.43-4.42-2-3.06-2.53-6.32-2.53-14.85v-4.32c0-8.63,1.48-14.32,4.32-16.74,2.42-2.11,4.63-2.42,14.85-2.42h16.21v15.27Z"/><path class="cls-2" d="M753.87,434.7a10.88,10.88,0,0,1-3.31,8,11.14,11.14,0,0,1-15.91,0,11.3,11.3,0,0,1,8-19.29,10.75,10.75,0,0,1,7.92,3.32A11,11,0,0,1,753.87,434.7Zm-2,0a9.29,9.29,0,0,0-2.71-6.7,8.74,8.74,0,0,0-6.49-2.8,8.87,8.87,0,0,0-6.59,2.79,9.64,9.64,0,0,0,0,13.43,9.06,9.06,0,0,0,13.06,0A9.28,9.28,0,0,0,751.85,434.69Zm-3.58,6.51h-2.92l-2.12-5.26h-3.11v5.26h-2.78v-13h6a5.42,5.42,0,0,1,3.69,1.08,3.53,3.53,0,0,1,1.22,2.79,3.49,3.49,0,0,1-2.42,3.43Zm-8.15-7.33H743q2.43,0,2.43-1.86c0-1.18-.74-1.78-2.22-1.78h-3.07Z"/><polygon class="cls-2" points="1312.61 411.65 1016.66 409.98 1411.94 382.85 1097.19 595.76 1157.71 490.85 1154.1 518.95 1312.61 411.65"/><path class="cls-2" d="M1034.56,418.69a42.13,42.13,0,0,1,1.79,9.26c1.79-7.26,4.74-9.26,13.16-9.26,5.27,0,7.58.42,9.37,1.79,2,1.58,2.95,3.37,4,7.47,2.11-7.37,4.95-9.26,13.59-9.26,10.42,0,12.74,2.52,12.74,13.9v56.33h-18.85V441.54c0-5-.95-6.64-3.79-6.64s-3.9,1.79-3.9,6.64v47.38h-18.85V440.38c0-3.79-1.26-5.58-3.89-5.58s-3.79,1.89-3.79,5.79v48.33h-18.85V434.69a60.59,60.59,0,0,0-1.79-16Z"/><path class="cls-2" d="M1114.8,418.69v70.23H1096V418.69Z"/><path class="cls-2" d="M1154.92,434h-8.53v55h-18.85V434H1119V418.69h35.91Z"/><path class="cls-2" d="M1193.56,434H1177v12.21h3.37c12.11,0,15.06,3.69,15.06,18.64v4.32c0,8.11-1,13.16-2.85,15.9s-4.21,3.58-8.95,3.79c-1.79,0-1.79,0-7.68.1H1158.5V473.65h17.58V461.44h-2.95c-7.26,0-10.42-1.05-12.42-4.42-2-3.06-2.53-6.32-2.53-14.85v-4.32c0-8.63,1.47-14.32,4.32-16.74,2.42-2.11,4.63-2.42,14.84-2.42h16.22V434Z"/><path class="cls-2" d="M1224.34,434.32a10.88,10.88,0,0,1-3.31,8,10.75,10.75,0,0,1-7.93,3.34,11.32,11.32,0,1,1,8-19.31A11,11,0,0,1,1224.34,434.32Zm-2,0a9.28,9.28,0,0,0-2.71-6.69,8.75,8.75,0,0,0-6.5-2.8,8.85,8.85,0,0,0-6.58,2.79,9.64,9.64,0,0,0,0,13.43,9,9,0,0,0,13,0A9.25,9.25,0,0,0,1222.32,434.3Zm-3.58,6.52h-2.92l-2.12-5.26h-3.12v5.26h-2.78v-13h6a5.43,5.43,0,0,1,3.7,1.08,3.56,3.56,0,0,1,1.22,2.79,3.5,3.5,0,0,1-2.42,3.43Zm-8.16-7.33h2.87q2.43,0,2.43-1.86c0-1.18-.74-1.78-2.23-1.78h-3.07Z"/><polygon class="cls-2" points="1783.08 411.27 1487.13 409.6 1882.41 382.47 1567.66 595.38 1628.18 490.47 1624.56 518.57 1783.08 411.27"/><path class="cls-2" d="M1505,418.31a42.13,42.13,0,0,1,1.79,9.26c1.79-7.26,4.74-9.26,13.17-9.26,5.26,0,7.58.42,9.37,1.79,2,1.58,3,3.37,4,7.47,2.11-7.37,5-9.26,13.58-9.26,10.43,0,12.75,2.52,12.75,13.9v56.33h-18.85V441.16c0-5-.95-6.64-3.79-6.64s-3.9,1.79-3.9,6.64v47.38h-18.85V440c0-3.79-1.26-5.58-3.9-5.58s-3.79,1.89-3.79,5.79v48.33h-18.84V434.31a61,61,0,0,0-1.79-16Z"/><path class="cls-2" d="M1585.26,418.31v70.23h-18.85V418.31Z"/><path class="cls-2" d="M1625.38,433.58h-8.53v55H1598v-55h-8.52V418.31h35.9Z"/><path class="cls-2" d="M1664,433.58H1647.5v12.21h3.37c12.11,0,15.05,3.69,15.05,18.64v4.32c0,8.11-.94,13.16-2.84,15.9s-4.21,3.58-8.95,3.79c-1.79,0-1.79,0-7.69.1H1629V473.27h17.59V461.06h-3c-7.27,0-10.43-1.05-12.43-4.42-2-3.06-2.52-6.32-2.52-14.85v-4.32c0-8.63,1.47-14.32,4.31-16.74,2.43-2.11,4.64-2.42,14.85-2.42H1664v15.27Z"/><path class="cls-2" d="M1694.8,433.94a10.91,10.91,0,0,1-3.3,8,11.18,11.18,0,0,1-15.92,0,11.3,11.3,0,0,1,8-19.29,10.74,10.74,0,0,1,7.91,3.32A10.94,10.94,0,0,1,1694.8,433.94Zm-2,0a9.29,9.29,0,0,0-2.72-6.69,8.73,8.73,0,0,0-6.49-2.8,8.84,8.84,0,0,0-6.58,2.79,9.65,9.65,0,0,0,0,13.43,9.06,9.06,0,0,0,13.06,0A9.25,9.25,0,0,0,1692.79,433.92Zm-3.58,6.52h-2.93l-2.11-5.26h-3.12v5.26h-2.78v-13h6a5.45,5.45,0,0,1,3.7,1.08,3.55,3.55,0,0,1,1.21,2.78,3.49,3.49,0,0,1-2.41,3.44Zm-8.16-7.33h2.86c1.62,0,2.44-.62,2.44-1.86s-.75-1.78-2.23-1.78h-3.07Z"/><polygon class="cls-2" points="2253.54 410.89 1957.59 409.22 2352.88 382.09 2038.13 595 2098.64 490.09 2095.03 518.19 2253.54 410.89"/><path class="cls-2" d="M1975.49,417.93a42.13,42.13,0,0,1,1.79,9.26c1.79-7.26,4.74-9.26,13.16-9.26,5.27,0,7.59.42,9.38,1.79,2,1.58,2.94,3.37,4,7.47,2.1-7.37,5-9.26,13.58-9.26,10.43,0,12.74,2.52,12.74,13.9v56.33h-18.85V440.78c0-4.95-.94-6.64-3.79-6.64s-3.89,1.79-3.89,6.64v47.38h-18.85V439.62c0-3.79-1.27-5.58-3.9-5.58s-3.79,1.89-3.79,5.79v48.33h-18.85V433.93a60.59,60.59,0,0,0-1.79-16Z"/><path class="cls-2" d="M2055.73,417.93v70.23h-18.85V417.93Z"/><path class="cls-2" d="M2095.85,433.2h-8.53v55h-18.85v-55h-8.53V417.93h35.91Z"/><path class="cls-2" d="M2134.49,433.2H2118v12.21h3.37c12.11,0,15.06,3.69,15.06,18.64v4.32c0,8.1-.95,13.16-2.84,15.9s-4.21,3.58-9,3.79c-1.79,0-1.79,0-7.69.1h-17.48V472.89H2117V460.68h-2.94c-7.27,0-10.43-1.05-12.43-4.42-2-3.06-2.53-6.32-2.53-14.85v-4.32c0-8.63,1.48-14.32,4.32-16.74,2.42-2.11,4.63-2.42,14.85-2.42h16.21V433.2Z"/><path class="cls-2" d="M2165.27,433.56a10.88,10.88,0,0,1-3.31,8,11.17,11.17,0,0,1-15.91,0,11.3,11.3,0,0,1,8-19.29,10.75,10.75,0,0,1,7.92,3.32A11,11,0,0,1,2165.27,433.56Zm-2,0a9.28,9.28,0,0,0-2.71-6.69,8.71,8.71,0,0,0-6.49-2.8,8.87,8.87,0,0,0-6.59,2.79,9.64,9.64,0,0,0,0,13.43,9.06,9.06,0,0,0,13.06,0A9.3,9.3,0,0,0,2163.25,433.54Zm-3.58,6.52h-2.92l-2.12-5.26h-3.11v5.26h-2.78V427h6a5.42,5.42,0,0,1,3.69,1.08,3.7,3.7,0,0,1-1.2,6.22Zm-8.15-7.33h2.86q2.43,0,2.43-1.86c0-1.18-.74-1.78-2.22-1.78h-3.07Z"/><polygon class="cls-2" points="2724.01 412.04 2428.06 410.36 2823.34 383.23 2508.59 596.14 2569.11 491.23 2565.5 519.33 2724.01 412.04"/><path class="cls-2" d="M2446,419.07a42.13,42.13,0,0,1,1.79,9.26c1.79-7.26,4.74-9.26,13.16-9.26,5.27,0,7.58.42,9.37,1.79,2,1.58,2.95,3.37,4,7.47,2.11-7.37,4.95-9.26,13.59-9.26,10.42,0,12.74,2.53,12.74,13.9V489.3h-18.85V441.92c0-4.95-1-6.64-3.79-6.64s-3.9,1.79-3.9,6.64V489.3h-18.85V440.76c0-3.79-1.26-5.58-3.89-5.58s-3.79,1.89-3.79,5.79V489.3h-18.85V435.07a60.59,60.59,0,0,0-1.79-16Z"/><path class="cls-2" d="M2526.2,419.07V489.3h-18.85V419.07Z"/><path class="cls-2" d="M2566.32,434.34h-8.53v55h-18.85v-55h-8.53V419.07h35.91Z"/><path class="cls-2" d="M2605,434.34h-16.53v12.21h3.37c12.11,0,15.06,3.69,15.06,18.64v4.32c0,8.11-1,13.16-2.85,15.9s-4.21,3.58-9,3.79c-1.79,0-1.79,0-7.68.1H2569.9V474h17.58V461.82h-2.95c-7.26,0-10.42-1.05-12.42-4.42-2-3.06-2.53-6.32-2.53-14.85v-4.32c0-8.63,1.47-14.32,4.32-16.74,2.42-2.11,4.63-2.42,14.84-2.42H2605v15.27Z"/><path class="cls-2" d="M2635.74,434.7a10.88,10.88,0,0,1-3.31,8,10.75,10.75,0,0,1-7.93,3.34,11.32,11.32,0,1,1,7.95-19.31A11,11,0,0,1,2635.74,434.7Zm-2,0A9.33,9.33,0,0,0,2631,428a8.75,8.75,0,0,0-6.5-2.8,8.85,8.85,0,0,0-6.58,2.79,9.64,9.64,0,0,0,0,13.43,9,9,0,0,0,13,0A9.25,9.25,0,0,0,2633.72,434.69Zm-3.58,6.51h-2.92l-2.12-5.26H2622v5.26h-2.78v-13h6a5.43,5.43,0,0,1,3.7,1.08,3.56,3.56,0,0,1,1.22,2.79,3.5,3.5,0,0,1-2.42,3.43Zm-8.16-7.33h2.87q2.43,0,2.43-1.86c0-1.18-.74-1.78-2.23-1.78H2622Z"/><polygon class="cls-2" points="3194.47 412.04 2898.53 410.36 3293.81 383.23 2979.06 596.14 3039.58 491.23 3035.96 519.33 3194.47 412.04"/><path class="cls-2" d="M2916.42,419.07a42.13,42.13,0,0,1,1.79,9.26c1.79-7.26,4.74-9.26,13.17-9.26,5.26,0,7.58.42,9.37,1.79,2,1.58,2.95,3.37,4,7.47,2.11-7.37,4.95-9.26,13.58-9.26,10.43,0,12.75,2.53,12.75,13.9V489.3h-18.85V441.92c0-4.95-.95-6.64-3.79-6.64s-3.9,1.79-3.9,6.64V489.3h-18.85V440.76c0-3.79-1.26-5.58-3.9-5.58S2918,437.07,2918,441V489.3h-18.84V435.07a61,61,0,0,0-1.79-16Z"/><path class="cls-2" d="M2996.66,419.07V489.3h-18.85V419.07Z"/><path class="cls-2" d="M3036.78,434.34h-8.53v55H3009.4v-55h-8.52V419.07h35.9Z"/><path class="cls-2" d="M3075.43,434.34H3058.9v12.21h3.37c12.11,0,15.05,3.69,15.05,18.64v4.32c0,8.11-.94,13.16-2.84,15.9s-4.21,3.58-8.95,3.79c-1.79,0-1.79,0-7.69.1h-17.48V474H3058V461.82H3055c-7.27,0-10.43-1.05-12.43-4.42-2-3.06-2.52-6.32-2.52-14.85v-4.32c0-8.63,1.47-14.32,4.31-16.74,2.43-2.11,4.64-2.42,14.85-2.42h16.22v15.27Z"/><path class="cls-2" d="M3106.2,434.7a10.91,10.91,0,0,1-3.3,8,11.16,11.16,0,0,1-15.92,0,11.3,11.3,0,0,1,8-19.29,10.74,10.74,0,0,1,7.91,3.32A10.94,10.94,0,0,1,3106.2,434.7Zm-2,0a9.3,9.3,0,0,0-2.72-6.7,8.73,8.73,0,0,0-6.49-2.8,8.84,8.84,0,0,0-6.58,2.79,9.65,9.65,0,0,0,0,13.43,9.06,9.06,0,0,0,13.06,0A9.25,9.25,0,0,0,3104.19,434.69Zm-3.58,6.51h-2.93l-2.11-5.26h-3.12v5.26h-2.78v-13h6a5.45,5.45,0,0,1,3.7,1.08,3.56,3.56,0,0,1,1.21,2.79,3.49,3.49,0,0,1-2.41,3.43Zm-8.16-7.33h2.86c1.62,0,2.44-.62,2.44-1.86s-.75-1.78-2.23-1.78h-3.07Z"/><polygon class="cls-2" points="3664.94 412.04 3368.99 410.36 3764.28 383.23 3449.53 596.14 3510.04 491.23 3506.43 519.33 3664.94 412.04"/><path class="cls-2" d="M3386.89,419.07a42.13,42.13,0,0,1,1.79,9.26c1.79-7.26,4.74-9.26,13.16-9.26,5.27,0,7.59.42,9.38,1.79,2,1.58,2.94,3.37,4,7.47,2.1-7.37,5-9.26,13.58-9.26,10.43,0,12.74,2.53,12.74,13.9V489.3h-18.85V441.92c0-4.95-.94-6.64-3.79-6.64s-3.89,1.79-3.89,6.64V489.3h-18.85V440.76c0-3.79-1.27-5.58-3.9-5.58s-3.79,1.89-3.79,5.79V489.3h-18.85V435.07a60.59,60.59,0,0,0-1.79-16Z"/><path class="cls-2" d="M3467.13,419.07V489.3h-18.85V419.07Z"/><path class="cls-2" d="M3507.25,434.34h-8.53v55h-18.85v-55h-8.53V419.07h35.91Z"/><path class="cls-2" d="M3545.89,434.34h-16.53v12.21h3.37c12.11,0,15.06,3.69,15.06,18.64v4.32c0,8.11-.95,13.16-2.84,15.9s-4.21,3.58-8.95,3.79c-1.79,0-1.79,0-7.69.1h-17.48V474h17.58V461.82h-2.94c-7.27,0-10.43-1.05-12.43-4.42-2-3.06-2.53-6.32-2.53-14.85v-4.32c0-8.63,1.48-14.32,4.32-16.74,2.42-2.11,4.63-2.42,14.85-2.42h16.21v15.27Z"/><path class="cls-2" d="M3576.67,434.7a10.88,10.88,0,0,1-3.31,8,11.14,11.14,0,0,1-15.91,0,11.3,11.3,0,0,1,8-19.29,10.75,10.75,0,0,1,7.92,3.32A11,11,0,0,1,3576.67,434.7Zm-2,0a9.29,9.29,0,0,0-2.71-6.7,8.74,8.74,0,0,0-6.49-2.8,8.87,8.87,0,0,0-6.59,2.79,9.64,9.64,0,0,0,0,13.43,9,9,0,0,0,13.05,0A9.25,9.25,0,0,0,3574.65,434.69Zm-3.58,6.51h-2.92l-2.12-5.26h-3.11v5.26h-2.78v-13h6a5.42,5.42,0,0,1,3.69,1.08,3.7,3.7,0,0,1-1.2,6.22Zm-8.15-7.33h2.86q2.43,0,2.43-1.86c0-1.18-.74-1.78-2.22-1.78h-3.07Z"/><polygon class="cls-2" points="372.83 706.05 76.89 704.38 472.17 677.25 157.42 890.16 217.94 785.25 214.32 813.35 372.83 706.05"/><path class="cls-2" d="M94.78,713.08a42.22,42.22,0,0,1,1.79,9.27c1.79-7.26,4.74-9.27,13.17-9.27,5.26,0,7.58.43,9.37,1.79,2,1.58,3,3.37,4,7.48,2.11-7.37,5-9.27,13.58-9.27,10.43,0,12.75,2.53,12.75,13.9v56.34H130.59V735.94c0-5-1-6.64-3.79-6.64s-3.9,1.79-3.9,6.64v47.38H104.05V734.78c0-3.79-1.26-5.58-3.9-5.58s-3.79,1.89-3.79,5.79v48.33H77.52V729.09a60.71,60.71,0,0,0-1.8-16Z"/><path class="cls-2" d="M175,713.08v70.24H156.17V713.08Z"/><path class="cls-2" d="M215.14,728.35h-8.53v55H187.76v-55h-8.52V713.08h35.9Z"/><path class="cls-2" d="M253.79,728.35H237.26v12.22h3.37c12.1,0,15.05,3.68,15.05,18.64v4.31c0,8.11-.94,13.17-2.84,15.9s-4.21,3.59-9,3.8c-1.79,0-1.79,0-7.69.1H218.72V768.05h17.59V755.84h-2.95c-7.27,0-10.43-1.06-12.43-4.43-2-3-2.52-6.31-2.52-14.84v-4.32c0-8.64,1.47-14.32,4.31-16.74,2.43-2.11,4.64-2.43,14.85-2.43h16.22v15.27Z"/><path class="cls-2" d="M284.56,728.72a10.93,10.93,0,0,1-3.3,8,11.18,11.18,0,0,1-15.92,0,11.3,11.3,0,0,1,8-19.29,10.71,10.71,0,0,1,7.91,3.32A10.94,10.94,0,0,1,284.56,728.72Zm-2,0a9.26,9.26,0,0,0-2.72-6.69,8.69,8.69,0,0,0-6.49-2.8,8.84,8.84,0,0,0-6.58,2.79,9.65,9.65,0,0,0,0,13.43,9.06,9.06,0,0,0,13.06,0A9.27,9.27,0,0,0,282.55,728.7ZM279,735.22H276L273.93,730h-3.12v5.26H268v-13h6a5.45,5.45,0,0,1,3.7,1.08,3.55,3.55,0,0,1,1.21,2.78,3.5,3.5,0,0,1-2.41,3.44Zm-8.16-7.33h2.86c1.62,0,2.44-.62,2.44-1.86s-.75-1.78-2.23-1.78h-3.07Z"/><polygon class="cls-2" points="842.14 706.05 546.19 704.38 941.48 677.25 626.73 890.16 687.24 785.25 683.63 813.35 842.14 706.05"/><path class="cls-2" d="M564.09,713.08a42.22,42.22,0,0,1,1.79,9.27c1.79-7.26,4.74-9.27,13.16-9.27,5.27,0,7.59.43,9.38,1.79,2,1.58,2.94,3.37,4,7.48,2.1-7.37,5-9.27,13.58-9.27,10.43,0,12.74,2.53,12.74,13.9v56.34H599.89V735.94c0-5-.94-6.64-3.79-6.64s-3.89,1.79-3.89,6.64v47.38H573.36V734.78c0-3.79-1.27-5.58-3.9-5.58s-3.79,1.89-3.79,5.79v48.33H546.82V729.09a60.72,60.72,0,0,0-1.79-16Z"/><path class="cls-2" d="M644.33,713.08v70.24H625.48V713.08Z"/><path class="cls-2" d="M684.45,728.35h-8.53v55H657.07v-55h-8.53V713.08h35.91Z"/><path class="cls-2" d="M723.09,728.35H706.56v12.22h3.37c12.11,0,15.06,3.68,15.06,18.64v4.31c0,8.11-1,13.17-2.84,15.9s-4.21,3.59-8.95,3.8c-1.79,0-1.79,0-7.69.1H688V768.05h17.58V755.84h-2.94c-7.27,0-10.43-1.06-12.43-4.43-2-3-2.53-6.31-2.53-14.84v-4.32c0-8.64,1.48-14.32,4.32-16.74,2.42-2.11,4.63-2.43,14.85-2.43h16.21v15.27Z"/><path class="cls-2" d="M753.87,728.72a10.9,10.9,0,0,1-3.31,8,11.17,11.17,0,0,1-15.91,0,11.3,11.3,0,0,1,8-19.29,10.71,10.71,0,0,1,7.92,3.32A11,11,0,0,1,753.87,728.72Zm-2,0a9.25,9.25,0,0,0-2.71-6.69,8.71,8.71,0,0,0-6.49-2.8,8.87,8.87,0,0,0-6.59,2.79,9.64,9.64,0,0,0,0,13.43,9.06,9.06,0,0,0,13.06,0A9.3,9.3,0,0,0,751.85,728.7Zm-3.58,6.52h-2.92L743.23,730h-3.11v5.26h-2.78v-13h6a5.42,5.42,0,0,1,3.69,1.08,3.7,3.7,0,0,1-1.2,6.22Zm-8.15-7.33H743q2.43,0,2.43-1.86c0-1.19-.74-1.78-2.22-1.78h-3.07Z"/><polygon class="cls-2" points="1312.61 705.67 1016.66 703.99 1411.94 676.86 1097.19 889.78 1157.71 784.87 1154.1 812.97 1312.61 705.67"/><path class="cls-2" d="M1034.56,712.7a42.22,42.22,0,0,1,1.79,9.27c1.79-7.27,4.74-9.27,13.16-9.27,5.27,0,7.58.43,9.37,1.79,2,1.58,2.95,3.37,4,7.48,2.11-7.37,4.95-9.27,13.59-9.27,10.42,0,12.74,2.53,12.74,13.9v56.34h-18.85V735.55c0-4.94-.95-6.63-3.79-6.63s-3.9,1.79-3.9,6.63v47.39h-18.85V734.4c0-3.79-1.26-5.58-3.89-5.58s-3.79,1.89-3.79,5.79v48.33h-18.85V728.71a60.72,60.72,0,0,0-1.79-16Z"/><path class="cls-2" d="M1114.8,712.7v70.24H1096V712.7Z"/><path class="cls-2" d="M1154.92,728h-8.53v55h-18.85V728H1119V712.7h35.91Z"/><path class="cls-2" d="M1193.56,728H1177v12.22h3.37c12.11,0,15.06,3.68,15.06,18.64v4.31c0,8.11-1,13.17-2.85,15.9s-4.21,3.58-8.95,3.8c-1.79,0-1.79,0-7.68.1H1158.5V767.67h17.58V755.46h-2.95c-7.26,0-10.42-1.06-12.42-4.43-2-3-2.53-6.31-2.53-14.84v-4.32c0-8.64,1.47-14.32,4.32-16.74,2.42-2.11,4.63-2.43,14.84-2.43h16.22V728Z"/><path class="cls-2" d="M1224.34,728.34a10.9,10.9,0,0,1-3.31,8,10.78,10.78,0,0,1-7.93,3.33,11.31,11.31,0,1,1,0-22.62,10.74,10.74,0,0,1,7.92,3.32A11,11,0,0,1,1224.34,728.34Zm-2,0a9.25,9.25,0,0,0-2.71-6.69,8.71,8.71,0,0,0-6.5-2.8,8.85,8.85,0,0,0-6.58,2.79,9.64,9.64,0,0,0,0,13.43,9,9,0,0,0,13,0A9.27,9.27,0,0,0,1222.32,728.32Zm-3.58,6.52h-2.92l-2.12-5.26h-3.12v5.26h-2.78v-13h6a5.43,5.43,0,0,1,3.7,1.08,3.56,3.56,0,0,1,1.22,2.78,3.51,3.51,0,0,1-2.42,3.44Zm-8.16-7.33h2.87q2.43,0,2.43-1.86c0-1.19-.74-1.78-2.23-1.78h-3.07Z"/><polygon class="cls-2" points="1783.08 705.29 1487.13 703.61 1882.41 676.48 1567.66 889.4 1628.18 784.49 1624.56 812.59 1783.08 705.29"/><path class="cls-2" d="M1505,712.32a42.22,42.22,0,0,1,1.79,9.27c1.79-7.27,4.74-9.27,13.17-9.27,5.26,0,7.58.43,9.37,1.79,2,1.58,3,3.37,4,7.48,2.11-7.37,5-9.27,13.58-9.27,10.43,0,12.75,2.53,12.75,13.9v56.34h-18.85V735.17c0-4.95-.95-6.63-3.79-6.63s-3.9,1.79-3.9,6.63v47.39h-18.85V734c0-3.79-1.26-5.58-3.9-5.58s-3.79,1.89-3.79,5.79v48.33h-18.84V728.33a61.14,61.14,0,0,0-1.79-16Z"/><path class="cls-2" d="M1585.26,712.32v70.24h-18.85V712.32Z"/><path class="cls-2" d="M1625.38,727.59h-8.53v55H1598v-55h-8.52V712.32h35.9Z"/><path class="cls-2" d="M1664,727.59H1647.5v12.22h3.37c12.11,0,15.05,3.68,15.05,18.64v4.31c0,8.11-.94,13.17-2.84,15.9s-4.21,3.58-8.95,3.79c-1.79,0-1.79,0-7.69.11H1629V767.29h17.59V755.08h-3c-7.27,0-10.43-1.06-12.43-4.43-2-3-2.52-6.31-2.52-14.84v-4.32c0-8.64,1.47-14.32,4.31-16.74,2.43-2.11,4.64-2.43,14.85-2.43H1664v15.27Z"/><path class="cls-2" d="M1694.8,728a10.93,10.93,0,0,1-3.3,8,11.18,11.18,0,0,1-15.92,0,11.3,11.3,0,0,1,8-19.29,10.71,10.71,0,0,1,7.91,3.32A10.92,10.92,0,0,1,1694.8,728Zm-2,0a9.26,9.26,0,0,0-2.72-6.69,8.69,8.69,0,0,0-6.49-2.8,8.84,8.84,0,0,0-6.58,2.79,9.65,9.65,0,0,0,0,13.43,9.06,9.06,0,0,0,13.06,0A9.27,9.27,0,0,0,1692.79,727.94Zm-3.58,6.52h-2.93l-2.11-5.26h-3.12v5.26h-2.78v-13h6a5.45,5.45,0,0,1,3.7,1.08,3.55,3.55,0,0,1,1.21,2.78,3.5,3.5,0,0,1-2.41,3.44Zm-8.16-7.33h2.86c1.62,0,2.44-.62,2.44-1.86s-.75-1.78-2.23-1.78h-3.07Z"/><polygon class="cls-2" points="2253.54 704.91 1957.59 703.23 2352.88 676.1 2038.13 889.02 2098.64 784.11 2095.03 812.21 2253.54 704.91"/><path class="cls-2" d="M1975.49,711.94a42.22,42.22,0,0,1,1.79,9.27c1.79-7.27,4.74-9.27,13.16-9.27,5.27,0,7.59.42,9.38,1.79,2,1.58,2.94,3.37,4,7.48,2.1-7.37,5-9.27,13.58-9.27,10.43,0,12.74,2.53,12.74,13.9v56.34h-18.85V734.79c0-4.95-.94-6.63-3.79-6.63s-3.89,1.79-3.89,6.63v47.39h-18.85V733.64c0-3.8-1.27-5.59-3.9-5.59s-3.79,1.9-3.79,5.8v48.33h-18.85V728a60.72,60.72,0,0,0-1.79-16Z"/><path class="cls-2" d="M2055.73,711.94v70.24h-18.85V711.94Z"/><path class="cls-2" d="M2095.85,727.21h-8.53v55h-18.85v-55h-8.53V711.94h35.91Z"/><path class="cls-2" d="M2134.49,727.21H2118v12.22h3.37c12.11,0,15.06,3.68,15.06,18.64v4.31c0,8.11-.95,13.17-2.84,15.9s-4.21,3.58-9,3.79c-1.79,0-1.79,0-7.69.11h-17.48V766.91H2117V754.7h-2.94c-7.27,0-10.43-1.06-12.43-4.43-2-3-2.53-6.32-2.53-14.84v-4.32c0-8.64,1.48-14.32,4.32-16.75,2.42-2.1,4.63-2.42,14.85-2.42h16.21v15.27Z"/><path class="cls-2" d="M2165.27,727.58a10.9,10.9,0,0,1-3.31,8,11.17,11.17,0,0,1-15.91,0,11.3,11.3,0,0,1,8-19.29,10.71,10.71,0,0,1,7.92,3.32A11,11,0,0,1,2165.27,727.58Zm-2,0a9.25,9.25,0,0,0-2.71-6.69,8.71,8.71,0,0,0-6.49-2.8,8.87,8.87,0,0,0-6.59,2.79,9.64,9.64,0,0,0,0,13.43,9.06,9.06,0,0,0,13.06,0A9.3,9.3,0,0,0,2163.25,727.56Zm-3.58,6.52h-2.92l-2.12-5.26h-3.11v5.26h-2.78v-13h6a5.42,5.42,0,0,1,3.69,1.08,3.7,3.7,0,0,1-1.2,6.22Zm-8.15-7.33h2.86q2.43,0,2.43-1.86c0-1.19-.74-1.78-2.22-1.78h-3.07Z"/><polygon class="cls-2" points="2724.01 706.05 2428.06 704.38 2823.34 677.25 2508.59 890.16 2569.11 785.25 2565.5 813.35 2724.01 706.05"/><path class="cls-2" d="M2446,713.08a42.22,42.22,0,0,1,1.79,9.27c1.79-7.26,4.74-9.27,13.16-9.27,5.27,0,7.58.43,9.37,1.79,2,1.58,2.95,3.37,4,7.48,2.11-7.37,4.95-9.27,13.59-9.27,10.42,0,12.74,2.53,12.74,13.9v56.34h-18.85V735.94c0-5-1-6.64-3.79-6.64s-3.9,1.79-3.9,6.64v47.38h-18.85V734.78c0-3.79-1.26-5.58-3.89-5.58s-3.79,1.89-3.79,5.79v48.33h-18.85V729.09a60.72,60.72,0,0,0-1.79-16Z"/><path class="cls-2" d="M2526.2,713.08v70.24h-18.85V713.08Z"/><path class="cls-2" d="M2566.32,728.35h-8.53v55h-18.85v-55h-8.53V713.08h35.91Z"/><path class="cls-2" d="M2605,728.35h-16.53v12.22h3.37c12.11,0,15.06,3.68,15.06,18.64v4.31c0,8.11-1,13.17-2.85,15.9s-4.21,3.59-9,3.8c-1.79,0-1.79,0-7.68.1H2569.9V768.05h17.58V755.84h-2.95c-7.26,0-10.42-1.06-12.42-4.43-2-3-2.53-6.31-2.53-14.84v-4.32c0-8.64,1.47-14.32,4.32-16.74,2.42-2.11,4.63-2.43,14.84-2.43H2605v15.27Z"/><path class="cls-2" d="M2635.74,728.72a10.9,10.9,0,0,1-3.31,8,10.78,10.78,0,0,1-7.93,3.33,11.31,11.31,0,1,1,0-22.62,10.74,10.74,0,0,1,7.92,3.32A11,11,0,0,1,2635.74,728.72Zm-2,0A9.29,9.29,0,0,0,2631,722a8.71,8.71,0,0,0-6.5-2.8,8.85,8.85,0,0,0-6.58,2.79,9.64,9.64,0,0,0,0,13.43,9,9,0,0,0,13,0A9.27,9.27,0,0,0,2633.72,728.7Zm-3.58,6.52h-2.92L2625.1,730H2622v5.26h-2.78v-13h6a5.43,5.43,0,0,1,3.7,1.08,3.56,3.56,0,0,1,1.22,2.78,3.51,3.51,0,0,1-2.42,3.44Zm-8.16-7.33h2.87q2.43,0,2.43-1.86c0-1.19-.74-1.78-2.23-1.78H2622Z"/><polygon class="cls-2" points="3194.47 706.05 2898.53 704.38 3293.81 677.25 2979.06 890.16 3039.58 785.25 3035.96 813.35 3194.47 706.05"/><path class="cls-2" d="M2916.42,713.08a42.22,42.22,0,0,1,1.79,9.27c1.79-7.26,4.74-9.27,13.17-9.27,5.26,0,7.58.43,9.37,1.79,2,1.58,2.95,3.37,4,7.48,2.11-7.37,4.95-9.27,13.58-9.27,10.43,0,12.75,2.53,12.75,13.9v56.34h-18.85V735.94c0-5-.95-6.64-3.79-6.64s-3.9,1.79-3.9,6.64v47.38h-18.85V734.78c0-3.79-1.26-5.58-3.9-5.58S2918,731.09,2918,735v48.33h-18.84V729.09a61.14,61.14,0,0,0-1.79-16Z"/><path class="cls-2" d="M2996.66,713.08v70.24h-18.85V713.08Z"/><path class="cls-2" d="M3036.78,728.35h-8.53v55H3009.4v-55h-8.52V713.08h35.9Z"/><path class="cls-2" d="M3075.43,728.35H3058.9v12.22h3.37c12.11,0,15.05,3.68,15.05,18.64v4.31c0,8.11-.94,13.17-2.84,15.9s-4.21,3.59-8.95,3.8c-1.79,0-1.79,0-7.69.1h-17.48V768.05H3058V755.84H3055c-7.27,0-10.43-1.06-12.43-4.43-2-3-2.52-6.31-2.52-14.84v-4.32c0-8.64,1.47-14.32,4.31-16.74,2.43-2.11,4.64-2.43,14.85-2.43h16.22v15.27Z"/><path class="cls-2" d="M3106.2,728.72a10.93,10.93,0,0,1-3.3,8,11.18,11.18,0,0,1-15.92,0,11.3,11.3,0,0,1,8-19.29,10.71,10.71,0,0,1,7.91,3.32A10.94,10.94,0,0,1,3106.2,728.72Zm-2,0a9.26,9.26,0,0,0-2.72-6.69,8.69,8.69,0,0,0-6.49-2.8,8.84,8.84,0,0,0-6.58,2.79,9.65,9.65,0,0,0,0,13.43,9.06,9.06,0,0,0,13.06,0A9.27,9.27,0,0,0,3104.19,728.7Zm-3.58,6.52h-2.93l-2.11-5.26h-3.12v5.26h-2.78v-13h6a5.45,5.45,0,0,1,3.7,1.08,3.55,3.55,0,0,1,1.21,2.78,3.5,3.5,0,0,1-2.41,3.44Zm-8.16-7.33h2.86c1.62,0,2.44-.62,2.44-1.86s-.75-1.78-2.23-1.78h-3.07Z"/><polygon class="cls-2" points="3664.94 706.05 3368.99 704.38 3764.28 677.25 3449.53 890.16 3510.04 785.25 3506.43 813.35 3664.94 706.05"/><path class="cls-2" d="M3386.89,713.08a42.22,42.22,0,0,1,1.79,9.27c1.79-7.26,4.74-9.27,13.16-9.27,5.27,0,7.59.43,9.38,1.79,2,1.58,2.94,3.37,4,7.48,2.1-7.37,5-9.27,13.58-9.27,10.43,0,12.74,2.53,12.74,13.9v56.34h-18.85V735.94c0-5-.94-6.64-3.79-6.64s-3.89,1.79-3.89,6.64v47.38h-18.85V734.78c0-3.79-1.27-5.58-3.9-5.58s-3.79,1.89-3.79,5.79v48.33h-18.85V729.09a60.72,60.72,0,0,0-1.79-16Z"/><path class="cls-2" d="M3467.13,713.08v70.24h-18.85V713.08Z"/><path class="cls-2" d="M3507.25,728.35h-8.53v55h-18.85v-55h-8.53V713.08h35.91Z"/><path class="cls-2" d="M3545.89,728.35h-16.53v12.22h3.37c12.11,0,15.06,3.68,15.06,18.64v4.31c0,8.11-.95,13.17-2.84,15.9s-4.21,3.59-8.95,3.8c-1.79,0-1.79,0-7.69.1h-17.48V768.05h17.58V755.84h-2.94c-7.27,0-10.43-1.06-12.43-4.43-2-3-2.53-6.31-2.53-14.84v-4.32c0-8.64,1.48-14.32,4.32-16.74,2.42-2.11,4.63-2.43,14.85-2.43h16.21v15.27Z"/><path class="cls-2" d="M3576.67,728.72a10.9,10.9,0,0,1-3.31,8,11.17,11.17,0,0,1-15.91,0,11.3,11.3,0,0,1,8-19.29,10.71,10.71,0,0,1,7.92,3.32A11,11,0,0,1,3576.67,728.72Zm-2,0a9.25,9.25,0,0,0-2.71-6.69,8.71,8.71,0,0,0-6.49-2.8,8.87,8.87,0,0,0-6.59,2.79,9.64,9.64,0,0,0,0,13.43,9,9,0,0,0,13.05,0A9.27,9.27,0,0,0,3574.65,728.7Zm-3.58,6.52h-2.92L3566,730h-3.11v5.26h-2.78v-13h6a5.42,5.42,0,0,1,3.69,1.08,3.7,3.7,0,0,1-1.2,6.22Zm-8.15-7.33h2.86q2.43,0,2.43-1.86c0-1.19-.74-1.78-2.22-1.78h-3.07Z"/><polygon class="cls-2" points="372.83 1001.21 76.89 999.53 472.17 972.4 157.42 1185.32 217.94 1080.41 214.32 1108.51 372.83 1001.21"/><path class="cls-2" d="M94.78,1008.24a42.11,42.11,0,0,1,1.79,9.27c1.79-7.27,4.74-9.27,13.17-9.27,5.26,0,7.58.42,9.37,1.79,2,1.58,3,3.37,4,7.48,2.11-7.37,5-9.27,13.58-9.27,10.43,0,12.75,2.53,12.75,13.9v56.34H130.59v-47.39c0-4.95-1-6.63-3.79-6.63s-3.9,1.79-3.9,6.63v47.39H104.05v-48.55c0-3.79-1.26-5.58-3.9-5.58s-3.79,1.9-3.79,5.8v48.33H77.52v-54.23a60.62,60.62,0,0,0-1.8-16Z"/><path class="cls-2" d="M175,1008.24v70.24H156.17v-70.24Z"/><path class="cls-2" d="M215.14,1023.51h-8.53v55H187.76v-55h-8.52v-15.27h35.9Z"/><path class="cls-2" d="M253.79,1023.51H237.26v12.22h3.37c12.1,0,15.05,3.68,15.05,18.63v4.32c0,8.11-.94,13.16-2.84,15.9s-4.21,3.58-9,3.79c-1.79,0-1.79,0-7.69.11H218.72v-15.27h17.59V1051h-2.95c-7.27,0-10.43-1-12.43-4.42-2-3-2.52-6.32-2.52-14.85v-4.31c0-8.64,1.47-14.32,4.31-16.75,2.43-2.1,4.64-2.42,14.85-2.42h16.22v15.27Z"/><path class="cls-2" d="M284.56,1023.88a10.93,10.93,0,0,1-3.3,8,11.18,11.18,0,0,1-15.92,0,11.31,11.31,0,0,1,8-19.3,10.72,10.72,0,0,1,7.91,3.33A10.92,10.92,0,0,1,284.56,1023.88Zm-2,0a9.26,9.26,0,0,0-2.72-6.69,8.69,8.69,0,0,0-6.49-2.8,8.84,8.84,0,0,0-6.58,2.79,9.65,9.65,0,0,0,0,13.43,9.06,9.06,0,0,0,13.06,0A9.27,9.27,0,0,0,282.55,1023.86Zm-3.58,6.52H276l-2.11-5.26h-3.12v5.26H268v-13h6a5.45,5.45,0,0,1,3.7,1.08,3.55,3.55,0,0,1,1.21,2.78,3.48,3.48,0,0,1-2.41,3.43Zm-8.16-7.33h2.86c1.62,0,2.44-.62,2.44-1.86s-.75-1.78-2.23-1.78h-3.07Z"/><polygon class="cls-2" points="842.14 1001.21 546.19 999.53 941.48 972.4 626.73 1185.32 687.24 1080.41 683.63 1108.51 842.14 1001.21"/><path class="cls-2" d="M564.09,1008.24a42.11,42.11,0,0,1,1.79,9.27c1.79-7.27,4.74-9.27,13.16-9.27,5.27,0,7.59.42,9.38,1.79,2,1.58,2.94,3.37,4,7.48,2.1-7.37,5-9.27,13.58-9.27,10.43,0,12.74,2.53,12.74,13.9v56.34H599.89v-47.39c0-4.95-.94-6.63-3.79-6.63s-3.89,1.79-3.89,6.63v47.39H573.36v-48.55c0-3.79-1.27-5.58-3.9-5.58s-3.79,1.9-3.79,5.8v48.33H546.82v-54.23a60.62,60.62,0,0,0-1.79-16Z"/><path class="cls-2" d="M644.33,1008.24v70.24H625.48v-70.24Z"/><path class="cls-2" d="M684.45,1023.51h-8.53v55H657.07v-55h-8.53v-15.27h35.91Z"/><path class="cls-2" d="M723.09,1023.51H706.56v12.22h3.37c12.11,0,15.06,3.68,15.06,18.63v4.32c0,8.11-1,13.16-2.84,15.9s-4.21,3.58-8.95,3.79c-1.79,0-1.79,0-7.69.11H688v-15.27h17.58V1051h-2.94c-7.27,0-10.43-1-12.43-4.42-2-3-2.53-6.32-2.53-14.85v-4.31c0-8.64,1.48-14.32,4.32-16.75,2.42-2.1,4.63-2.42,14.85-2.42h16.21v15.27Z"/><path class="cls-2" d="M753.87,1023.88a10.9,10.9,0,0,1-3.31,8,11.17,11.17,0,0,1-15.91,0,11.31,11.31,0,0,1,8-19.3,10.72,10.72,0,0,1,7.92,3.33A11,11,0,0,1,753.87,1023.88Zm-2,0a9.25,9.25,0,0,0-2.71-6.69,8.71,8.71,0,0,0-6.49-2.8,8.87,8.87,0,0,0-6.59,2.79,9.64,9.64,0,0,0,0,13.43,9.06,9.06,0,0,0,13.06,0A9.3,9.3,0,0,0,751.85,1023.86Zm-3.58,6.52h-2.92l-2.12-5.26h-3.11v5.26h-2.78v-13h6a5.42,5.42,0,0,1,3.69,1.08,3.53,3.53,0,0,1,1.22,2.78,3.48,3.48,0,0,1-2.42,3.43Zm-8.15-7.33H743q2.43,0,2.43-1.86c0-1.19-.74-1.78-2.22-1.78h-3.07Z"/><polygon class="cls-2" points="1312.61 1000.83 1016.66 999.15 1411.94 972.02 1097.19 1184.93 1157.71 1080.03 1154.1 1108.13 1312.61 1000.83"/><path class="cls-2" d="M1034.56,1007.86a42.11,42.11,0,0,1,1.79,9.27c1.79-7.27,4.74-9.27,13.16-9.27,5.27,0,7.58.42,9.37,1.79,2,1.58,2.95,3.37,4,7.48,2.11-7.37,4.95-9.27,13.59-9.27,10.42,0,12.74,2.53,12.74,13.9v56.34h-18.85v-47.39c0-5-.95-6.63-3.79-6.63s-3.9,1.79-3.9,6.63v47.39h-18.85v-48.55c0-3.79-1.26-5.58-3.89-5.58s-3.79,1.9-3.79,5.79v48.34h-18.85v-54.23a60.62,60.62,0,0,0-1.79-16Z"/><path class="cls-2" d="M1114.8,1007.86v70.24H1096v-70.24Z"/><path class="cls-2" d="M1154.92,1023.13h-8.53v55h-18.85v-55H1119v-15.27h35.91Z"/><path class="cls-2" d="M1193.56,1023.13H1177v12.22h3.37c12.11,0,15.06,3.68,15.06,18.63v4.32c0,8.11-1,13.16-2.85,15.9s-4.21,3.58-8.95,3.79c-1.79,0-1.79,0-7.68.11H1158.5v-15.27h17.58v-12.22h-2.95c-7.26,0-10.42-1-12.42-4.42-2-3-2.53-6.32-2.53-14.85V1027c0-8.64,1.47-14.32,4.32-16.75,2.42-2.1,4.63-2.42,14.84-2.42h16.22v15.27Z"/><path class="cls-2" d="M1224.34,1023.5a10.9,10.9,0,0,1-3.31,8,10.78,10.78,0,0,1-7.93,3.33,11.32,11.32,0,0,1,0-22.63,10.75,10.75,0,0,1,7.92,3.33A11,11,0,0,1,1224.34,1023.5Zm-2,0a9.25,9.25,0,0,0-2.71-6.69,8.71,8.71,0,0,0-6.5-2.8,8.85,8.85,0,0,0-6.58,2.79,9.64,9.64,0,0,0,0,13.43,9,9,0,0,0,13,0A9.27,9.27,0,0,0,1222.32,1023.48Zm-3.58,6.52h-2.92l-2.12-5.26h-3.12V1030h-2.78v-13h6a5.43,5.43,0,0,1,3.7,1.08,3.56,3.56,0,0,1,1.22,2.78,3.49,3.49,0,0,1-2.42,3.43Zm-8.16-7.33h2.87q2.43,0,2.43-1.86c0-1.19-.74-1.78-2.23-1.78h-3.07Z"/><polygon class="cls-2" points="1783.08 1000.45 1487.13 998.77 1882.41 971.64 1567.66 1184.55 1628.18 1079.65 1624.56 1107.74 1783.08 1000.45"/><path class="cls-2" d="M1505,1007.48a42.11,42.11,0,0,1,1.79,9.27c1.79-7.27,4.74-9.27,13.17-9.27,5.26,0,7.58.42,9.37,1.79,2,1.58,3,3.37,4,7.48,2.11-7.37,5-9.27,13.58-9.27,10.43,0,12.75,2.53,12.75,13.9v56.34h-18.85v-47.39c0-4.95-.95-6.63-3.79-6.63s-3.9,1.79-3.9,6.63v47.39h-18.85v-48.55c0-3.79-1.26-5.58-3.9-5.58s-3.79,1.9-3.79,5.79v48.34h-18.84v-54.23a61,61,0,0,0-1.79-16Z"/><path class="cls-2" d="M1585.26,1007.48v70.24h-18.85v-70.24Z"/><path class="cls-2" d="M1625.38,1022.75h-8.53v55H1598v-55h-8.52v-15.27h35.9Z"/><path class="cls-2" d="M1664,1022.75H1647.5V1035h3.37c12.11,0,15.05,3.68,15.05,18.63v4.32c0,8.11-.94,13.16-2.84,15.9s-4.21,3.58-8.95,3.79c-1.79,0-1.79,0-7.69.11H1629v-15.27h17.59v-12.22h-3c-7.27,0-10.43-1-12.43-4.42-2-3-2.52-6.32-2.52-14.85v-4.31c0-8.64,1.47-14.33,4.31-16.75,2.43-2.1,4.64-2.42,14.85-2.42H1664v15.27Z"/><path class="cls-2" d="M1694.8,1023.11a10.94,10.94,0,0,1-3.3,8,11.18,11.18,0,0,1-15.92,0,11.31,11.31,0,0,1,8-19.3,10.72,10.72,0,0,1,7.91,3.33A10.92,10.92,0,0,1,1694.8,1023.11Zm-2,0a9.26,9.26,0,0,0-2.72-6.69,8.69,8.69,0,0,0-6.49-2.8,8.84,8.84,0,0,0-6.58,2.79,9.65,9.65,0,0,0,0,13.43,9.06,9.06,0,0,0,13.06,0A9.27,9.27,0,0,0,1692.79,1023.1Zm-3.58,6.52h-2.93l-2.11-5.27h-3.12v5.27h-2.78v-13h6a5.45,5.45,0,0,1,3.7,1.08,3.55,3.55,0,0,1,1.21,2.78,3.48,3.48,0,0,1-2.41,3.43Zm-8.16-7.33h2.86c1.62,0,2.44-.62,2.44-1.86s-.75-1.78-2.23-1.78h-3.07Z"/><polygon class="cls-2" points="2253.54 1000.07 1957.59 998.39 2352.88 971.26 2038.13 1184.17 2098.64 1079.27 2095.03 1107.36 2253.54 1000.07"/><path class="cls-2" d="M1975.49,1007.1a42.11,42.11,0,0,1,1.79,9.27c1.79-7.27,4.74-9.27,13.16-9.27,5.27,0,7.59.42,9.38,1.79,2,1.58,2.94,3.37,4,7.48,2.1-7.37,5-9.27,13.58-9.27,10.43,0,12.74,2.53,12.74,13.9v56.34h-18.85V1030c0-5-.94-6.63-3.79-6.63s-3.89,1.79-3.89,6.63v47.39h-18.85v-48.55c0-3.79-1.27-5.58-3.9-5.58s-3.79,1.9-3.79,5.79v48.34h-18.85v-54.23a60.62,60.62,0,0,0-1.79-16Z"/><path class="cls-2" d="M2055.73,1007.1v70.24h-18.85V1007.1Z"/><path class="cls-2" d="M2095.85,1022.37h-8.53v55h-18.85v-55h-8.53V1007.1h35.91Z"/><path class="cls-2" d="M2134.49,1022.37H2118v12.22h3.37c12.11,0,15.06,3.68,15.06,18.63v4.32c0,8.11-.95,13.16-2.84,15.9s-4.21,3.58-9,3.79c-1.79,0-1.79,0-7.69.11h-17.48v-15.27H2117v-12.22h-2.94c-7.27,0-10.43-1-12.43-4.42-2-3-2.53-6.32-2.53-14.85v-4.31c0-8.64,1.48-14.33,4.32-16.75,2.42-2.1,4.63-2.42,14.85-2.42h16.21v15.27Z"/><path class="cls-2" d="M2165.27,1022.73a10.91,10.91,0,0,1-3.31,8,11.17,11.17,0,0,1-15.91,0,11.31,11.31,0,0,1,8-19.3,10.72,10.72,0,0,1,7.92,3.33A11,11,0,0,1,2165.27,1022.73Zm-2,0a9.29,9.29,0,0,0-2.71-6.7,8.73,8.73,0,0,0-6.49-2.79,8.87,8.87,0,0,0-6.59,2.79,9.62,9.62,0,0,0,0,13.42,9,9,0,0,0,13.06,0A9.26,9.26,0,0,0,2163.25,1022.72Zm-3.58,6.52h-2.92l-2.12-5.27h-3.11v5.27h-2.78v-13h6a5.42,5.42,0,0,1,3.69,1.08,3.69,3.69,0,0,1-1.2,6.21Zm-8.15-7.33h2.86q2.43,0,2.43-1.86c0-1.19-.74-1.78-2.22-1.78h-3.07Z"/><polygon class="cls-2" points="2724.01 1001.21 2428.06 999.53 2823.34 972.4 2508.59 1185.32 2569.11 1080.41 2565.5 1108.51 2724.01 1001.21"/><path class="cls-2" d="M2446,1008.24a42.11,42.11,0,0,1,1.79,9.27c1.79-7.27,4.74-9.27,13.16-9.27,5.27,0,7.58.42,9.37,1.79,2,1.58,2.95,3.37,4,7.48,2.11-7.37,4.95-9.27,13.59-9.27,10.42,0,12.74,2.53,12.74,13.9v56.34h-18.85v-47.39c0-4.95-1-6.63-3.79-6.63s-3.9,1.79-3.9,6.63v47.39h-18.85v-48.55c0-3.79-1.26-5.58-3.89-5.58s-3.79,1.9-3.79,5.8v48.33h-18.85v-54.23a60.62,60.62,0,0,0-1.79-16Z"/><path class="cls-2" d="M2526.2,1008.24v70.24h-18.85v-70.24Z"/><path class="cls-2" d="M2566.32,1023.51h-8.53v55h-18.85v-55h-8.53v-15.27h35.91Z"/><path class="cls-2" d="M2605,1023.51h-16.53v12.22h3.37c12.11,0,15.06,3.68,15.06,18.63v4.32c0,8.11-1,13.16-2.85,15.9s-4.21,3.58-9,3.79c-1.79,0-1.79,0-7.68.11H2569.9v-15.27h17.58V1051h-2.95c-7.26,0-10.42-1-12.42-4.42-2-3-2.53-6.32-2.53-14.85v-4.31c0-8.64,1.47-14.32,4.32-16.75,2.42-2.1,4.63-2.42,14.84-2.42H2605v15.27Z"/><path class="cls-2" d="M2635.74,1023.88a10.9,10.9,0,0,1-3.31,8,10.78,10.78,0,0,1-7.93,3.33,11.32,11.32,0,0,1,0-22.63,10.75,10.75,0,0,1,7.92,3.33A11,11,0,0,1,2635.74,1023.88Zm-2,0a9.29,9.29,0,0,0-2.71-6.69,8.71,8.71,0,0,0-6.5-2.8,8.85,8.85,0,0,0-6.58,2.79,9.64,9.64,0,0,0,0,13.43,9,9,0,0,0,13,0A9.27,9.27,0,0,0,2633.72,1023.86Zm-3.58,6.52h-2.92l-2.12-5.26H2622v5.26h-2.78v-13h6a5.43,5.43,0,0,1,3.7,1.08,3.56,3.56,0,0,1,1.22,2.78,3.49,3.49,0,0,1-2.42,3.43Zm-8.16-7.33h2.87q2.43,0,2.43-1.86c0-1.19-.74-1.78-2.23-1.78H2622Z"/><polygon class="cls-2" points="3194.47 1001.21 2898.53 999.53 3293.81 972.4 2979.06 1185.32 3039.58 1080.41 3035.96 1108.51 3194.47 1001.21"/><path class="cls-2" d="M2916.42,1008.24a42.11,42.11,0,0,1,1.79,9.27c1.79-7.27,4.74-9.27,13.17-9.27,5.26,0,7.58.42,9.37,1.79,2,1.58,2.95,3.37,4,7.48,2.11-7.37,4.95-9.27,13.58-9.27,10.43,0,12.75,2.53,12.75,13.9v56.34h-18.85v-47.39c0-4.95-.95-6.63-3.79-6.63s-3.9,1.79-3.9,6.63v47.39h-18.85v-48.55c0-3.79-1.26-5.58-3.9-5.58s-3.79,1.9-3.79,5.8v48.33h-18.84v-54.23a61,61,0,0,0-1.79-16Z"/><path class="cls-2" d="M2996.66,1008.24v70.24h-18.85v-70.24Z"/><path class="cls-2" d="M3036.78,1023.51h-8.53v55H3009.4v-55h-8.52v-15.27h35.9Z"/><path class="cls-2" d="M3075.43,1023.51H3058.9v12.22h3.37c12.11,0,15.05,3.68,15.05,18.63v4.32c0,8.11-.94,13.16-2.84,15.9s-4.21,3.58-8.95,3.79c-1.79,0-1.79,0-7.69.11h-17.48v-15.27H3058V1051H3055c-7.27,0-10.43-1-12.43-4.42-2-3-2.52-6.32-2.52-14.85v-4.31c0-8.64,1.47-14.32,4.31-16.75,2.43-2.1,4.64-2.42,14.85-2.42h16.22v15.27Z"/><path class="cls-2" d="M3106.2,1023.88a10.93,10.93,0,0,1-3.3,8,11.18,11.18,0,0,1-15.92,0,11.31,11.31,0,0,1,8-19.3,10.72,10.72,0,0,1,7.91,3.33A10.92,10.92,0,0,1,3106.2,1023.88Zm-2,0a9.26,9.26,0,0,0-2.72-6.69,8.69,8.69,0,0,0-6.49-2.8,8.84,8.84,0,0,0-6.58,2.79,9.65,9.65,0,0,0,0,13.43,9.06,9.06,0,0,0,13.06,0A9.27,9.27,0,0,0,3104.19,1023.86Zm-3.58,6.52h-2.93l-2.11-5.26h-3.12v5.26h-2.78v-13h6a5.45,5.45,0,0,1,3.7,1.08,3.55,3.55,0,0,1,1.21,2.78,3.48,3.48,0,0,1-2.41,3.43Zm-8.16-7.33h2.86c1.62,0,2.44-.62,2.44-1.86s-.75-1.78-2.23-1.78h-3.07Z"/><polygon class="cls-2" points="3664.94 1001.21 3368.99 999.53 3764.28 972.4 3449.53 1185.32 3510.04 1080.41 3506.43 1108.51 3664.94 1001.21"/><path class="cls-2" d="M3386.89,1008.24a42.11,42.11,0,0,1,1.79,9.27c1.79-7.27,4.74-9.27,13.16-9.27,5.27,0,7.59.42,9.38,1.79,2,1.58,2.94,3.37,4,7.48,2.1-7.37,5-9.27,13.58-9.27,10.43,0,12.74,2.53,12.74,13.9v56.34h-18.85v-47.39c0-4.95-.94-6.63-3.79-6.63s-3.89,1.79-3.89,6.63v47.39h-18.85v-48.55c0-3.79-1.27-5.58-3.9-5.58s-3.79,1.9-3.79,5.8v48.33h-18.85v-54.23a60.62,60.62,0,0,0-1.79-16Z"/><path class="cls-2" d="M3467.13,1008.24v70.24h-18.85v-70.24Z"/><path class="cls-2" d="M3507.25,1023.51h-8.53v55h-18.85v-55h-8.53v-15.27h35.91Z"/><path class="cls-2" d="M3545.89,1023.51h-16.53v12.22h3.37c12.11,0,15.06,3.68,15.06,18.63v4.32c0,8.11-.95,13.16-2.84,15.9s-4.21,3.58-8.95,3.79c-1.79,0-1.79,0-7.69.11h-17.48v-15.27h17.58V1051h-2.94c-7.27,0-10.43-1-12.43-4.42-2-3-2.53-6.32-2.53-14.85v-4.31c0-8.64,1.48-14.32,4.32-16.75,2.42-2.1,4.63-2.42,14.85-2.42h16.21v15.27Z"/><path class="cls-2" d="M3576.67,1023.88a10.9,10.9,0,0,1-3.31,8,11.17,11.17,0,0,1-15.91,0,11.31,11.31,0,0,1,8-19.3,10.72,10.72,0,0,1,7.92,3.33A11,11,0,0,1,3576.67,1023.88Zm-2,0a9.25,9.25,0,0,0-2.71-6.69,8.71,8.71,0,0,0-6.49-2.8,8.87,8.87,0,0,0-6.59,2.79,9.64,9.64,0,0,0,0,13.43,9,9,0,0,0,13.05,0A9.27,9.27,0,0,0,3574.65,1023.86Zm-3.58,6.52h-2.92l-2.12-5.26h-3.11v5.26h-2.78v-13h6a5.42,5.42,0,0,1,3.69,1.08,3.69,3.69,0,0,1-1.2,6.21Zm-8.15-7.33h2.86q2.43,0,2.43-1.86c0-1.19-.74-1.78-2.22-1.78h-3.07Z"/><polygon class="cls-2" points="372.83 1297.51 76.89 1295.83 472.17 1268.7 157.42 1481.61 217.94 1376.71 214.32 1404.8 372.83 1297.51"/><path class="cls-2" d="M94.78,1304.54a42.11,42.11,0,0,1,1.79,9.27c1.79-7.27,4.74-9.27,13.17-9.27,5.26,0,7.58.42,9.37,1.79,2,1.58,3,3.37,4,7.48,2.11-7.37,5-9.27,13.58-9.27,10.43,0,12.75,2.53,12.75,13.9v56.34H130.59v-47.39c0-5-1-6.63-3.79-6.63s-3.9,1.79-3.9,6.63v47.39H104.05v-48.55c0-3.79-1.26-5.58-3.9-5.58s-3.79,1.9-3.79,5.79v48.34H77.52v-54.23a60.62,60.62,0,0,0-1.8-16Z"/><path class="cls-2" d="M175,1304.54v70.24H156.17v-70.24Z"/><path class="cls-2" d="M215.14,1319.81h-8.53v55H187.76v-55h-8.52v-15.27h35.9Z"/><path class="cls-2" d="M253.79,1319.81H237.26V1332h3.37c12.1,0,15.05,3.68,15.05,18.63V1355c0,8.11-.94,13.16-2.84,15.9s-4.21,3.58-9,3.79c-1.79,0-1.79,0-7.69.11H218.72v-15.27h17.59v-12.22h-2.95c-7.27,0-10.43-1-12.43-4.42-2-3-2.52-6.32-2.52-14.85v-4.31c0-8.64,1.47-14.33,4.31-16.75,2.43-2.1,4.64-2.42,14.85-2.42h16.22v15.27Z"/><path class="cls-2" d="M284.56,1320.17a10.94,10.94,0,0,1-3.3,8,11.18,11.18,0,0,1-15.92,0,11.31,11.31,0,0,1,8-19.3,10.72,10.72,0,0,1,7.91,3.33A10.92,10.92,0,0,1,284.56,1320.17Zm-2,0a9.3,9.3,0,0,0-2.72-6.7,8.72,8.72,0,0,0-6.49-2.79,8.84,8.84,0,0,0-6.58,2.79,9.64,9.64,0,0,0,0,13.42,9,9,0,0,0,13.06,0A9.23,9.23,0,0,0,282.55,1320.16Zm-3.58,6.52H276l-2.11-5.27h-3.12v5.27H268v-13h6a5.45,5.45,0,0,1,3.7,1.08,3.54,3.54,0,0,1,1.21,2.78,3.48,3.48,0,0,1-2.41,3.43Zm-8.16-7.33h2.86c1.62,0,2.44-.62,2.44-1.86s-.75-1.78-2.23-1.78h-3.07Z"/><polygon class="cls-2" points="842.14 1297.51 546.19 1295.83 941.48 1268.7 626.73 1481.61 687.24 1376.71 683.63 1404.8 842.14 1297.51"/><path class="cls-2" d="M564.09,1304.54a42.11,42.11,0,0,1,1.79,9.27c1.79-7.27,4.74-9.27,13.16-9.27,5.27,0,7.59.42,9.38,1.79,2,1.58,2.94,3.37,4,7.48,2.1-7.37,5-9.27,13.58-9.27,10.43,0,12.74,2.53,12.74,13.9v56.34H599.89v-47.39c0-5-.94-6.63-3.79-6.63s-3.89,1.79-3.89,6.63v47.39H573.36v-48.55c0-3.79-1.27-5.58-3.9-5.58s-3.79,1.9-3.79,5.79v48.34H546.82v-54.23a60.62,60.62,0,0,0-1.79-16Z"/><path class="cls-2" d="M644.33,1304.54v70.24H625.48v-70.24Z"/><path class="cls-2" d="M684.45,1319.81h-8.53v55H657.07v-55h-8.53v-15.27h35.91Z"/><path class="cls-2" d="M723.09,1319.81H706.56V1332h3.37c12.11,0,15.06,3.68,15.06,18.63V1355c0,8.11-1,13.16-2.84,15.9s-4.21,3.58-8.95,3.79c-1.79,0-1.79,0-7.69.11H688v-15.27h17.58v-12.22h-2.94c-7.27,0-10.43-1-12.43-4.42-2-3-2.53-6.32-2.53-14.85v-4.31c0-8.64,1.48-14.33,4.32-16.75,2.42-2.1,4.63-2.42,14.85-2.42h16.21v15.27Z"/><path class="cls-2" d="M753.87,1320.17a10.91,10.91,0,0,1-3.31,8,11.17,11.17,0,0,1-15.91,0,11.31,11.31,0,0,1,8-19.3,10.72,10.72,0,0,1,7.92,3.33A11,11,0,0,1,753.87,1320.17Zm-2,0a9.29,9.29,0,0,0-2.71-6.7,8.73,8.73,0,0,0-6.49-2.79,8.87,8.87,0,0,0-6.59,2.79,9.62,9.62,0,0,0,0,13.42,9,9,0,0,0,13.06,0A9.26,9.26,0,0,0,751.85,1320.16Zm-3.58,6.52h-2.92l-2.12-5.27h-3.11v5.27h-2.78v-13h6a5.42,5.42,0,0,1,3.69,1.08,3.69,3.69,0,0,1-1.2,6.21Zm-8.15-7.33H743q2.43,0,2.43-1.86c0-1.19-.74-1.78-2.22-1.78h-3.07Z"/><polygon class="cls-2" points="1312.61 1297.13 1016.66 1295.45 1411.94 1268.32 1097.19 1481.23 1157.71 1376.33 1154.1 1404.42 1312.61 1297.13"/><path class="cls-2" d="M1034.56,1304.16a42.11,42.11,0,0,1,1.79,9.27c1.79-7.27,4.74-9.27,13.16-9.27,5.27,0,7.58.42,9.37,1.79,2,1.58,2.95,3.37,4,7.48,2.11-7.37,4.95-9.27,13.59-9.27,10.42,0,12.74,2.53,12.74,13.9v56.34h-18.85V1327c0-5-.95-6.63-3.79-6.63s-3.9,1.79-3.9,6.63v47.39h-18.85v-48.55c0-3.79-1.26-5.58-3.89-5.58s-3.79,1.9-3.79,5.79v48.34h-18.85v-54.23a60.62,60.62,0,0,0-1.79-16Z"/><path class="cls-2" d="M1114.8,1304.16v70.24H1096v-70.24Z"/><path class="cls-2" d="M1154.92,1319.43h-8.53v55h-18.85v-55H1119v-15.27h35.91Z"/><path class="cls-2" d="M1193.56,1319.43H1177v12.21h3.37c12.11,0,15.06,3.69,15.06,18.64v4.32c0,8.11-1,13.16-2.85,15.9s-4.21,3.58-8.95,3.79c-1.79,0-1.79,0-7.68.11H1158.5v-15.27h17.58v-12.22h-2.95c-7.26,0-10.42-1.05-12.42-4.42-2-3-2.53-6.32-2.53-14.85v-4.31c0-8.64,1.47-14.33,4.32-16.75,2.42-2.1,4.63-2.42,14.84-2.42h16.22v15.27Z"/><path class="cls-2" d="M1224.34,1319.79a10.91,10.91,0,0,1-3.31,8,10.78,10.78,0,0,1-7.93,3.33,11.32,11.32,0,0,1,0-22.63,10.75,10.75,0,0,1,7.92,3.33A11,11,0,0,1,1224.34,1319.79Zm-2,0a9.29,9.29,0,0,0-2.71-6.7,8.74,8.74,0,0,0-6.5-2.79,8.85,8.85,0,0,0-6.58,2.79,9.62,9.62,0,0,0,0,13.42,9,9,0,0,0,13,0A9.23,9.23,0,0,0,1222.32,1319.78Zm-3.58,6.52h-2.92l-2.12-5.27h-3.12v5.27h-2.78v-13h6a5.43,5.43,0,0,1,3.7,1.08,3.54,3.54,0,0,1,1.22,2.78,3.49,3.49,0,0,1-2.42,3.43Zm-8.16-7.33h2.87q2.43,0,2.43-1.86c0-1.19-.74-1.78-2.23-1.78h-3.07Z"/><polygon class="cls-2" points="1783.08 1296.75 1487.13 1295.07 1882.41 1267.94 1567.66 1480.85 1628.18 1375.95 1624.56 1404.04 1783.08 1296.75"/><path class="cls-2" d="M1505,1303.78a42.11,42.11,0,0,1,1.79,9.27c1.79-7.27,4.74-9.27,13.17-9.27,5.26,0,7.58.42,9.37,1.79,2,1.58,3,3.37,4,7.48,2.11-7.37,5-9.27,13.58-9.27,10.43,0,12.75,2.53,12.75,13.9V1374h-18.85v-47.39c0-5-.95-6.63-3.79-6.63s-3.9,1.79-3.9,6.63V1374h-18.85v-48.55c0-3.79-1.26-5.58-3.9-5.58s-3.79,1.9-3.79,5.79V1374h-18.84v-54.23a61,61,0,0,0-1.79-16Z"/><path class="cls-2" d="M1585.26,1303.78V1374h-18.85v-70.24Z"/><path class="cls-2" d="M1625.38,1319.05h-8.53v55H1598v-55h-8.52v-15.27h35.9Z"/><path class="cls-2" d="M1664,1319.05H1647.5v12.21h3.37c12.11,0,15.05,3.69,15.05,18.64v4.32c0,8.11-.94,13.16-2.84,15.9s-4.21,3.58-8.95,3.79c-1.79,0-1.79,0-7.69.11H1629v-15.27h17.59v-12.22h-3c-7.27,0-10.43-1-12.43-4.42-2-3-2.52-6.32-2.52-14.85v-4.32c0-8.63,1.47-14.32,4.31-16.74,2.43-2.1,4.64-2.42,14.85-2.42H1664v15.27Z"/><path class="cls-2" d="M1694.8,1319.41a10.94,10.94,0,0,1-3.3,8,11.18,11.18,0,0,1-15.92,0,11.31,11.31,0,0,1,8-19.3,10.72,10.72,0,0,1,7.91,3.33A10.92,10.92,0,0,1,1694.8,1319.41Zm-2,0a9.3,9.3,0,0,0-2.72-6.7,8.72,8.72,0,0,0-6.49-2.79,8.84,8.84,0,0,0-6.58,2.79,9.64,9.64,0,0,0,0,13.42,9,9,0,0,0,13.06,0A9.23,9.23,0,0,0,1692.79,1319.4Zm-3.58,6.52h-2.93l-2.11-5.27h-3.12v5.27h-2.78v-13h6a5.45,5.45,0,0,1,3.7,1.09,3.54,3.54,0,0,1,1.21,2.78,3.49,3.49,0,0,1-2.41,3.43Zm-8.16-7.33h2.86c1.62,0,2.44-.62,2.44-1.86s-.75-1.78-2.23-1.78h-3.07Z"/><polygon class="cls-2" points="2253.54 1296.37 1957.59 1294.69 2352.88 1267.56 2038.13 1480.47 2098.64 1375.57 2095.03 1403.66 2253.54 1296.37"/><path class="cls-2" d="M1975.49,1303.4a42.11,42.11,0,0,1,1.79,9.27c1.79-7.27,4.74-9.27,13.16-9.27,5.27,0,7.59.42,9.38,1.79,2,1.58,2.94,3.37,4,7.48,2.1-7.37,5-9.27,13.58-9.27,10.43,0,12.74,2.53,12.74,13.9v56.34h-18.85v-47.39c0-5-.94-6.63-3.79-6.63s-3.89,1.79-3.89,6.63v47.39h-18.85v-48.55c0-3.79-1.27-5.58-3.9-5.58s-3.79,1.9-3.79,5.79v48.34h-18.85v-54.23a60.62,60.62,0,0,0-1.79-16Z"/><path class="cls-2" d="M2055.73,1303.4v70.24h-18.85V1303.4Z"/><path class="cls-2" d="M2095.85,1318.67h-8.53v55h-18.85v-55h-8.53V1303.4h35.91Z"/><path class="cls-2" d="M2134.49,1318.67H2118v12.21h3.37c12.11,0,15.06,3.69,15.06,18.64v4.32c0,8.11-.95,13.16-2.84,15.9s-4.21,3.58-9,3.79c-1.79,0-1.79,0-7.69.11h-17.48v-15.27H2117v-12.22h-2.94c-7.27,0-10.43-1.05-12.43-4.42-2-3-2.53-6.32-2.53-14.85v-4.32c0-8.63,1.48-14.32,4.32-16.74,2.42-2.1,4.63-2.42,14.85-2.42h16.21v15.27Z"/><path class="cls-2" d="M2165.27,1319a10.91,10.91,0,0,1-3.31,8,11.17,11.17,0,0,1-15.91,0,11.31,11.31,0,0,1,8-19.3A10.72,10.72,0,0,1,2162,1311,11,11,0,0,1,2165.27,1319Zm-2,0a9.29,9.29,0,0,0-2.71-6.7,8.73,8.73,0,0,0-6.49-2.79,8.87,8.87,0,0,0-6.59,2.79,9.62,9.62,0,0,0,0,13.42,9,9,0,0,0,13.06,0A9.26,9.26,0,0,0,2163.25,1319Zm-3.58,6.52h-2.92l-2.12-5.27h-3.11v5.27h-2.78v-13h6a5.37,5.37,0,0,1,3.69,1.09,3.69,3.69,0,0,1-1.2,6.21Zm-8.15-7.33h2.86q2.43,0,2.43-1.86c0-1.19-.74-1.78-2.22-1.78h-3.07Z"/><polygon class="cls-2" points="2724.01 1297.51 2428.06 1295.83 2823.34 1268.7 2508.59 1481.61 2569.11 1376.71 2565.5 1404.8 2724.01 1297.51"/><path class="cls-2" d="M2446,1304.54a42.11,42.11,0,0,1,1.79,9.27c1.79-7.27,4.74-9.27,13.16-9.27,5.27,0,7.58.42,9.37,1.79,2,1.58,2.95,3.37,4,7.48,2.11-7.37,4.95-9.27,13.59-9.27,10.42,0,12.74,2.53,12.74,13.9v56.34h-18.85v-47.39c0-5-1-6.63-3.79-6.63s-3.9,1.79-3.9,6.63v47.39h-18.85v-48.55c0-3.79-1.26-5.58-3.89-5.58s-3.79,1.9-3.79,5.79v48.34h-18.85v-54.23a60.62,60.62,0,0,0-1.79-16Z"/><path class="cls-2" d="M2526.2,1304.54v70.24h-18.85v-70.24Z"/><path class="cls-2" d="M2566.32,1319.81h-8.53v55h-18.85v-55h-8.53v-15.27h35.91Z"/><path class="cls-2" d="M2605,1319.81h-16.53V1332h3.37c12.11,0,15.06,3.68,15.06,18.63V1355c0,8.11-1,13.16-2.85,15.9s-4.21,3.58-9,3.79c-1.79,0-1.79,0-7.68.11H2569.9v-15.27h17.58v-12.22h-2.95c-7.26,0-10.42-1-12.42-4.42-2-3-2.53-6.32-2.53-14.85v-4.31c0-8.64,1.47-14.33,4.32-16.75,2.42-2.1,4.63-2.42,14.84-2.42H2605v15.27Z"/><path class="cls-2" d="M2635.74,1320.17a10.91,10.91,0,0,1-3.31,8,10.78,10.78,0,0,1-7.93,3.33,11.32,11.32,0,0,1,0-22.63,10.75,10.75,0,0,1,7.92,3.33A11,11,0,0,1,2635.74,1320.17Zm-2,0a9.33,9.33,0,0,0-2.71-6.7,8.74,8.74,0,0,0-6.5-2.79,8.85,8.85,0,0,0-6.58,2.79,9.62,9.62,0,0,0,0,13.42,9,9,0,0,0,13,0A9.23,9.23,0,0,0,2633.72,1320.16Zm-3.58,6.52h-2.92l-2.12-5.27H2622v5.27h-2.78v-13h6a5.43,5.43,0,0,1,3.7,1.08,3.54,3.54,0,0,1,1.22,2.78,3.49,3.49,0,0,1-2.42,3.43Zm-8.16-7.33h2.87q2.43,0,2.43-1.86c0-1.19-.74-1.78-2.23-1.78H2622Z"/><polygon class="cls-2" points="3194.47 1297.51 2898.53 1295.83 3293.81 1268.7 2979.06 1481.61 3039.58 1376.71 3035.96 1404.8 3194.47 1297.51"/><path class="cls-2" d="M2916.42,1304.54a42.11,42.11,0,0,1,1.79,9.27c1.79-7.27,4.74-9.27,13.17-9.27,5.26,0,7.58.42,9.37,1.79,2,1.58,2.95,3.37,4,7.48,2.11-7.37,4.95-9.27,13.58-9.27,10.43,0,12.75,2.53,12.75,13.9v56.34h-18.85v-47.39c0-5-.95-6.63-3.79-6.63s-3.9,1.79-3.9,6.63v47.39h-18.85v-48.55c0-3.79-1.26-5.58-3.9-5.58s-3.79,1.9-3.79,5.79v48.34h-18.84v-54.23a61,61,0,0,0-1.79-16Z"/><path class="cls-2" d="M2996.66,1304.54v70.24h-18.85v-70.24Z"/><path class="cls-2" d="M3036.78,1319.81h-8.53v55H3009.4v-55h-8.52v-15.27h35.9Z"/><path class="cls-2" d="M3075.43,1319.81H3058.9V1332h3.37c12.11,0,15.05,3.68,15.05,18.63V1355c0,8.11-.94,13.16-2.84,15.9s-4.21,3.58-8.95,3.79c-1.79,0-1.79,0-7.69.11h-17.48v-15.27H3058v-12.22H3055c-7.27,0-10.43-1-12.43-4.42-2-3-2.52-6.32-2.52-14.85v-4.31c0-8.64,1.47-14.33,4.31-16.75,2.43-2.1,4.64-2.42,14.85-2.42h16.22v15.27Z"/><path class="cls-2" d="M3106.2,1320.17a10.94,10.94,0,0,1-3.3,8,11.18,11.18,0,0,1-15.92,0,11.31,11.31,0,0,1,8-19.3,10.72,10.72,0,0,1,7.91,3.33A10.92,10.92,0,0,1,3106.2,1320.17Zm-2,0a9.3,9.3,0,0,0-2.72-6.7,8.72,8.72,0,0,0-6.49-2.79,8.84,8.84,0,0,0-6.58,2.79,9.64,9.64,0,0,0,0,13.42,9,9,0,0,0,13.06,0A9.23,9.23,0,0,0,3104.19,1320.16Zm-3.58,6.52h-2.93l-2.11-5.27h-3.12v5.27h-2.78v-13h6a5.45,5.45,0,0,1,3.7,1.08,3.54,3.54,0,0,1,1.21,2.78,3.48,3.48,0,0,1-2.41,3.43Zm-8.16-7.33h2.86c1.62,0,2.44-.62,2.44-1.86s-.75-1.78-2.23-1.78h-3.07Z"/><polygon class="cls-2" points="3664.94 1297.51 3368.99 1295.83 3764.28 1268.7 3449.53 1481.61 3510.04 1376.71 3506.43 1404.8 3664.94 1297.51"/><path class="cls-2" d="M3386.89,1304.54a42.11,42.11,0,0,1,1.79,9.27c1.79-7.27,4.74-9.27,13.16-9.27,5.27,0,7.59.42,9.38,1.79,2,1.58,2.94,3.37,4,7.48,2.1-7.37,5-9.27,13.58-9.27,10.43,0,12.74,2.53,12.74,13.9v56.34h-18.85v-47.39c0-5-.94-6.63-3.79-6.63s-3.89,1.79-3.89,6.63v47.39h-18.85v-48.55c0-3.79-1.27-5.58-3.9-5.58s-3.79,1.9-3.79,5.79v48.34h-18.85v-54.23a60.62,60.62,0,0,0-1.79-16Z"/><path class="cls-2" d="M3467.13,1304.54v70.24h-18.85v-70.24Z"/><path class="cls-2" d="M3507.25,1319.81h-8.53v55h-18.85v-55h-8.53v-15.27h35.91Z"/><path class="cls-2" d="M3545.89,1319.81h-16.53V1332h3.37c12.11,0,15.06,3.68,15.06,18.63V1355c0,8.11-.95,13.16-2.84,15.9s-4.21,3.58-8.95,3.79c-1.79,0-1.79,0-7.69.11h-17.48v-15.27h17.58v-12.22h-2.94c-7.27,0-10.43-1-12.43-4.42-2-3-2.53-6.32-2.53-14.85v-4.31c0-8.64,1.48-14.33,4.32-16.75,2.42-2.1,4.63-2.42,14.85-2.42h16.21v15.27Z"/><path class="cls-2" d="M3576.67,1320.17a10.91,10.91,0,0,1-3.31,8,11.17,11.17,0,0,1-15.91,0,11.31,11.31,0,0,1,8-19.3,10.72,10.72,0,0,1,7.92,3.33A11,11,0,0,1,3576.67,1320.17Zm-2,0a9.29,9.29,0,0,0-2.71-6.7,8.73,8.73,0,0,0-6.49-2.79,8.87,8.87,0,0,0-6.59,2.79,9.62,9.62,0,0,0,0,13.42,9,9,0,0,0,13.05,0A9.23,9.23,0,0,0,3574.65,1320.16Zm-3.58,6.52h-2.92l-2.12-5.27h-3.11v5.27h-2.78v-13h6a5.42,5.42,0,0,1,3.69,1.08,3.69,3.69,0,0,1-1.2,6.21Zm-8.15-7.33h2.86q2.43,0,2.43-1.86c0-1.19-.74-1.78-2.22-1.78h-3.07Z"/><polygon class="cls-2" points="372.83 1592.67 76.89 1590.99 472.17 1563.86 157.42 1776.77 217.94 1671.87 214.32 1699.96 372.83 1592.67"/><path class="cls-2" d="M94.78,1599.7a42.11,42.11,0,0,1,1.79,9.27c1.79-7.27,4.74-9.27,13.17-9.27,5.26,0,7.58.42,9.37,1.79,2,1.58,3,3.37,4,7.48,2.11-7.38,5-9.27,13.58-9.27,10.43,0,12.75,2.53,12.75,13.9v56.34H130.59v-47.39c0-5-1-6.63-3.79-6.63s-3.9,1.79-3.9,6.63v47.39H104.05v-48.55c0-3.79-1.26-5.58-3.9-5.58s-3.79,1.9-3.79,5.79v48.34H77.52v-54.23a60.62,60.62,0,0,0-1.8-16Z"/><path class="cls-2" d="M175,1599.7v70.24H156.17V1599.7Z"/><path class="cls-2" d="M215.14,1615h-8.53v55H187.76v-55h-8.52V1599.7h35.9Z"/><path class="cls-2" d="M253.79,1615H237.26v12.21h3.37c12.1,0,15.05,3.69,15.05,18.64v4.32c0,8.11-.94,13.16-2.84,15.9s-4.21,3.58-9,3.79c-1.79,0-1.79,0-7.69.11H218.72v-15.27h17.59v-12.22h-2.95c-7.27,0-10.43-1-12.43-4.42-2-3.06-2.52-6.32-2.52-14.85v-4.32c0-8.63,1.47-14.32,4.31-16.74,2.43-2.11,4.64-2.42,14.85-2.42h16.22V1615Z"/><path class="cls-2" d="M284.56,1615.33a10.94,10.94,0,0,1-3.3,8,11.18,11.18,0,0,1-15.92,0,11.31,11.31,0,0,1,8-19.3,10.74,10.74,0,0,1,7.91,3.32A11,11,0,0,1,284.56,1615.33Zm-2,0a9.3,9.3,0,0,0-2.72-6.7,8.73,8.73,0,0,0-6.49-2.8,8.84,8.84,0,0,0-6.58,2.79,9.65,9.65,0,0,0,0,13.43,9.06,9.06,0,0,0,13.06,0A9.23,9.23,0,0,0,282.55,1615.32Zm-3.58,6.52H276l-2.11-5.27h-3.12v5.27H268v-13h6a5.45,5.45,0,0,1,3.7,1.08,3.57,3.57,0,0,1,1.21,2.79,3.49,3.49,0,0,1-2.41,3.43Zm-8.16-7.33h2.86c1.62,0,2.44-.62,2.44-1.86s-.75-1.79-2.23-1.79h-3.07Z"/><polygon class="cls-2" points="842.14 1592.67 546.19 1590.99 941.48 1563.86 626.73 1776.77 687.24 1671.87 683.63 1699.96 842.14 1592.67"/><path class="cls-2" d="M564.09,1599.7a42.11,42.11,0,0,1,1.79,9.27c1.79-7.27,4.74-9.27,13.16-9.27,5.27,0,7.59.42,9.38,1.79,2,1.58,2.94,3.37,4,7.48,2.1-7.38,5-9.27,13.58-9.27,10.43,0,12.74,2.53,12.74,13.9v56.34H599.89v-47.39c0-5-.94-6.63-3.79-6.63s-3.89,1.79-3.89,6.63v47.39H573.36v-48.55c0-3.79-1.27-5.58-3.9-5.58s-3.79,1.9-3.79,5.79v48.34H546.82v-54.23a60.62,60.62,0,0,0-1.79-16Z"/><path class="cls-2" d="M644.33,1599.7v70.24H625.48V1599.7Z"/><path class="cls-2" d="M684.45,1615h-8.53v55H657.07v-55h-8.53V1599.7h35.91Z"/><path class="cls-2" d="M723.09,1615H706.56v12.21h3.37c12.11,0,15.06,3.69,15.06,18.64v4.32c0,8.11-1,13.16-2.84,15.9s-4.21,3.58-8.95,3.79c-1.79,0-1.79,0-7.69.11H688v-15.27h17.58v-12.22h-2.94c-7.27,0-10.43-1-12.43-4.42-2-3.06-2.53-6.32-2.53-14.85v-4.32c0-8.63,1.48-14.32,4.32-16.74,2.42-2.11,4.63-2.42,14.85-2.42h16.21V1615Z"/><path class="cls-2" d="M753.87,1615.33a10.91,10.91,0,0,1-3.31,8,11.17,11.17,0,0,1-15.91,0,11.31,11.31,0,0,1,8-19.3,10.75,10.75,0,0,1,7.92,3.32A11,11,0,0,1,753.87,1615.33Zm-2,0a9.29,9.29,0,0,0-2.71-6.7,8.74,8.74,0,0,0-6.49-2.8,8.87,8.87,0,0,0-6.59,2.79,9.64,9.64,0,0,0,0,13.43,9.06,9.06,0,0,0,13.06,0A9.26,9.26,0,0,0,751.85,1615.32Zm-3.58,6.52h-2.92l-2.12-5.27h-3.11v5.27h-2.78v-13h6a5.42,5.42,0,0,1,3.69,1.08,3.55,3.55,0,0,1,1.22,2.79,3.49,3.49,0,0,1-2.42,3.43Zm-8.15-7.33H743q2.43,0,2.43-1.86c0-1.19-.74-1.79-2.22-1.79h-3.07Z"/><polygon class="cls-2" points="1312.61 1592.29 1016.66 1590.61 1411.94 1563.48 1097.19 1776.39 1157.71 1671.48 1154.1 1699.58 1312.61 1592.29"/><path class="cls-2" d="M1034.56,1599.32a42.11,42.11,0,0,1,1.79,9.27c1.79-7.27,4.74-9.27,13.16-9.27,5.27,0,7.58.42,9.37,1.79,2,1.58,2.95,3.37,4,7.48,2.11-7.38,4.95-9.27,13.59-9.27,10.42,0,12.74,2.53,12.74,13.9v56.33h-18.85v-47.38c0-5-.95-6.63-3.79-6.63s-3.9,1.79-3.9,6.63v47.38h-18.85V1621c0-3.79-1.26-5.58-3.89-5.58s-3.79,1.9-3.79,5.79v48.33h-18.85v-54.23a60.59,60.59,0,0,0-1.79-16Z"/><path class="cls-2" d="M1114.8,1599.32v70.23H1096v-70.23Z"/><path class="cls-2" d="M1154.92,1614.59h-8.53v55h-18.85v-55H1119v-15.27h35.91Z"/><path class="cls-2" d="M1193.56,1614.59H1177v12.21h3.37c12.11,0,15.06,3.69,15.06,18.64v4.32c0,8.11-1,13.16-2.85,15.9s-4.21,3.58-8.95,3.79c-1.79,0-1.79,0-7.68.1H1158.5v-15.26h17.58v-12.22h-2.95c-7.26,0-10.42-1-12.42-4.42-2-3.06-2.53-6.32-2.53-14.85v-4.32c0-8.63,1.47-14.32,4.32-16.74,2.42-2.11,4.63-2.42,14.84-2.42h16.22v15.27Z"/><path class="cls-2" d="M1224.34,1615a10.91,10.91,0,0,1-3.31,8,10.78,10.78,0,0,1-7.93,3.33,11.32,11.32,0,0,1,0-22.63,10.78,10.78,0,0,1,7.92,3.32A11,11,0,0,1,1224.34,1615Zm-2,0a9.29,9.29,0,0,0-2.71-6.7,8.75,8.75,0,0,0-6.5-2.8,8.85,8.85,0,0,0-6.58,2.79,9.64,9.64,0,0,0,0,13.43,9,9,0,0,0,13,0A9.25,9.25,0,0,0,1222.32,1614.94Zm-3.58,6.51h-2.92l-2.12-5.26h-3.12v5.26h-2.78v-13h6a5.43,5.43,0,0,1,3.7,1.08,3.56,3.56,0,0,1,1.22,2.79,3.5,3.5,0,0,1-2.42,3.43Zm-8.16-7.33h2.87q2.43,0,2.43-1.86c0-1.18-.74-1.78-2.23-1.78h-3.07Z"/><polygon class="cls-2" points="1783.08 1591.91 1487.13 1590.23 1882.41 1563.1 1567.66 1776.01 1628.18 1671.11 1624.56 1699.2 1783.08 1591.91"/><path class="cls-2" d="M1505,1598.94a42.13,42.13,0,0,1,1.79,9.26c1.79-7.26,4.74-9.26,13.17-9.26,5.26,0,7.58.42,9.37,1.79,2,1.58,3,3.37,4,7.47,2.11-7.37,5-9.26,13.58-9.26,10.43,0,12.75,2.53,12.75,13.9v56.33h-18.85v-47.38c0-5-.95-6.64-3.79-6.64s-3.9,1.8-3.9,6.64v47.38h-18.85v-48.54c0-3.79-1.26-5.58-3.9-5.58s-3.79,1.9-3.79,5.79v48.33h-18.84v-54.23a61,61,0,0,0-1.79-16Z"/><path class="cls-2" d="M1585.26,1598.94v70.23h-18.85v-70.23Z"/><path class="cls-2" d="M1625.38,1614.21h-8.53v55H1598v-55h-8.52v-15.27h35.9Z"/><path class="cls-2" d="M1664,1614.21H1647.5v12.21h3.37c12.11,0,15.05,3.69,15.05,18.64v4.32c0,8.11-.94,13.16-2.84,15.9s-4.21,3.58-8.95,3.79c-1.79,0-1.79,0-7.69.1H1629v-15.26h17.59v-12.22h-3c-7.27,0-10.43-1-12.43-4.42-2-3.06-2.52-6.32-2.52-14.85v-4.32c0-8.63,1.47-14.32,4.31-16.74,2.43-2.11,4.64-2.42,14.85-2.42H1664v15.27Z"/><path class="cls-2" d="M1694.8,1614.57a10.94,10.94,0,0,1-3.3,8,11.18,11.18,0,0,1-15.92,0,11.31,11.31,0,0,1,8-19.3,10.74,10.74,0,0,1,7.91,3.32A10.94,10.94,0,0,1,1694.8,1614.57Zm-2,0a9.3,9.3,0,0,0-2.72-6.7,8.73,8.73,0,0,0-6.49-2.8,8.84,8.84,0,0,0-6.58,2.79,9.65,9.65,0,0,0,0,13.43,9.06,9.06,0,0,0,13.06,0A9.25,9.25,0,0,0,1692.79,1614.56Zm-3.58,6.51h-2.93l-2.11-5.26h-3.12v5.26h-2.78v-13h6a5.45,5.45,0,0,1,3.7,1.08,3.56,3.56,0,0,1,1.21,2.79,3.49,3.49,0,0,1-2.41,3.43Zm-8.16-7.33h2.86c1.62,0,2.44-.62,2.44-1.86s-.75-1.78-2.23-1.78h-3.07Z"/><polygon class="cls-2" points="2253.54 1591.53 1957.59 1589.85 2352.88 1562.72 2038.13 1775.63 2098.64 1670.72 2095.03 1698.82 2253.54 1591.53"/><path class="cls-2" d="M1975.49,1598.56a42.13,42.13,0,0,1,1.79,9.26c1.79-7.26,4.74-9.26,13.16-9.26,5.27,0,7.59.42,9.38,1.79,2,1.58,2.94,3.37,4,7.47,2.1-7.37,5-9.26,13.58-9.26,10.43,0,12.74,2.53,12.74,13.9v56.33h-18.85v-47.38c0-5-.94-6.64-3.79-6.64s-3.89,1.79-3.89,6.64v47.38h-18.85v-48.54c0-3.79-1.27-5.58-3.9-5.58s-3.79,1.89-3.79,5.79v48.33h-18.85v-54.23a60.59,60.59,0,0,0-1.79-16Z"/><path class="cls-2" d="M2055.73,1598.56v70.23h-18.85v-70.23Z"/><path class="cls-2" d="M2095.85,1613.83h-8.53v55h-18.85v-55h-8.53v-15.27h35.91Z"/><path class="cls-2" d="M2134.49,1613.83H2118V1626h3.37c12.11,0,15.06,3.69,15.06,18.64V1649c0,8.11-.95,13.16-2.84,15.9s-4.21,3.58-9,3.79c-1.79,0-1.79,0-7.69.1h-17.48v-15.26H2117v-12.22h-2.94c-7.27,0-10.43-1-12.43-4.42-2-3.06-2.53-6.32-2.53-14.85v-4.32c0-8.63,1.48-14.32,4.32-16.74,2.42-2.11,4.63-2.42,14.85-2.42h16.21v15.27Z"/><path class="cls-2" d="M2165.27,1614.19a10.88,10.88,0,0,1-3.31,8,11.14,11.14,0,0,1-15.91,0,11.3,11.3,0,0,1,8-19.29,10.75,10.75,0,0,1,7.92,3.32A11,11,0,0,1,2165.27,1614.19Zm-2,0a9.29,9.29,0,0,0-2.71-6.7,8.74,8.74,0,0,0-6.49-2.8,8.87,8.87,0,0,0-6.59,2.79,9.64,9.64,0,0,0,0,13.43,9.06,9.06,0,0,0,13.06,0A9.28,9.28,0,0,0,2163.25,1614.18Zm-3.58,6.51h-2.92l-2.12-5.26h-3.11v5.26h-2.78v-13h6a5.42,5.42,0,0,1,3.69,1.08,3.7,3.7,0,0,1-1.2,6.22Zm-8.15-7.33h2.86q2.43,0,2.43-1.86c0-1.18-.74-1.78-2.22-1.78h-3.07Z"/><polygon class="cls-2" points="2724.01 1592.67 2428.06 1590.99 2823.34 1563.86 2508.59 1776.77 2569.11 1671.87 2565.5 1699.96 2724.01 1592.67"/><path class="cls-2" d="M2446,1599.7a42.11,42.11,0,0,1,1.79,9.27c1.79-7.27,4.74-9.27,13.16-9.27,5.27,0,7.58.42,9.37,1.79,2,1.58,2.95,3.37,4,7.48,2.11-7.38,4.95-9.27,13.59-9.27,10.42,0,12.74,2.53,12.74,13.9v56.34h-18.85v-47.39c0-5-1-6.63-3.79-6.63s-3.9,1.79-3.9,6.63v47.39h-18.85v-48.55c0-3.79-1.26-5.58-3.89-5.58s-3.79,1.9-3.79,5.79v48.34h-18.85v-54.23a60.62,60.62,0,0,0-1.79-16Z"/><path class="cls-2" d="M2526.2,1599.7v70.24h-18.85V1599.7Z"/><path class="cls-2" d="M2566.32,1615h-8.53v55h-18.85v-55h-8.53V1599.7h35.91Z"/><path class="cls-2" d="M2605,1615h-16.53v12.21h3.37c12.11,0,15.06,3.69,15.06,18.64v4.32c0,8.11-1,13.16-2.85,15.9s-4.21,3.58-9,3.79c-1.79,0-1.79,0-7.68.11H2569.9v-15.27h17.58v-12.22h-2.95c-7.26,0-10.42-1-12.42-4.42-2-3.06-2.53-6.32-2.53-14.85v-4.32c0-8.63,1.47-14.32,4.32-16.74,2.42-2.11,4.63-2.42,14.84-2.42H2605V1615Z"/><path class="cls-2" d="M2635.74,1615.33a10.91,10.91,0,0,1-3.31,8,10.78,10.78,0,0,1-7.93,3.33,11.32,11.32,0,0,1,0-22.63,10.78,10.78,0,0,1,7.92,3.32A11,11,0,0,1,2635.74,1615.33Zm-2,0a9.33,9.33,0,0,0-2.71-6.7,8.75,8.75,0,0,0-6.5-2.8,8.85,8.85,0,0,0-6.58,2.79,9.64,9.64,0,0,0,0,13.43,9,9,0,0,0,13,0A9.23,9.23,0,0,0,2633.72,1615.32Zm-3.58,6.52h-2.92l-2.12-5.27H2622v5.27h-2.78v-13h6a5.43,5.43,0,0,1,3.7,1.08,3.58,3.58,0,0,1,1.22,2.79,3.5,3.5,0,0,1-2.42,3.43Zm-8.16-7.33h2.87q2.43,0,2.43-1.86c0-1.19-.74-1.79-2.23-1.79H2622Z"/><polygon class="cls-2" points="3194.47 1592.67 2898.53 1590.99 3293.81 1563.86 2979.06 1776.77 3039.58 1671.87 3035.96 1699.96 3194.47 1592.67"/><path class="cls-2" d="M2916.42,1599.7a42.11,42.11,0,0,1,1.79,9.27c1.79-7.27,4.74-9.27,13.17-9.27,5.26,0,7.58.42,9.37,1.79,2,1.58,2.95,3.37,4,7.48,2.11-7.38,4.95-9.27,13.58-9.27,10.43,0,12.75,2.53,12.75,13.9v56.34h-18.85v-47.39c0-5-.95-6.63-3.79-6.63s-3.9,1.79-3.9,6.63v47.39h-18.85v-48.55c0-3.79-1.26-5.58-3.9-5.58s-3.79,1.9-3.79,5.79v48.34h-18.84v-54.23a61,61,0,0,0-1.79-16Z"/><path class="cls-2" d="M2996.66,1599.7v70.24h-18.85V1599.7Z"/><path class="cls-2" d="M3036.78,1615h-8.53v55H3009.4v-55h-8.52V1599.7h35.9Z"/><path class="cls-2" d="M3075.43,1615H3058.9v12.21h3.37c12.11,0,15.05,3.69,15.05,18.64v4.32c0,8.11-.94,13.16-2.84,15.9s-4.21,3.58-8.95,3.79c-1.79,0-1.79,0-7.69.11h-17.48v-15.27H3058v-12.22H3055c-7.27,0-10.43-1-12.43-4.42-2-3.06-2.52-6.32-2.52-14.85v-4.32c0-8.63,1.47-14.32,4.31-16.74,2.43-2.11,4.64-2.42,14.85-2.42h16.22V1615Z"/><path class="cls-2" d="M3106.2,1615.33a10.94,10.94,0,0,1-3.3,8,11.18,11.18,0,0,1-15.92,0,11.31,11.31,0,0,1,8-19.3,10.74,10.74,0,0,1,7.91,3.32A11,11,0,0,1,3106.2,1615.33Zm-2,0a9.3,9.3,0,0,0-2.72-6.7,8.73,8.73,0,0,0-6.49-2.8,8.84,8.84,0,0,0-6.58,2.79,9.65,9.65,0,0,0,0,13.43,9.06,9.06,0,0,0,13.06,0A9.23,9.23,0,0,0,3104.19,1615.32Zm-3.58,6.52h-2.93l-2.11-5.27h-3.12v5.27h-2.78v-13h6a5.45,5.45,0,0,1,3.7,1.08,3.57,3.57,0,0,1,1.21,2.79,3.49,3.49,0,0,1-2.41,3.43Zm-8.16-7.33h2.86c1.62,0,2.44-.62,2.44-1.86s-.75-1.79-2.23-1.79h-3.07Z"/><polygon class="cls-2" points="3664.94 1592.67 3368.99 1590.99 3764.28 1563.86 3449.53 1776.77 3510.04 1671.87 3506.43 1699.96 3664.94 1592.67"/><path class="cls-2" d="M3386.89,1599.7a42.11,42.11,0,0,1,1.79,9.27c1.79-7.27,4.74-9.27,13.16-9.27,5.27,0,7.59.42,9.38,1.79,2,1.58,2.94,3.37,4,7.48,2.1-7.38,5-9.27,13.58-9.27,10.43,0,12.74,2.53,12.74,13.9v56.34h-18.85v-47.39c0-5-.94-6.63-3.79-6.63s-3.89,1.79-3.89,6.63v47.39h-18.85v-48.55c0-3.79-1.27-5.58-3.9-5.58s-3.79,1.9-3.79,5.79v48.34h-18.85v-54.23a60.62,60.62,0,0,0-1.79-16Z"/><path class="cls-2" d="M3467.13,1599.7v70.24h-18.85V1599.7Z"/><path class="cls-2" d="M3507.25,1615h-8.53v55h-18.85v-55h-8.53V1599.7h35.91Z"/><path class="cls-2" d="M3545.89,1615h-16.53v12.21h3.37c12.11,0,15.06,3.69,15.06,18.64v4.32c0,8.11-.95,13.16-2.84,15.9s-4.21,3.58-8.95,3.79c-1.79,0-1.79,0-7.69.11h-17.48v-15.27h17.58v-12.22h-2.94c-7.27,0-10.43-1-12.43-4.42-2-3.06-2.53-6.32-2.53-14.85v-4.32c0-8.63,1.48-14.32,4.32-16.74,2.42-2.11,4.63-2.42,14.85-2.42h16.21V1615Z"/><path class="cls-2" d="M3576.67,1615.33a10.91,10.91,0,0,1-3.31,8,11.17,11.17,0,0,1-15.91,0,11.31,11.31,0,0,1,8-19.3,10.75,10.75,0,0,1,7.92,3.32A11,11,0,0,1,3576.67,1615.33Zm-2,0a9.29,9.29,0,0,0-2.71-6.7,8.74,8.74,0,0,0-6.49-2.8,8.87,8.87,0,0,0-6.59,2.79,9.64,9.64,0,0,0,0,13.43,9,9,0,0,0,13.05,0A9.23,9.23,0,0,0,3574.65,1615.32Zm-3.58,6.52h-2.92l-2.12-5.27h-3.11v5.27h-2.78v-13h6a5.42,5.42,0,0,1,3.69,1.08,3.55,3.55,0,0,1,1.22,2.79,3.5,3.5,0,0,1-2.42,3.43Zm-8.15-7.33h2.86q2.43,0,2.43-1.86c0-1.19-.74-1.79-2.22-1.79h-3.07Z"/><polygon class="cls-2" points="372.83 1887.82 76.89 1886.15 472.17 1859.02 157.42 2071.93 217.94 1967.02 214.32 1995.12 372.83 1887.82"/><path class="cls-2" d="M94.78,1894.86a42.13,42.13,0,0,1,1.79,9.26c1.79-7.26,4.74-9.26,13.17-9.26,5.26,0,7.58.42,9.37,1.79,2,1.58,3,3.37,4,7.47,2.11-7.37,5-9.26,13.58-9.26,10.43,0,12.75,2.52,12.75,13.9v56.33H130.59v-47.38c0-5-1-6.64-3.79-6.64s-3.9,1.79-3.9,6.64v47.38H104.05v-48.54c0-3.79-1.26-5.58-3.9-5.58s-3.79,1.89-3.79,5.79v48.33H77.52v-54.23a60.59,60.59,0,0,0-1.8-16Z"/><path class="cls-2" d="M175,1894.86v70.23H156.17v-70.23Z"/><path class="cls-2" d="M215.14,1910.13h-8.53v55H187.76v-55h-8.52v-15.27h35.9Z"/><path class="cls-2" d="M253.79,1910.13H237.26v12.21h3.37c12.1,0,15.05,3.69,15.05,18.64v4.32c0,8.1-.94,13.16-2.84,15.9s-4.21,3.58-9,3.79c-1.79,0-1.79,0-7.69.1H218.72v-15.27h17.59v-12.21h-2.95c-7.27,0-10.43-1-12.43-4.42-2-3.06-2.52-6.32-2.52-14.85V1914c0-8.63,1.47-14.32,4.31-16.74,2.43-2.11,4.64-2.42,14.85-2.42h16.22v15.27Z"/><path class="cls-2" d="M284.56,1910.49a10.91,10.91,0,0,1-3.3,8,11.18,11.18,0,0,1-15.92,0,11.3,11.3,0,0,1,8-19.29,10.74,10.74,0,0,1,7.91,3.32A10.94,10.94,0,0,1,284.56,1910.49Zm-2,0a9.29,9.29,0,0,0-2.72-6.69,8.69,8.69,0,0,0-6.49-2.8,8.84,8.84,0,0,0-6.58,2.79,9.65,9.65,0,0,0,0,13.43,9.06,9.06,0,0,0,13.06,0A9.25,9.25,0,0,0,282.55,1910.47ZM279,1917H276l-2.11-5.26h-3.12V1917H268v-13h6a5.45,5.45,0,0,1,3.7,1.08,3.55,3.55,0,0,1,1.21,2.78,3.49,3.49,0,0,1-2.41,3.44Zm-8.16-7.33h2.86c1.62,0,2.44-.62,2.44-1.86s-.75-1.78-2.23-1.78h-3.07Z"/><polygon class="cls-2" points="842.14 1887.82 546.19 1886.15 941.48 1859.02 626.73 2071.93 687.24 1967.02 683.63 1995.12 842.14 1887.82"/><path class="cls-2" d="M564.09,1894.86a42.13,42.13,0,0,1,1.79,9.26c1.79-7.26,4.74-9.26,13.16-9.26,5.27,0,7.59.42,9.38,1.79,2,1.58,2.94,3.37,4,7.47,2.1-7.37,5-9.26,13.58-9.26,10.43,0,12.74,2.52,12.74,13.9v56.33H599.89v-47.38c0-5-.94-6.64-3.79-6.64s-3.89,1.79-3.89,6.64v47.38H573.36v-48.54c0-3.79-1.27-5.58-3.9-5.58s-3.79,1.89-3.79,5.79v48.33H546.82v-54.23a60.59,60.59,0,0,0-1.79-16Z"/><path class="cls-2" d="M644.33,1894.86v70.23H625.48v-70.23Z"/><path class="cls-2" d="M684.45,1910.13h-8.53v55H657.07v-55h-8.53v-15.27h35.91Z"/><path class="cls-2" d="M723.09,1910.13H706.56v12.21h3.37C722,1922.34,725,1926,725,1941v4.32c0,8.1-1,13.16-2.84,15.9s-4.21,3.58-8.95,3.79c-1.79,0-1.79,0-7.69.1H688v-15.27h17.58v-12.21h-2.94c-7.27,0-10.43-1-12.43-4.42-2-3.06-2.53-6.32-2.53-14.85V1914c0-8.63,1.48-14.32,4.32-16.74,2.42-2.11,4.63-2.42,14.85-2.42h16.21v15.27Z"/><path class="cls-2" d="M753.87,1910.49a10.88,10.88,0,0,1-3.31,8,11.17,11.17,0,0,1-15.91,0,11.3,11.3,0,0,1,8-19.29,10.75,10.75,0,0,1,7.92,3.32A11,11,0,0,1,753.87,1910.49Zm-2,0a9.28,9.28,0,0,0-2.71-6.69,8.71,8.71,0,0,0-6.49-2.8,8.87,8.87,0,0,0-6.59,2.79,9.64,9.64,0,0,0,0,13.43,9.06,9.06,0,0,0,13.06,0A9.28,9.28,0,0,0,751.85,1910.47Zm-3.58,6.52h-2.92l-2.12-5.26h-3.11V1917h-2.78v-13h6a5.42,5.42,0,0,1,3.69,1.08,3.53,3.53,0,0,1,1.22,2.78,3.49,3.49,0,0,1-2.42,3.44Zm-8.15-7.33H743q2.43,0,2.43-1.86c0-1.18-.74-1.78-2.22-1.78h-3.07Z"/><polygon class="cls-2" points="1312.61 1887.44 1016.66 1885.77 1411.94 1858.64 1097.19 2071.55 1157.71 1966.64 1154.1 1994.74 1312.61 1887.44"/><path class="cls-2" d="M1034.56,1894.48a42.13,42.13,0,0,1,1.79,9.26c1.79-7.26,4.74-9.26,13.16-9.26,5.27,0,7.58.42,9.37,1.79,2,1.58,2.95,3.37,4,7.47,2.11-7.37,4.95-9.26,13.59-9.26,10.42,0,12.74,2.52,12.74,13.9v56.33h-18.85v-47.38c0-4.95-.95-6.64-3.79-6.64s-3.9,1.79-3.9,6.64v47.38h-18.85v-48.54c0-3.79-1.26-5.58-3.89-5.58s-3.79,1.89-3.79,5.79v48.33h-18.85v-54.23a60.59,60.59,0,0,0-1.79-16Z"/><path class="cls-2" d="M1114.8,1894.48v70.23H1096v-70.23Z"/><path class="cls-2" d="M1154.92,1909.75h-8.53v55h-18.85v-55H1119v-15.27h35.91Z"/><path class="cls-2" d="M1193.56,1909.75H1177V1922h3.37c12.11,0,15.06,3.69,15.06,18.64v4.32c0,8.1-1,13.16-2.85,15.9s-4.21,3.58-8.95,3.79c-1.79,0-1.79,0-7.68.1H1158.5v-15.27h17.58v-12.21h-2.95c-7.26,0-10.42-1-12.42-4.42-2-3.06-2.53-6.32-2.53-14.85v-4.32c0-8.63,1.47-14.32,4.32-16.74,2.42-2.11,4.63-2.42,14.84-2.42h16.22v15.27Z"/><path class="cls-2" d="M1224.34,1910.11a10.9,10.9,0,0,1-3.31,8,10.78,10.78,0,0,1-7.93,3.33,11.31,11.31,0,1,1,0-22.62,10.78,10.78,0,0,1,7.92,3.32A11,11,0,0,1,1224.34,1910.11Zm-2,0a9.28,9.28,0,0,0-2.71-6.69,8.71,8.71,0,0,0-6.5-2.8,8.85,8.85,0,0,0-6.58,2.79,9.64,9.64,0,0,0,0,13.43,9,9,0,0,0,13,0A9.27,9.27,0,0,0,1222.32,1910.09Zm-3.58,6.52h-2.92l-2.12-5.26h-3.12v5.26h-2.78v-13h6a5.43,5.43,0,0,1,3.7,1.08,3.56,3.56,0,0,1,1.22,2.78,3.5,3.5,0,0,1-2.42,3.44Zm-8.16-7.33h2.87q2.43,0,2.43-1.86c0-1.18-.74-1.78-2.23-1.78h-3.07Z"/><polygon class="cls-2" points="1783.08 1887.06 1487.13 1885.39 1882.41 1858.26 1567.66 2071.17 1628.18 1966.26 1624.56 1994.36 1783.08 1887.06"/><path class="cls-2" d="M1505,1894.1a42.13,42.13,0,0,1,1.79,9.26c1.79-7.26,4.74-9.26,13.17-9.26,5.26,0,7.58.42,9.37,1.79,2,1.58,3,3.37,4,7.47,2.11-7.37,5-9.26,13.58-9.26,10.43,0,12.75,2.52,12.75,13.9v56.33h-18.85V1917c0-5-.95-6.64-3.79-6.64s-3.9,1.79-3.9,6.64v47.38h-18.85v-48.54c0-3.79-1.26-5.58-3.9-5.58s-3.79,1.89-3.79,5.79v48.33h-18.84V1910.1a61,61,0,0,0-1.79-16Z"/><path class="cls-2" d="M1585.26,1894.1v70.23h-18.85V1894.1Z"/><path class="cls-2" d="M1625.38,1909.36h-8.53v55H1598v-55h-8.52V1894.1h35.9Z"/><path class="cls-2" d="M1664,1909.36H1647.5v12.22h3.37c12.11,0,15.05,3.69,15.05,18.64v4.32c0,8.1-.94,13.16-2.84,15.9s-4.21,3.58-8.95,3.79c-1.79,0-1.79,0-7.69.1H1629v-15.27h17.59v-12.21h-3c-7.27,0-10.43-1-12.43-4.42-2-3.06-2.52-6.32-2.52-14.85v-4.32c0-8.63,1.47-14.32,4.31-16.74,2.43-2.11,4.64-2.42,14.85-2.42H1664v15.26Z"/><path class="cls-2" d="M1694.8,1909.73a10.93,10.93,0,0,1-3.3,8,11.18,11.18,0,0,1-15.92,0,11.3,11.3,0,0,1,8-19.29,10.74,10.74,0,0,1,7.91,3.32A10.94,10.94,0,0,1,1694.8,1909.73Zm-2,0a9.29,9.29,0,0,0-2.72-6.69,8.69,8.69,0,0,0-6.49-2.8A8.84,8.84,0,0,0,1677,1903a9.65,9.65,0,0,0,0,13.43,9.06,9.06,0,0,0,13.06,0A9.27,9.27,0,0,0,1692.79,1909.71Zm-3.58,6.52h-2.93l-2.11-5.26h-3.12v5.26h-2.78v-13h6a5.45,5.45,0,0,1,3.7,1.08,3.55,3.55,0,0,1,1.21,2.78,3.49,3.49,0,0,1-2.41,3.44Zm-8.16-7.33h2.86c1.62,0,2.44-.62,2.44-1.86s-.75-1.78-2.23-1.78h-3.07Z"/><polygon class="cls-2" points="2253.54 1886.68 1957.59 1885.01 2352.88 1857.88 2038.13 2070.79 2098.64 1965.88 2095.03 1993.98 2253.54 1886.68"/><path class="cls-2" d="M1975.49,1893.72a42.13,42.13,0,0,1,1.79,9.26c1.79-7.26,4.74-9.26,13.16-9.26,5.27,0,7.59.42,9.38,1.79,2,1.58,2.94,3.37,4,7.47,2.1-7.37,5-9.26,13.58-9.26,10.43,0,12.74,2.52,12.74,13.9V1964h-18.85v-47.38c0-5-.94-6.64-3.79-6.64s-3.89,1.79-3.89,6.64V1964h-18.85v-48.54c0-3.79-1.27-5.58-3.9-5.58s-3.79,1.89-3.79,5.79V1964h-18.85v-54.23a60.59,60.59,0,0,0-1.79-16Z"/><path class="cls-2" d="M2055.73,1893.72V1964h-18.85v-70.23Z"/><path class="cls-2" d="M2095.85,1909h-8.53v55h-18.85v-55h-8.53v-15.26h35.91Z"/><path class="cls-2" d="M2134.49,1909H2118v12.22h3.37c12.11,0,15.06,3.69,15.06,18.64v4.32c0,8.1-.95,13.16-2.84,15.9s-4.21,3.58-9,3.79c-1.79,0-1.79,0-7.69.1h-17.48v-15.27H2117v-12.21h-2.94c-7.27,0-10.43-1-12.43-4.42-2-3.06-2.53-6.32-2.53-14.85v-4.32c0-8.63,1.48-14.32,4.32-16.74,2.42-2.11,4.63-2.42,14.85-2.42h16.21V1909Z"/><path class="cls-2" d="M2165.27,1909.35a10.9,10.9,0,0,1-3.31,8,11.17,11.17,0,0,1-15.91,0,11.3,11.3,0,0,1,8-19.29,10.75,10.75,0,0,1,7.92,3.32A11,11,0,0,1,2165.27,1909.35Zm-2,0a9.26,9.26,0,0,0-2.71-6.69,8.71,8.71,0,0,0-6.49-2.8,8.87,8.87,0,0,0-6.59,2.79,9.64,9.64,0,0,0,0,13.43,9.06,9.06,0,0,0,13.06,0A9.3,9.3,0,0,0,2163.25,1909.33Zm-3.58,6.52h-2.92l-2.12-5.26h-3.11v5.26h-2.78v-13h6a5.42,5.42,0,0,1,3.69,1.08,3.7,3.7,0,0,1-1.2,6.22Zm-8.15-7.33h2.86q2.43,0,2.43-1.86c0-1.19-.74-1.78-2.22-1.78h-3.07Z"/><polygon class="cls-2" points="2724.01 1887.82 2428.06 1886.15 2823.34 1859.02 2508.59 2071.93 2569.11 1967.02 2565.5 1995.12 2724.01 1887.82"/><path class="cls-2" d="M2446,1894.86a42.13,42.13,0,0,1,1.79,9.26c1.79-7.26,4.74-9.26,13.16-9.26,5.27,0,7.58.42,9.37,1.79,2,1.58,2.95,3.37,4,7.47,2.11-7.37,4.95-9.26,13.59-9.26,10.42,0,12.74,2.52,12.74,13.9v56.33h-18.85v-47.38c0-5-1-6.64-3.79-6.64s-3.9,1.79-3.9,6.64v47.38h-18.85v-48.54c0-3.79-1.26-5.58-3.89-5.58s-3.79,1.89-3.79,5.79v48.33h-18.85v-54.23a60.59,60.59,0,0,0-1.79-16Z"/><path class="cls-2" d="M2526.2,1894.86v70.23h-18.85v-70.23Z"/><path class="cls-2" d="M2566.32,1910.13h-8.53v55h-18.85v-55h-8.53v-15.27h35.91Z"/><path class="cls-2" d="M2605,1910.13h-16.53v12.21h3.37c12.11,0,15.06,3.69,15.06,18.64v4.32c0,8.1-1,13.16-2.85,15.9s-4.21,3.58-9,3.79c-1.79,0-1.79,0-7.68.1H2569.9v-15.27h17.58v-12.21h-2.95c-7.26,0-10.42-1-12.42-4.42-2-3.06-2.53-6.32-2.53-14.85V1914c0-8.63,1.47-14.32,4.32-16.74,2.42-2.11,4.63-2.42,14.84-2.42H2605v15.27Z"/><path class="cls-2" d="M2635.74,1910.49a11.28,11.28,0,1,1-3.29-8A10.88,10.88,0,0,1,2635.74,1910.49Zm-2,0a9.32,9.32,0,0,0-2.71-6.69,8.71,8.71,0,0,0-6.5-2.8,8.85,8.85,0,0,0-6.58,2.79,9.64,9.64,0,0,0,0,13.43,9,9,0,0,0,13,0A9.25,9.25,0,0,0,2633.72,1910.47Zm-3.58,6.52h-2.92l-2.12-5.26H2622V1917h-2.78v-13h6a5.43,5.43,0,0,1,3.7,1.08,3.56,3.56,0,0,1,1.22,2.78,3.5,3.5,0,0,1-2.42,3.44Zm-8.16-7.33h2.87q2.43,0,2.43-1.86c0-1.18-.74-1.78-2.23-1.78H2622Z"/><polygon class="cls-2" points="3194.47 1887.82 2898.53 1886.15 3293.81 1859.02 2979.06 2071.93 3039.58 1967.02 3035.96 1995.12 3194.47 1887.82"/><path class="cls-2" d="M2916.42,1894.86a42.13,42.13,0,0,1,1.79,9.26c1.79-7.26,4.74-9.26,13.17-9.26,5.26,0,7.58.42,9.37,1.79,2,1.58,2.95,3.37,4,7.47,2.11-7.37,4.95-9.26,13.58-9.26,10.43,0,12.75,2.52,12.75,13.9v56.33h-18.85v-47.38c0-5-.95-6.64-3.79-6.64s-3.9,1.79-3.9,6.64v47.38h-18.85v-48.54c0-3.79-1.26-5.58-3.9-5.58s-3.79,1.89-3.79,5.79v48.33h-18.84v-54.23a61,61,0,0,0-1.79-16Z"/><path class="cls-2" d="M2996.66,1894.86v70.23h-18.85v-70.23Z"/><path class="cls-2" d="M3036.78,1910.13h-8.53v55H3009.4v-55h-8.52v-15.27h35.9Z"/><path class="cls-2" d="M3075.43,1910.13H3058.9v12.21h3.37c12.11,0,15.05,3.69,15.05,18.64v4.32c0,8.1-.94,13.16-2.84,15.9s-4.21,3.58-8.95,3.79c-1.79,0-1.79,0-7.69.1h-17.48v-15.27H3058v-12.21H3055c-7.27,0-10.43-1-12.43-4.42-2-3.06-2.52-6.32-2.52-14.85V1914c0-8.63,1.47-14.32,4.31-16.74,2.43-2.11,4.64-2.42,14.85-2.42h16.22v15.27Z"/><path class="cls-2" d="M3106.2,1910.49a10.91,10.91,0,0,1-3.3,8,11.18,11.18,0,0,1-15.92,0,11.3,11.3,0,0,1,8-19.29,10.74,10.74,0,0,1,7.91,3.32A10.94,10.94,0,0,1,3106.2,1910.49Zm-2,0a9.29,9.29,0,0,0-2.72-6.69,8.69,8.69,0,0,0-6.49-2.8,8.84,8.84,0,0,0-6.58,2.79,9.65,9.65,0,0,0,0,13.43,9.06,9.06,0,0,0,13.06,0A9.25,9.25,0,0,0,3104.19,1910.47Zm-3.58,6.52h-2.93l-2.11-5.26h-3.12V1917h-2.78v-13h6a5.45,5.45,0,0,1,3.7,1.08,3.55,3.55,0,0,1,1.21,2.78,3.49,3.49,0,0,1-2.41,3.44Zm-8.16-7.33h2.86c1.62,0,2.44-.62,2.44-1.86s-.75-1.78-2.23-1.78h-3.07Z"/><polygon class="cls-2" points="3664.94 1887.82 3368.99 1886.15 3764.28 1859.02 3449.53 2071.93 3510.04 1967.02 3506.43 1995.12 3664.94 1887.82"/><path class="cls-2" d="M3386.89,1894.86a42.13,42.13,0,0,1,1.79,9.26c1.79-7.26,4.74-9.26,13.16-9.26,5.27,0,7.59.42,9.38,1.79,2,1.58,2.94,3.37,4,7.47,2.1-7.37,5-9.26,13.58-9.26,10.43,0,12.74,2.52,12.74,13.9v56.33h-18.85v-47.38c0-5-.94-6.64-3.79-6.64s-3.89,1.79-3.89,6.64v47.38h-18.85v-48.54c0-3.79-1.27-5.58-3.9-5.58s-3.79,1.89-3.79,5.79v48.33h-18.85v-54.23a60.59,60.59,0,0,0-1.79-16Z"/><path class="cls-2" d="M3467.13,1894.86v70.23h-18.85v-70.23Z"/><path class="cls-2" d="M3507.25,1910.13h-8.53v55h-18.85v-55h-8.53v-15.27h35.91Z"/><path class="cls-2" d="M3545.89,1910.13h-16.53v12.21h3.37c12.11,0,15.06,3.69,15.06,18.64v4.32c0,8.1-.95,13.16-2.84,15.9s-4.21,3.58-8.95,3.79c-1.79,0-1.79,0-7.69.1h-17.48v-15.27h17.58v-12.21h-2.94c-7.27,0-10.43-1-12.43-4.42-2-3.06-2.53-6.32-2.53-14.85V1914c0-8.63,1.48-14.32,4.32-16.74,2.42-2.11,4.63-2.42,14.85-2.42h16.21v15.27Z"/><path class="cls-2" d="M3576.67,1910.49a10.88,10.88,0,0,1-3.31,8,11.17,11.17,0,0,1-15.91,0,11.3,11.3,0,0,1,8-19.29,10.75,10.75,0,0,1,7.92,3.32A11,11,0,0,1,3576.67,1910.49Zm-2,0a9.28,9.28,0,0,0-2.71-6.69,8.71,8.71,0,0,0-6.49-2.8,8.87,8.87,0,0,0-6.59,2.79,9.64,9.64,0,0,0,0,13.43,9,9,0,0,0,13.05,0A9.25,9.25,0,0,0,3574.65,1910.47Zm-3.58,6.52h-2.92l-2.12-5.26h-3.11V1917h-2.78v-13h6a5.42,5.42,0,0,1,3.69,1.08,3.7,3.7,0,0,1-1.2,6.22Zm-8.15-7.33h2.86q2.43,0,2.43-1.86c0-1.18-.74-1.78-2.22-1.78h-3.07Z"/></svg>