<svg id="Layer_1" data-name="Layer 1" xmlns="http://www.w3.org/2000/svg" viewBox="0 0 512 512"><defs><style>.cls-1{fill:#fff;}.cls-2{fill:none;}</style></defs><title>Artboard 1</title><rect class="cls-1" x="302.27" y="57.62" width="44.55" height="106.61" rx="5.59"/><rect class="cls-2" x="104.25" y="35.93" width="280.37" height="149.98" rx="25.46"/><path class="cls-1" d="M493.86,110.68,401,17.8H17.8V494.2H494.2V17.8ZM104.25,61.39a25.46,25.46,0,0,1,25.46-25.46H359.16a25.46,25.46,0,0,1,25.46,25.46v99.06a25.46,25.46,0,0,1-25.46,25.46H129.71a25.46,25.46,0,0,1-25.46-25.46ZM434.77,422a27.87,27.87,0,0,1-27.88,27.87H105.11A27.87,27.87,0,0,1,77.23,422V252.75a27.87,27.87,0,0,1,27.88-27.87H406.89a27.87,27.87,0,0,1,27.88,27.87Z"/></svg>